<?xml version="1.0" standalone="no"?>
<!DOCTYPE svg PUBLIC "-//W3C//DTD SVG 1.1//EN" "http://www.w3.org/Graphics/SVG/1.1/DTD/svg11.dtd" >
<svg xmlns="http://www.w3.org/2000/svg" xmlns:xlink="http://www.w3.org/1999/xlink" version="1.1">
<metadata>
Created by FontForge 20190801 at Mon Dec  5 17:41:49 2011
 By Jimmy Wärting
Copyright (c) 2011 by . All rights reserved.
</metadata>
<defs>
<font id="Bookmania-Regular" horiz-adv-x="1086" >
  <font-face 
    font-family="Bookmania"
    font-weight="400"
    font-stretch="normal"
    units-per-em="1000"
    panose-1="2 0 5 3 7 0 0 2 0 3"
    ascent="750"
    descent="-250"
    x-height="451"
    cap-height="700"
    bbox="-449 -587 1785 1016"
    underline-thickness="50"
    underline-position="-100"
    stemh="40"
    stemv="96"
    unicode-range="U+000D-FB06"
  />
<missing-glyph horiz-adv-x="789" 
d="M125 0v700h539v-700h-539zM180 656v-612h429v612h-429z" />
    <glyph glyph-name="fi" unicode="fi" horiz-adv-x="552" 
d="M526 0h-223v25c55 5 67 16 67 52v301c0 22 -8 31 -27 32h-161v-333c0 -36 18 -47 72 -52v-25h-228v25c55 5 68 16 68 52v333h-68v41h68v49c0 143 99 215 210 215c80 0 132 -41 132 -83c0 -26 -18 -46 -44 -46c-29 0 -45 25 -59 46c-16 23 -37 42 -64 42
c-49 0 -87 -36 -87 -118v-105h277v-374c0 -36 13 -47 67 -52v-25z" />
    <glyph glyph-name="fl" unicode="fl" horiz-adv-x="552" 
d="M526 0h-223v25c55 5 67 16 67 52v333h-188v-333c0 -36 18 -47 72 -52v-25h-228v25c55 5 68 16 68 52v333h-68v41h68v49c0 136 88 215 201 215c38 0 72 -12 93 -28l40 28h31v-638c0 -36 13 -47 67 -52v-25zM182 566v-115h188v148c-54 -1 -53 72 -109 72
c-44 0 -79 -35 -79 -105z" />
    <glyph glyph-name="f_b" unicode="fb" horiz-adv-x="835" 
d="M370 -15v425h-188v-333c0 -36 18 -47 72 -52v-25h-228v25c55 5 68 16 68 52v333h-68v41h68v49c0 136 88 215 201 215c39 0 72 -12 93 -28l40 28h31v-300c31 32 74 51 133 51c132 0 208 -105 208 -240c0 -136 -76 -241 -215 -241c-60 0 -105 19 -135 52l-44 -52h-36z
M570 423c-50 0 -86 -21 -111 -55v-285c25 -34 61 -55 111 -55c99 0 134 82 134 198s-35 197 -134 197zM182 566v-115h188v149c-50 0 -53 71 -109 71c-44 0 -79 -35 -79 -105z" />
    <glyph glyph-name="ff" unicode="ff" horiz-adv-x="577" 
d="M531 0h-228v25c55 5 67 16 67 52v333h-188v-333c0 -36 18 -47 72 -52v-25h-228v25c55 5 68 16 68 52v333h-68v41h68v59c0 126 77 205 183 205c47 0 79 -22 79 -53c0 -28 -20 -48 -47 -48c-46 0 -41 48 -79 48c-29 0 -48 -26 -48 -75v-136h188v59c0 126 78 205 184 205
c47 0 79 -22 79 -53c0 -28 -20 -48 -48 -48c-45 0 -40 48 -79 48c-28 0 -47 -26 -47 -75v-136h97v-41h-97v-333c0 -36 18 -47 72 -52v-25z" />
    <glyph glyph-name="f_h" unicode="fh" horiz-adv-x="849" 
d="M526 0h-223v25c55 5 67 16 67 52v333h-188v-333c0 -36 18 -47 72 -52v-25h-228v25c55 5 68 16 68 52v333h-68v41h68v49c0 136 88 215 201 215c39 0 72 -12 93 -28l40 28h31v-299c38 24 99 50 155 50c75 0 142 -27 142 -168v-221c0 -36 12 -47 67 -52v-25h-223v25
c54 5 67 16 67 52v254c0 59 -31 84 -78 84s-91 -16 -130 -43v-295c0 -36 13 -47 67 -52v-25zM182 566v-115h188v149c-50 0 -53 71 -109 71c-44 0 -79 -35 -79 -105z" />
    <glyph glyph-name="f_j" unicode="fj" horiz-adv-x="543" 
d="M275 -199c-43 0 -77 18 -77 56c0 24 20 45 45 45c44 0 42 -48 76 -48c29 0 51 22 51 75v449c0 24 -9 32 -31 32h-157v-333c0 -36 18 -47 72 -52v-25h-228v25c55 5 68 16 68 52v333h-68v41h68v49c0 143 99 215 210 215c80 0 132 -41 132 -83c0 -26 -18 -46 -44 -46
c-29 0 -45 25 -59 46c-16 23 -37 42 -64 42c-49 0 -87 -36 -87 -118v-105h277v-433c0 -148 -80 -217 -184 -217z" />
    <glyph glyph-name="f_k" unicode="fk" horiz-adv-x="814" 
d="M526 0h-223v25c55 5 67 16 67 52v333h-188v-333c0 -36 18 -47 72 -52v-25h-228v25c55 5 68 16 68 52v333h-68v41h68v49c0 136 88 215 201 215c39 0 72 -12 93 -28l40 28h31v-483l135 136c23 23 33 53 -46 58v25h235v-25c-58 -5 -87 -20 -133 -65l-70 -70l166 -207
c36 -45 55 -54 87 -59v-25h-248v25c69 5 70 35 49 61l-117 143l-58 -58v-94c0 -36 13 -47 67 -52v-25zM182 566v-115h188v148c-54 -1 -53 72 -109 72c-44 0 -79 -35 -79 -105z" />
    <glyph glyph-name="f_f_b" unicode="ffb" horiz-adv-x="1114" 
d="M862 -15c-60 0 -105 19 -136 52l-44 -52h-35v425h-188v-333c0 -36 18 -47 72 -52v-25h-228v25c55 5 67 16 67 52v333h-188v-333c0 -36 18 -47 72 -52v-25h-228v25c55 5 68 16 68 52v333h-68v41h68v59c0 126 77 205 183 205c47 0 79 -22 79 -53c0 -28 -20 -48 -47 -48
c-46 0 -41 48 -79 48c-29 0 -48 -26 -48 -75v-136h188v49c0 136 89 215 201 215c40 0 73 -12 94 -28l40 28h31v-300c31 32 74 51 133 51c132 0 207 -105 207 -240c0 -136 -75 -241 -214 -241zM847 423c-50 0 -87 -21 -111 -55v-285c24 -34 61 -55 111 -55
c99 0 133 82 133 198s-34 197 -133 197zM459 566v-115h188v149c-51 0 -54 71 -109 71c-44 0 -79 -35 -79 -105z" />
    <glyph glyph-name="ffi" unicode="ffi" horiz-adv-x="829" 
d="M803 0h-223v25c54 5 67 16 67 52v301c0 22 -8 31 -27 32h-161v-333c0 -36 18 -47 72 -52v-25h-228v25c55 5 67 16 67 52v333h-188v-333c0 -36 18 -47 72 -52v-25h-228v25c55 5 68 16 68 52v333h-68v41h68v59c0 126 77 205 183 205c47 0 79 -22 79 -53
c0 -28 -20 -48 -47 -48c-46 0 -41 48 -79 48c-29 0 -48 -26 -48 -75v-136h188v49c0 143 100 215 210 215c81 0 133 -41 133 -83c0 -26 -18 -46 -44 -46c-29 0 -45 25 -60 46c-15 23 -36 42 -64 42c-48 0 -86 -36 -86 -118v-105h277v-374c0 -36 12 -47 67 -52v-25z" />
    <glyph glyph-name="f_f_j" unicode="ffj" horiz-adv-x="822" 
d="M552 -199c-44 0 -78 18 -78 56c0 24 21 45 46 45c44 0 41 -48 76 -48c29 0 51 22 51 75v449c0 24 -9 32 -31 32h-157v-333c0 -36 18 -47 72 -52v-25h-228v25c55 5 67 16 67 52v333h-188v-333c0 -36 18 -47 72 -52v-25h-228v25c55 5 68 16 68 52v333h-68v41h68v59
c0 126 77 205 183 205c47 0 79 -22 79 -53c0 -28 -20 -48 -47 -48c-46 0 -41 48 -79 48c-29 0 -48 -26 -48 -75v-136h188v49c0 143 100 215 210 215c81 0 133 -41 133 -83c0 -26 -18 -46 -44 -46c-29 0 -45 25 -60 46c-15 23 -36 42 -64 42c-48 0 -86 -36 -86 -118v-105h277
v-433c0 -148 -81 -217 -184 -217z" />
    <glyph glyph-name="f_f_k" unicode="ffk" horiz-adv-x="1091" 
d="M1110 0h-249v25c70 5 70 35 50 61l-117 143l-58 -58v-94c0 -36 12 -47 67 -52v-25h-223v25c54 5 67 16 67 52v333h-188v-333c0 -36 18 -47 72 -52v-25h-228v25c55 5 67 16 67 52v333h-188v-333c0 -36 18 -47 72 -52v-25h-228v25c55 5 68 16 68 52v333h-68v41h68v59
c0 126 77 205 183 205c47 0 79 -22 79 -53c0 -28 -20 -48 -47 -48c-46 0 -41 48 -79 48c-29 0 -48 -26 -48 -75v-136h188v49c0 136 89 215 201 215c40 0 73 -12 94 -28l40 28h31v-483l134 136c24 23 33 53 -45 58v25h235v-25c-58 -5 -87 -20 -133 -65l-70 -70l165 -207
c37 -45 55 -54 88 -59v-25zM459 566v-115h188v148c-54 -1 -54 72 -109 72c-44 0 -79 -35 -79 -105z" />
    <glyph glyph-name="ffl" unicode="ffl" horiz-adv-x="829" 
d="M803 0h-223v25c54 5 67 16 67 52v333h-188v-333c0 -36 18 -47 72 -52v-25h-228v25c55 5 67 16 67 52v333h-188v-333c0 -36 18 -47 72 -52v-25h-228v25c55 5 68 16 68 52v333h-68v41h68v59c0 126 77 205 183 205c47 0 79 -22 79 -53c0 -28 -20 -48 -47 -48
c-46 0 -41 48 -79 48c-29 0 -48 -26 -48 -75v-136h188v49c0 136 89 215 201 215c39 0 73 -12 94 -28l40 28h31v-638c0 -36 12 -47 67 -52v-25zM459 566v-115h188v148c-54 -1 -54 72 -109 72c-44 0 -79 -35 -79 -105z" />
    <glyph glyph-name="longs_b" unicode="&#x17f;b" horiz-adv-x="835" 
d="M370 -15v615h-6c-45 0 -50 71 -103 71c-44 0 -79 -35 -79 -105v-489c0 -36 18 -47 72 -52v-25h-228v25c55 5 68 16 68 52v333h-68v41h68v49c0 136 88 215 201 215c39 0 72 -12 93 -28l40 28h31v-300c31 32 74 51 133 51c132 0 208 -105 208 -240
c0 -136 -76 -241 -215 -241c-60 0 -105 19 -135 52l-44 -52h-36zM570 423c-50 0 -86 -21 -111 -55v-285c25 -34 61 -55 111 -55c99 0 134 82 134 198s-35 197 -134 197z" />
    <glyph glyph-name="longs_h" unicode="&#x17f;h" horiz-adv-x="849" 
d="M526 0h-223v25c55 5 67 16 67 52v523h-6c-45 0 -50 71 -103 71c-44 0 -79 -35 -79 -105v-489c0 -36 18 -47 72 -52v-25h-228v25c55 5 68 16 68 52v333h-68v41h68v49c0 136 88 215 201 215c39 0 72 -12 93 -28l40 28h31v-299c38 24 99 50 155 50c59 0 142 -23 142 -135
v-254c0 -36 12 -47 67 -52v-25h-223v25c54 5 67 16 67 52v254c0 59 -31 84 -78 84s-91 -16 -130 -43v-295c0 -36 13 -47 67 -52v-25z" />
    <glyph glyph-name="longs_i" unicode="&#x17f;i" horiz-adv-x="552" 
d="M26 410v41h68v49c0 143 99 215 210 215c80 0 132 -41 132 -83c0 -26 -18 -46 -44 -46c-29 0 -45 25 -59 46c-16 23 -37 42 -64 42c-49 0 -87 -36 -87 -118v-479c0 -36 18 -47 72 -52v-25h-228v25c55 5 68 16 68 52v333h-68zM526 0h-223v25c55 5 67 16 67 52v258
c0 24 -9 33 -31 33h-36v20l125 78h31v-389c0 -36 13 -47 67 -52v-25z" />
    <glyph glyph-name="longs_k" unicode="&#x17f;k" horiz-adv-x="814" 
d="M526 0h-223v25c55 5 67 16 67 52v523h-6c-45 0 -50 71 -103 71c-44 0 -79 -35 -79 -105v-489c0 -36 18 -47 72 -52v-25h-228v25c55 5 68 16 68 52v333h-68v41h68v49c0 136 88 215 201 215c39 0 72 -12 93 -28l40 28h31v-483l135 136c23 23 33 53 -46 58v25h235v-25
c-58 -5 -87 -20 -133 -65l-69 -70l165 -207c36 -45 55 -54 87 -59v-25h-248v25c69 5 70 35 49 61l-117 143l-58 -58v-94c0 -36 13 -47 67 -52v-25z" />
    <glyph glyph-name="longs_l" unicode="&#x17f;l" horiz-adv-x="552" 
d="M526 0h-223v25c55 5 67 16 67 52v523h-6c-45 0 -50 71 -103 71c-44 0 -79 -35 -79 -105v-489c0 -36 18 -47 72 -52v-25h-228v25c55 5 68 16 68 52v333h-68v40h68v50c0 136 88 215 201 215c39 0 72 -12 93 -28l40 28h31v-638c0 -36 13 -47 67 -52v-25z" />
    <glyph glyph-name="uniFB05" unicode="&#x17f;t" horiz-adv-x="601" 
d="M575 47v-39c-23 -11 -59 -19 -91 -19c-80 0 -117 31 -117 147v274h-67v21c79 25 105 84 105 137c0 70 -51 107 -112 107c-77 0 -111 -52 -111 -158v-440c0 -36 18 -47 72 -52v-25h-228v25c55 5 68 16 68 52v333h-68v41h68v59c0 126 82 205 198 205c77 0 163 -44 163 -152
v-112h120v-41h-120v-305c0 -48 17 -70 58 -70c21 0 41 4 62 12z" />
    <glyph glyph-name=".notdef" horiz-adv-x="789" 
d="M125 0v700h539v-700h-539zM180 656v-612h429v612h-429z" />
    <glyph glyph-name="NUL" horiz-adv-x="0" 
 />
    <glyph glyph-name="NUL" horiz-adv-x="0" 
 />
    <glyph glyph-name="Eth" unicode="&#xd0;" horiz-adv-x="764" 
d="M30 343v45h97v200c0 77 -17 82 -97 87v25h315c229 0 375 -115 375 -350s-146 -350 -375 -350h-315v25c80 5 97 11 97 87v231h-97zM610 350c0 248 -116 305 -265 305h-89c-19 0 -30 -11 -30 -30v-237h99v-45h-99v-268c0 -19 11 -30 30 -30h89c149 0 265 57 265 305z" />
    <glyph glyph-name="eth" unicode="&#xf0;" horiz-adv-x="543" 
d="M199 542v41l120 47c-20 35 -42 63 -64 85h49c23 -19 45 -41 67 -65l129 50v-41l-104 -41c64 -87 110 -202 110 -336c0 -185 -91 -297 -231 -297c-146 0 -240 104 -240 240c0 137 94 241 229 241c53 0 98 -20 131 -49c-12 66 -33 127 -60 178zM408 267c0 33 -2 64 -5 95
c-29 35 -71 65 -132 65c-102 0 -138 -85 -138 -205c0 -112 37 -198 142 -198c102 0 133 98 133 243z" />
    <glyph glyph-name="Lslash" unicode="&#x141;" horiz-adv-x="639" 
d="M30 244v46l97 56v242c0 77 -17 82 -97 87v25h293v-25c-80 -5 -97 -10 -97 -87v-185l97 56v-46l-97 -56v-282c0 -19 11 -30 30 -30h65c141 0 217 62 290 152l20 -13l-98 -184h-503v25c80 5 97 11 97 87v188z" />
    <glyph glyph-name="lslash" unicode="&#x142;" horiz-adv-x="276" 
d="M26 139v45l68 39v361c0 24 -9 33 -31 33h-37v20l125 78h31v-442l67 39v-45l-67 -39v-151c0 -36 13 -47 67 -52v-25h-223v25c55 5 68 16 68 52v101z" />
    <glyph glyph-name="Scaron" unicode="&#x160;" horiz-adv-x="686" 
d="M287 760l-100 147h41l111 -106l111 106h41l-100 -147c-7 -11 -16 -18 -30 -18h-43c-14 0 -23 7 -31 18zM162 561c0 -183 480 -83 480 -358c0 -128 -114 -218 -272 -218c-86 0 -162 22 -223 56l-17 -41h-30l-65 215l23 7c70 -133 185 -194 309 -194c103 0 186 60 185 144
c-1 205 -478 99 -478 359c0 107 106 184 239 184c92 0 158 -24 199 -50l14 35h30l61 -195l-22 -8c-55 112 -143 175 -276 175c-99 0 -157 -51 -157 -111z" />
    <glyph glyph-name="scaron" unicode="&#x161;" horiz-adv-x="464" 
d="M180 526l-100 147h41l111 -106l111 106h41l-100 -147c-7 -11 -16 -18 -30 -18h-43c-14 0 -23 7 -31 18zM120 363c0 -115 318 -44 318 -230c0 -90 -77 -148 -179 -148c-64 0 -124 21 -159 48l-12 -33h-26l-36 151l22 7c60 -95 125 -134 210 -134c53 0 106 24 106 81
c0 128 -322 52 -322 230c0 72 66 131 163 131c63 0 108 -17 138 -40l10 25h25l29 -129l-22 -8c-47 83 -106 114 -174 114c-61 0 -91 -28 -91 -65z" />
    <glyph glyph-name="Yacute" unicode="&#xdd;" horiz-adv-x="630" 
d="M171 25c80 5 97 11 97 87v157l-182 319c-34 59 -49 82 -99 87v25h263v-25c-69 -5 -87 -28 -53 -86l147 -258l140 257c32 60 14 82 -56 87v25h215v-25c-56 -5 -74 -26 -106 -87l-170 -316v-160c0 -76 17 -82 97 -87v-25h-293v25zM309 743l91 145c7 10 13 16 28 16h60
c10 0 16 -6 16 -15s-6 -15 -21 -29l-134 -117h-40z" />
    <glyph glyph-name="yacute" unicode="&#xfd;" horiz-adv-x="463" 
d="M391 339l-171 -427c-30 -75 -78 -111 -140 -111c-53 0 -97 24 -97 63c0 25 20 47 49 47c43 0 49 -49 84 -49c27 0 49 28 64 68l23 59l-133 350c-23 61 -32 82 -79 87v25h220v-25c-70 -5 -68 -25 -46 -87l87 -230l92 230c24 61 8 82 -49 87v25h177v-25
c-38 -5 -56 -26 -81 -87zM214 509l91 145c7 10 13 16 28 16h60c10 0 16 -6 16 -15s-6 -15 -21 -29l-134 -117h-40z" />
    <glyph glyph-name="Thorn" unicode="&#xde;" horiz-adv-x="689" 
d="M30 700h293v-25c-80 -5 -97 -10 -97 -87v-44h151c166 0 283 -48 283 -178c0 -129 -117 -178 -284 -178h-150v-76c0 -76 17 -82 97 -87v-25h-293v25c80 5 97 11 97 87v476c0 77 -17 82 -97 87v25zM550 366c0 92 -62 134 -173 134h-151v-267h150c112 0 174 41 174 133z" />
    <glyph glyph-name="thorn" unicode="&#xfe;" horiz-adv-x="553" 
d="M244 -184h-223v25c55 5 68 16 68 51v692c0 24 -9 33 -31 33h-40v20l128 78h31v-300c31 32 75 51 133 51c133 0 208 -105 208 -240c0 -136 -75 -241 -214 -241c-56 0 -97 17 -127 46v-139c0 -35 13 -46 67 -51v-25zM288 423c-49 0 -86 -21 -111 -55v-285
c25 -34 62 -55 111 -55c100 0 134 82 134 198s-34 197 -134 197z" />
    <glyph glyph-name="CR" unicode="&#xd;" horiz-adv-x="0" 
 />
    <glyph glyph-name="Zcaron" unicode="&#x17d;" horiz-adv-x="652" 
d="M274 760l-100 147h41l111 -106l111 106h41l-100 -147c-7 -11 -16 -18 -30 -18h-43c-14 0 -23 7 -31 18zM31 25l443 630h-141c-129 0 -196 -44 -259 -129l-21 11l67 163h486v-25l-442 -630h147c154 0 222 62 295 152l20 -13l-98 -184h-497v25z" />
    <glyph glyph-name="zcaron" unicode="&#x17e;" horiz-adv-x="472" 
d="M178 526l-100 147h41l111 -106l111 106h41l-100 -147c-7 -11 -16 -18 -30 -18h-43c-14 0 -23 7 -31 18zM26 25l279 387h-62c-94 0 -141 -20 -188 -94l-23 10l42 123h348v-25l-279 -387h85c104 0 153 48 203 119l20 -11l-64 -147h-361v25z" />
    <glyph glyph-name="onehalf" unicode="&#xbd;" horiz-adv-x="868" 
d="M567 292h-35c0 86 60 137 142 137s137 -50 137 -122c0 -93 -88 -170 -195 -240h148c23 0 29 3 39 47h22l-15 -127h-23c0 5 -2 13 -12 13h-238v36c96 77 195 165 195 271c0 55 -24 88 -76 88c-49 0 -89 -32 -89 -103zM284 280h-187v21c47 3 56 6 56 46v267
c0 13 -4 19 -17 19h-39v18l104 58h27v-362c0 -40 10 -43 56 -46v-21zM184 0l456 700h43l-456 -700h-43z" />
    <glyph glyph-name="onequarter" unicode="&#xbc;" horiz-adv-x="868" 
d="M764 0h-74v105h-173v25l197 299h50v-291h75v-33h-75v-105zM690 330l-127 -192h127v192zM284 280h-187v21c47 3 56 6 56 46v267c0 13 -4 19 -17 19h-39v18l104 58h27v-362c0 -40 10 -43 56 -46v-21zM184 0l456 700h43l-456 -700h-43z" />
    <glyph glyph-name="onesuperior" unicode="&#xb9;" horiz-adv-x="381" 
d="M284 280h-187v21c47 3 56 6 56 46v267c0 13 -4 19 -17 19h-39v18l104 58h27v-362c0 -40 10 -43 56 -46v-21z" />
    <glyph glyph-name="threequarters" unicode="&#xbe;" horiz-adv-x="868" 
d="M764 0h-74v105h-173v25l197 299h50v-291h75v-33h-75v-105zM690 330l-127 -192h127v192zM320 616c0 -44 -29 -79 -79 -93c58 -9 103 -55 103 -110c0 -77 -61 -142 -172 -142c-63 0 -133 20 -133 65c0 22 16 38 35 38c58 0 44 -70 102 -70c65 0 87 39 87 95
c0 52 -35 96 -106 96h-11v33h14c54 0 80 33 80 77c0 38 -22 70 -68 70c-42 0 -79 -27 -84 -82h-34c6 72 54 116 135 116c87 0 131 -44 131 -93zM184 0l456 700h43l-456 -700h-43z" />
    <glyph glyph-name="threesuperior" unicode="&#xb3;" horiz-adv-x="381" 
d="M320 616c0 -44 -29 -79 -79 -93c58 -9 103 -55 103 -110c0 -77 -61 -142 -172 -142c-63 0 -133 20 -133 65c0 22 16 38 35 38c58 0 44 -70 102 -70c65 0 87 39 87 95c0 52 -35 96 -106 96h-11v33h14c54 0 80 33 80 77c0 38 -22 70 -68 70c-42 0 -79 -27 -84 -82h-34
c6 72 54 116 135 116c87 0 131 -44 131 -93z" />
    <glyph glyph-name="twosuperior" unicode="&#xb2;" horiz-adv-x="381" 
d="M80 572h-35c0 86 60 137 142 137s137 -50 137 -122c0 -93 -88 -170 -195 -240h148c23 0 29 3 39 47h22l-15 -127h-23c0 5 -2 13 -12 13h-238v36c96 77 195 165 195 271c0 55 -24 88 -76 88c-49 0 -89 -32 -89 -103z" />
    <glyph glyph-name="brokenbar" unicode="&#xa6;" horiz-adv-x="309" 
d="M133 -214v424h42v-424h-42zM133 306v424h42v-424h-42z" />
    <glyph glyph-name="minus" unicode="&#x2212;" horiz-adv-x="552" 
d="M10 326v50h532v-50h-532z" />
    <glyph glyph-name="multiply" unicode="&#xd7;" horiz-adv-x="552" 
d="M101 142l-35 35l174 173l-174 174l35 35l174 -174l175 175l35 -35l-175 -175l175 -174l-35 -35l-175 174z" />
    <glyph glyph-name="space" unicode=" " horiz-adv-x="251" 
 />
    <glyph glyph-name="exclam" unicode="!" horiz-adv-x="240" 
d="M138 186h-36c-2 259 -45 306 -45 420c0 81 28 109 63 109s63 -28 63 -109c0 -114 -43 -161 -45 -420zM57 53c0 35 25 62 63 62c37 0 63 -27 63 -62s-26 -63 -63 -63c-38 0 -63 28 -63 63z" />
    <glyph glyph-name="quotedbl" unicode="&#x22;" horiz-adv-x="423" 
d="M317 436h-28c-10 120 -40 173 -40 220c0 36 24 59 54 59s54 -23 54 -58c0 -48 -30 -101 -40 -221zM134 436h-28c-10 120 -40 173 -40 220c0 36 24 59 54 59s54 -23 54 -58c0 -48 -30 -101 -40 -221z" />
    <glyph glyph-name="numbersign" unicode="#" horiz-adv-x="552" 
d="M251 0l57 204h-148l-57 -204h-43l57 204h-107v39h119l60 214h-125v40h136l58 203h43l-58 -203h147l58 203h43l-58 -203h109v-40h-120l-60 -214h125v-39h-136l-57 -204h-43zM232 457l-60 -214h147l60 214h-147z" />
    <glyph glyph-name="dollar" unicode="$" horiz-adv-x="578" 
d="M277 -111v97c-43 3 -94 17 -133 48l-14 -34h-30l-65 215l23 7c69 -132 150 -193 219 -195v293c-99 37 -203 75 -203 213c0 74 56 174 204 181v46h42v-47c40 -4 77 -18 99 -39l12 26h29l62 -195l-22 -8c-55 117 -110 169 -180 175v-270c101 -37 214 -76 214 -220
c0 -104 -77 -186 -215 -196v-97h-42zM446 158c0 82 -58 118 -127 146v-275c93 13 127 76 127 129zM163 550c0 -72 51 -105 115 -131v252c-72 -8 -115 -50 -115 -121z" />
    <glyph glyph-name="percent" unicode="%" horiz-adv-x="823" 
d="M31 490c0 132 56 219 159 219c104 0 160 -87 160 -219s-56 -219 -160 -219c-103 0 -159 87 -159 219zM111 490c0 -119 14 -189 79 -189c66 0 80 70 80 189c0 120 -14 189 -80 189c-65 0 -79 -69 -79 -189zM162 0l456 700h43l-456 -700h-43zM473 210c0 132 56 219 159 219
c104 0 160 -87 160 -219s-56 -219 -160 -219c-103 0 -159 87 -159 219zM553 210c0 -119 14 -189 79 -189c66 0 80 70 80 189c0 120 -14 189 -80 189c-65 0 -79 -69 -79 -189z" />
    <glyph glyph-name="ampersand" unicode="&#x26;" horiz-adv-x="748" 
d="M620 350c-10 -82 -41 -158 -87 -219c30 -73 54 -99 102 -99c35 0 62 7 83 15v-36c-26 -16 -76 -25 -115 -25c-65 0 -110 20 -143 72c-59 -46 -132 -73 -213 -73c-136 0 -214 83 -214 182c0 129 100 195 197 249c-58 51 -86 95 -86 155c0 57 46 144 164 144
c96 0 149 -62 149 -133c0 -73 -57 -116 -122 -157c67 -51 122 -112 181 -252c36 54 56 120 56 184s-29 78 -93 83v26h239v-26c-64 -5 -90 -20 -98 -90zM288 42c57 0 110 19 153 52c0 1 -1 2 -1 4c-69 165 -110 231 -171 285c-67 -44 -126 -97 -126 -190
c0 -79 49 -151 145 -151zM214 576c0 -51 27 -82 82 -123c63 37 113 74 113 129c0 51 -33 91 -96 91c-57 0 -99 -36 -99 -97z" />
    <glyph glyph-name="quotesingle" unicode="'" horiz-adv-x="240" 
d="M134 436h-28c-10 120 -40 173 -40 220c0 36 24 59 54 59s54 -23 54 -58c0 -48 -30 -101 -40 -221z" />
    <glyph glyph-name="parenleft" unicode="(" horiz-adv-x="309" 
d="M31 260c0 210 116 384 250 475l22 -26c-109 -82 -189 -267 -189 -449s80 -366 189 -449l-22 -26c-134 91 -250 265 -250 475z" />
    <glyph glyph-name="parenright" unicode=")" horiz-adv-x="309" 
d="M279 260c0 -210 -116 -384 -251 -475l-22 26c109 83 189 267 189 449s-80 367 -189 449l22 26c135 -91 251 -265 251 -475z" />
    <glyph glyph-name="asterisk" unicode="*" horiz-adv-x="384" 
d="M229 674c0 -32 -19 -57 -26 -122c53 39 65 68 92 84c21 12 45 6 55 -12s4 -41 -17 -53c-28 -16 -59 -13 -119 -38c60 -26 92 -23 118 -38c22 -13 28 -35 18 -53s-33 -24 -55 -12c-27 16 -40 44 -92 83c8 -64 26 -89 26 -121c0 -25 -16 -41 -37 -41c-20 0 -37 16 -37 41
c0 32 19 57 25 122c-52 -40 -64 -68 -91 -84c-22 -12 -45 -6 -55 12s-4 40 18 53c26 15 57 12 116 38c-59 25 -89 22 -116 38c-21 12 -28 35 -18 53s34 24 55 12c27 -16 40 -45 92 -84c-7 65 -26 90 -26 122c0 24 17 41 37 41c21 0 37 -17 37 -41z" />
    <glyph glyph-name="plus" unicode="+" horiz-adv-x="552" 
d="M10 326v50h240v240h50v-240h242v-50h-242v-241h-50v241h-240z" />
    <glyph glyph-name="comma" unicode="," horiz-adv-x="240" 
d="M57 53c0 35 25 62 63 62c37 0 63 -27 63 -73c0 -65 -49 -151 -95 -195l-20 15c34 44 53 81 61 128c-47 0 -72 28 -72 63z" />
    <glyph glyph-name="hyphen" unicode="-" horiz-adv-x="243" 
d="M10 196v59h223v-59h-223z" />
    <glyph glyph-name="period" unicode="." horiz-adv-x="240" 
d="M57 53c0 35 25 62 63 62c37 0 63 -27 63 -62s-26 -63 -63 -63c-38 0 -63 28 -63 63z" />
    <glyph glyph-name="slash" unicode="/" horiz-adv-x="309" 
d="M0 -214l266 944h43l-266 -944h-43z" />
    <glyph glyph-name="zero" unicode="0" horiz-adv-x="578" 
d="M44 350c0 208 82 365 245 365s245 -157 245 -365s-82 -365 -245 -365s-245 157 -245 365zM149 350c0 -187 23 -321 140 -321s140 134 140 321c0 188 -23 322 -140 322s-140 -134 -140 -322z" />
    <glyph glyph-name="one" unicode="1" horiz-adv-x="578" 
d="M464 0h-350v25c102 5 127 11 127 87v453c0 24 -9 32 -31 32h-95v21l185 97h37v-603c0 -76 26 -82 127 -87v-25z" />
    <glyph glyph-name="two" unicode="2" horiz-adv-x="578" 
d="M115 497h-49c0 138 95 218 211 218c128 0 219 -84 219 -203c0 -159 -148 -291 -317 -420h248c34 0 45 4 60 87h27l-24 -201h-27c0 9 -3 22 -17 22h-372v44c147 136 317 293 317 468c0 100 -42 158 -129 158c-81 0 -147 -54 -147 -173z" />
    <glyph glyph-name="three" unicode="3" horiz-adv-x="578" 
d="M490 559c0 -76 -46 -134 -123 -157c88 -16 156 -94 156 -182c0 -132 -94 -235 -265 -235c-95 0 -197 33 -197 103c0 30 22 52 49 52c82 0 65 -110 152 -110c117 0 156 71 156 166c0 87 -57 167 -171 167h-18v44h24c91 0 132 67 132 137c0 65 -35 126 -116 126
c-71 0 -131 -46 -137 -141h-49c11 112 82 186 204 186c135 0 203 -80 203 -156z" />
    <glyph glyph-name="four" unicode="4" horiz-adv-x="578" 
d="M421 0h-96v180h-282v34l302 486h76v-475h114v-45h-114v-180zM325 582l-223 -357h223v357z" />
    <glyph glyph-name="five" unicode="5" horiz-adv-x="578" 
d="M258 464c164 0 260 -110 260 -239c0 -128 -92 -240 -254 -240c-95 0 -204 33 -204 103c0 30 22 52 47 52c82 0 73 -110 164 -110c108 0 164 69 164 166c0 99 -77 171 -189 171c-47 0 -95 -10 -134 -31l-25 10l52 354h284c17 0 26 8 28 22h27l-13 -113h-295l-23 -164
c29 12 70 19 111 19z" />
    <glyph glyph-name="six" unicode="6" horiz-adv-x="578" 
d="M477 715v-42c-168 -19 -279 -106 -315 -266c36 24 89 44 139 44c153 0 233 -116 233 -234c0 -121 -99 -232 -245 -232c-154 0 -245 128 -245 308c0 252 193 402 433 422zM284 406c-46 0 -97 -21 -131 -53c-3 -23 -4 -47 -4 -72c0 -147 29 -252 140 -252
c96 0 140 81 140 188c0 105 -48 189 -145 189z" />
    <glyph glyph-name="seven" unicode="7" horiz-adv-x="578" 
d="M279 0h-105c23 215 125 435 256 609h-281c-34 0 -45 -5 -60 -87h-27l23 200h27c0 -9 3 -22 17 -22h380v-43c-142 -198 -209 -419 -230 -657z" />
    <glyph glyph-name="eight" unicode="8" horiz-adv-x="578" 
d="M505 556c0 -93 -60 -137 -132 -171c84 -37 161 -87 161 -203c0 -111 -87 -197 -249 -197c-159 0 -241 95 -241 182c0 102 68 152 148 189c-66 35 -118 85 -118 184c0 71 61 175 226 175c132 0 205 -78 205 -159zM112 171c0 -72 50 -143 170 -143c119 0 159 70 159 129
c0 104 -100 133 -194 173c-73 -33 -135 -73 -135 -159zM168 560c0 -85 69 -117 148 -150c69 31 127 67 127 142c0 68 -45 120 -137 120c-86 0 -138 -41 -138 -112z" />
    <glyph glyph-name="nine" unicode="9" horiz-adv-x="578" 
d="M101 -15v43c168 18 279 104 315 265c-37 -24 -89 -44 -139 -44c-152 0 -233 116 -233 234c0 122 100 232 245 232c155 0 245 -128 245 -308c0 -252 -193 -402 -433 -422zM294 294c45 0 97 21 131 52c2 23 4 47 4 73c0 148 -29 253 -140 253c-95 0 -140 -82 -140 -189
c0 -105 48 -189 145 -189z" />
    <glyph glyph-name="colon" unicode=":" horiz-adv-x="240" 
d="M57 398c0 35 25 62 63 62c37 0 63 -27 63 -62s-26 -63 -63 -63c-38 0 -63 28 -63 63zM57 53c0 35 25 62 63 62c37 0 63 -27 63 -62s-26 -63 -63 -63c-38 0 -63 28 -63 63z" />
    <glyph glyph-name="semicolon" unicode=";" horiz-adv-x="240" 
d="M57 53c0 35 25 62 63 62c37 0 63 -27 63 -73c0 -65 -49 -151 -95 -195l-20 15c34 44 53 81 61 128c-47 0 -72 28 -72 63zM57 398c0 35 25 62 63 62c37 0 63 -27 63 -62s-26 -63 -63 -63c-38 0 -63 28 -63 63z" />
    <glyph glyph-name="less" unicode="&#x3c;" horiz-adv-x="552" 
d="M521 170v-55l-490 203v55l490 202v-54l-424 -176z" />
    <glyph glyph-name="equal" unicode="=" horiz-adv-x="552" 
d="M10 425v50h532v-50h-532zM10 227v50h532v-50h-532z" />
    <glyph glyph-name="greater" unicode="&#x3e;" horiz-adv-x="552" 
d="M30 115v55l425 175l-425 176v54l491 -202v-55z" />
    <glyph glyph-name="question" unicode="?" horiz-adv-x="469" 
d="M215 285l-2 -99h-42l-1 189c110 0 190 32 190 145c0 76 -58 146 -147 146c-81 0 -61 -93 -135 -93c-26 0 -47 21 -47 52c0 62 67 90 145 90c175 0 262 -119 262 -229c0 -136 -93 -199 -223 -201zM129 53c0 35 26 62 64 62c37 0 63 -27 63 -62s-26 -63 -63 -63
c-38 0 -64 28 -64 63z" />
    <glyph glyph-name="at" unicode="@" horiz-adv-x="935" 
d="M623 41c-49 0 -78 25 -85 60c-37 -37 -84 -60 -143 -60c-119 0 -175 109 -143 236c28 114 133 204 252 204c54 0 89 -19 109 -51l71 51h28l-81 -324c-8 -34 -11 -69 34 -69c88 0 188 112 188 260c0 211 -161 305 -341 305c-223 0 -426 -179 -426 -396
c0 -244 173 -391 398 -391c121 0 220 44 311 109l21 -32c-91 -63 -191 -115 -333 -115c-240 0 -439 153 -439 429c0 231 223 434 467 434c215 0 380 -124 380 -343c0 -177 -122 -307 -268 -307zM422 85c49 0 89 25 117 66l58 231c-10 36 -37 56 -86 56
c-88 0 -137 -74 -162 -177c-26 -103 -15 -176 73 -176z" />
    <glyph glyph-name="A" unicode="A" horiz-adv-x="665" 
d="M308 700h57l229 -602c17 -47 37 -68 84 -73v-25h-260v25c75 5 92 20 76 62l-50 128h-272l-48 -128c-15 -38 8 -57 85 -62v-25h-222v25c50 5 75 26 90 68zM307 572l-118 -313h238z" />
    <glyph glyph-name="B" unicode="B" horiz-adv-x="704" 
d="M660 199c0 -130 -117 -199 -285 -199h-345v25c80 5 97 11 97 87v476c0 77 -17 82 -97 87v25h328c165 0 282 -43 282 -173c0 -82 -56 -132 -155 -151c112 -22 175 -91 175 -177zM550 199c0 92 -61 155 -163 155h-161v-279c0 -19 11 -30 30 -30h119c120 0 175 62 175 154z
M530 527c0 91 -56 128 -169 128h-105c-19 0 -30 -11 -30 -30v-227h141c101 0 163 37 163 129z" />
    <glyph glyph-name="C" unicode="C" horiz-adv-x="700" 
d="M599 700l62 -195l-23 -8c-61 111 -145 175 -254 175c-159 0 -230 -135 -230 -322s70 -321 230 -321c109 0 209 60 241 165l45 -15c-45 -122 -139 -194 -292 -194c-196 0 -334 154 -334 365s138 365 334 365c77 0 137 -21 177 -50l15 35h29z" />
    <glyph glyph-name="D" unicode="D" horiz-adv-x="764" 
d="M610 350c0 248 -116 305 -265 305h-89c-19 0 -30 -11 -30 -30v-550c0 -19 11 -30 30 -30h89c149 0 265 57 265 305zM720 350c0 -235 -146 -350 -375 -350h-315v25c80 5 97 11 97 87v476c0 77 -17 82 -97 87v25h315c229 0 375 -115 375 -350z" />
    <glyph glyph-name="E" unicode="E" horiz-adv-x="688" 
d="M256 45h104c151 0 227 62 300 152l21 -13l-98 -184h-553v25c80 5 97 11 97 87v476c0 77 -17 82 -97 87v25h554l67 -163l-21 -11c-63 85 -134 129 -262 129h-112c-19 0 -30 -11 -30 -30v-237h162c74 0 88 33 94 97h26v-239h-26c-6 64 -20 97 -94 97h-162v-268
c0 -19 11 -30 30 -30z" />
    <glyph glyph-name="F" unicode="F" horiz-adv-x="658" 
d="M226 625v-237h162c74 0 88 33 94 97h26v-239h-26c-6 64 -20 97 -94 97h-162v-231c0 -76 17 -82 97 -87v-25h-293v25c80 5 97 11 97 87v476c0 77 -17 82 -97 87v25h554l67 -163l-21 -11c-63 85 -134 129 -262 129h-112c-19 0 -30 -11 -30 -30z" />
    <glyph glyph-name="G" unicode="G" horiz-adv-x="759" 
d="M625 0l-38 57c-44 -41 -113 -72 -210 -72c-195 0 -333 154 -333 365s138 365 334 365c76 0 135 -21 175 -50l14 35h30l61 -195l-23 -8c-62 113 -144 175 -250 175c-160 0 -231 -135 -231 -322s71 -321 228 -321c88 0 153 43 174 71v108c0 76 -16 82 -96 87v25h289v-25
c-76 -5 -94 -11 -94 -87v-208h-30z" />
    <glyph glyph-name="H" unicode="H" horiz-adv-x="789" 
d="M759 0h-293v25c80 5 97 11 97 87v231h-337v-231c0 -76 17 -82 97 -87v-25h-293v25c80 5 97 11 97 87v476c0 77 -17 82 -97 87v25h293v-25c-80 -5 -97 -10 -97 -87v-200h337v200c0 77 -17 82 -97 87v25h293v-25c-80 -5 -97 -10 -97 -87v-476c0 -76 17 -82 97 -87v-25z" />
    <glyph glyph-name="I" unicode="I" horiz-adv-x="353" 
d="M323 0h-293v25c80 5 97 11 97 87v476c0 77 -17 82 -97 87v25h293v-25c-80 -5 -97 -10 -97 -87v-476c0 -76 17 -82 97 -87v-25z" />
    <glyph glyph-name="J" unicode="J" horiz-adv-x="344" 
d="M226 588v-560c0 -163 -81 -233 -201 -233c-98 0 -135 51 -135 87c0 33 23 54 51 54c68 0 48 -91 104 -91c53 0 82 38 82 169v574c0 77 -17 82 -97 87v25h293v-25c-81 -5 -97 -10 -97 -87z" />
    <glyph glyph-name="K" unicode="K" horiz-adv-x="737" 
d="M323 0h-293v25c80 5 97 11 97 87v476c0 77 -17 82 -97 87v25h293v-25c-80 -5 -97 -10 -97 -87v-244l284 258c24 21 43 67 -64 73v25h270v-25c-57 -5 -81 -20 -145 -79l-191 -172l271 -340c35 -45 81 -59 102 -59v-25h-296v25c76 5 94 30 53 83l-202 249l-82 -73v-172
c0 -76 17 -82 97 -87v-25z" />
    <glyph glyph-name="L" unicode="L" horiz-adv-x="639" 
d="M256 45h65c141 0 217 62 290 152l20 -13l-98 -184h-503v25c80 5 97 11 97 87v476c0 77 -17 82 -97 87v25h293v-25c-80 -5 -97 -10 -97 -87v-513c0 -19 11 -30 30 -30z" />
    <glyph glyph-name="M" unicode="M" horiz-adv-x="894" 
d="M864 0h-293v25c81 5 97 11 97 87v513l-228 -625h-33l-228 624v-512c0 -76 17 -82 97 -87v-25h-246v25c80 5 98 11 98 87v476c0 77 -18 82 -98 87v25h227l192 -527l193 527h222v-25c-80 -5 -97 -10 -97 -87v-476c0 -76 17 -82 97 -87v-25z" />
    <glyph glyph-name="N" unicode="N" horiz-adv-x="758" 
d="M277 0h-247v25c80 5 98 11 98 87v476c0 77 -18 82 -98 87v25h218l342 -523v411c0 77 -14 82 -95 87v25h242v-25c-80 -5 -96 -10 -96 -87v-588h-54l-408 624v-512c0 -76 18 -82 98 -87v-25z" />
    <glyph glyph-name="O" unicode="O" horiz-adv-x="753" 
d="M44 350c0 211 127 365 332 365c206 0 333 -154 333 -365s-127 -365 -333 -365c-205 0 -332 154 -332 365zM154 350c0 -187 59 -321 222 -321c164 0 223 134 223 321s-59 322 -223 322c-163 0 -222 -135 -222 -322z" />
    <glyph glyph-name="P" unicode="P" horiz-adv-x="689" 
d="M323 0h-293v25c80 5 97 11 97 87v476c0 77 -12 82 -97 87v25h347c166 0 283 -48 283 -178s-117 -178 -284 -178h-150v-232c0 -76 17 -82 97 -87v-25zM550 522c0 91 -62 133 -173 133h-121c-19 0 -30 -11 -30 -30v-237h150c112 0 174 42 174 134z" />
    <glyph glyph-name="Q" unicode="Q" horiz-adv-x="753" 
d="M44 350c0 211 127 365 332 365c206 0 333 -154 333 -365c0 -192 -106 -338 -277 -360c2 -90 38 -125 102 -125c68 0 115 47 115 121h48c0 -115 -84 -172 -181 -172c-118 0 -190 67 -194 175c-173 23 -278 169 -278 361zM154 350c0 -187 59 -321 222 -321
c164 0 223 134 223 321s-59 322 -223 322c-163 0 -222 -135 -222 -322z" />
    <glyph glyph-name="R" unicode="R" horiz-adv-x="722" 
d="M660 522c0 -115 -97 -167 -229 -175l187 -262c24 -33 50 -55 116 -60v-25h-171l-243 344h-94v-232c0 -76 17 -82 97 -87v-25h-293v25c80 5 97 11 97 87v476c0 77 -12 82 -97 87v25h347c166 0 283 -48 283 -178zM550 522c0 91 -62 133 -173 133h-121
c-19 0 -30 -11 -30 -30v-237h150c112 0 174 42 174 134z" />
    <glyph glyph-name="S" unicode="S" horiz-adv-x="686" 
d="M162 561c0 -183 480 -83 480 -358c0 -128 -114 -218 -272 -218c-86 0 -162 22 -223 56l-17 -41h-30l-65 215l23 7c70 -133 185 -194 309 -194c103 0 186 60 185 144c-1 205 -478 99 -478 359c0 107 106 184 239 184c92 0 158 -24 199 -50l14 35h30l61 -195l-22 -8
c-55 112 -143 175 -276 175c-99 0 -157 -51 -157 -111z" />
    <glyph glyph-name="T" unicode="T" horiz-adv-x="667" 
d="M281 112v513c0 19 -11 30 -30 30c-109 0 -149 -27 -213 -129l-22 11l77 185h25c5 -15 15 -22 30 -22h371c15 0 25 7 30 22h25l77 -185l-21 -11c-64 102 -111 129 -220 129c-19 0 -30 -11 -30 -30v-513c0 -76 17 -82 97 -87v-25h-293v25c80 5 97 11 97 87z" />
    <glyph glyph-name="U" unicode="U" horiz-adv-x="766" 
d="M217 588v-382c0 -122 83 -175 198 -175c99 0 182 55 182 173v384c0 77 -17 82 -97 87v25h245v-25c-80 -5 -97 -10 -97 -87v-384c0 -118 -81 -219 -250 -219c-174 0 -280 74 -280 219v384c0 77 -17 82 -97 87v25h293v-25c-80 -5 -97 -10 -97 -87z" />
    <glyph glyph-name="V" unicode="V" horiz-adv-x="665" 
d="M358 0h-57l-229 602c-18 47 -38 68 -85 73v25h261v-25c-75 -5 -92 -19 -76 -61l187 -485l183 485c14 37 -8 56 -86 61v25h222v-25c-50 -5 -74 -26 -90 -68z" />
    <glyph glyph-name="W" unicode="W" horiz-adv-x="975" 
d="M251 675c-80 -5 -95 -26 -75 -87l139 -433l146 450c-17 48 -31 65 -78 70v25h263v-25c-81 -5 -95 -26 -75 -87l139 -433l140 433c20 62 7 82 -73 87v25h211v-25c-49 -5 -67 -26 -88 -87l-189 -588h-56l-169 528l-170 -528h-56l-188 588c-20 61 -32 82 -85 87v25h264v-25z
" />
    <glyph glyph-name="X" unicode="X" horiz-adv-x="683" 
d="M248 0h-256v25c79 5 106 26 145 87l156 239l-154 237c-39 61 -50 82 -121 87v25h283v-25c-80 -5 -84 -25 -45 -86l105 -158l103 157c40 61 36 82 -45 87v25h244v-25c-77 -5 -105 -26 -144 -87l-130 -202l179 -274c40 -60 62 -82 123 -87v-25h-286v25c81 5 85 26 45 87
l-129 195l-128 -196c-39 -60 -26 -81 55 -86v-25z" />
    <glyph glyph-name="Y" unicode="Y" horiz-adv-x="630" 
d="M171 25c80 5 97 11 97 87v157l-182 319c-34 59 -49 82 -99 87v25h263v-25c-69 -5 -87 -28 -53 -86l147 -258l140 257c32 60 14 82 -56 87v25h215v-25c-56 -5 -74 -26 -106 -87l-170 -316v-160c0 -76 17 -82 97 -87v-25h-293v25z" />
    <glyph glyph-name="Z" unicode="Z" horiz-adv-x="652" 
d="M31 25l443 630h-141c-129 0 -196 -44 -259 -129l-21 11l67 163h486v-25l-442 -630h147c154 0 222 62 295 152l20 -13l-98 -184h-497v25z" />
    <glyph glyph-name="bracketleft" unicode="[" horiz-adv-x="325" 
d="M85 -200v920h219v-40h-139v-840h139v-40h-219z" />
    <glyph glyph-name="backslash" unicode="\" horiz-adv-x="309" 
d="M43 730l266 -944h-43l-266 944h43z" />
    <glyph glyph-name="bracketright" unicode="]" horiz-adv-x="325" 
d="M240 720v-920h-219v40h139v840h-139v40h219z" />
    <glyph glyph-name="asciicircum" unicode="^" horiz-adv-x="552" 
d="M461 350l-186 233l-185 -233h-38l202 350h43l203 -350h-39z" />
    <glyph glyph-name="underscore" unicode="_" horiz-adv-x="552" 
d="M0 -111v42h553v-42h-553z" />
    <glyph glyph-name="grave" unicode="`" horiz-adv-x="516" 
d="M193 654l92 -145h-41l-133 117c-16 14 -21 20 -21 29s5 15 16 15h59c15 0 22 -6 28 -16z" />
    <glyph glyph-name="a" unicode="a" horiz-adv-x="518" 
d="M414 -11c-40 0 -70 19 -78 62c-46 -32 -105 -64 -166 -64c-83 0 -135 37 -135 107c0 108 128 145 299 173v60c0 73 -16 101 -72 101c-58 0 -92 -24 -104 -73c-9 -34 -28 -48 -50 -48c-25 0 -39 15 -39 45c0 57 76 114 198 114c85 0 156 -31 156 -141v-235
c0 -37 10 -54 32 -54c10 0 22 3 37 11v-36c-21 -14 -45 -22 -78 -22zM202 38c45 0 89 22 132 52v139c-122 -18 -203 -46 -203 -123c0 -47 30 -68 71 -68z" />
    <glyph glyph-name="b" unicode="b" horiz-adv-x="548" 
d="M16 617v20l125 78h31v-300c31 32 75 51 133 51c133 0 208 -105 208 -240c0 -136 -75 -241 -214 -241c-61 0 -105 19 -136 52l-44 -52h-35v595c0 28 -9 37 -31 37h-37zM283 423c-49 0 -86 -21 -111 -55v-285c25 -34 62 -55 111 -55c100 0 134 82 134 198s-34 197 -134 197
z" />
    <glyph glyph-name="c" unicode="c" horiz-adv-x="482" 
d="M434 353c0 -30 -21 -46 -46 -46c-22 0 -41 14 -48 48c-7 43 -31 72 -83 72c-94 0 -126 -85 -126 -201s47 -199 147 -199c71 0 114 45 145 117l36 -19c-34 -83 -91 -140 -190 -140c-149 0 -234 104 -234 241c0 136 93 240 222 240c106 0 177 -58 177 -113z" />
    <glyph glyph-name="d" unicode="d" horiz-adv-x="558" 
d="M309 617v20l124 78h31v-638c0 -36 13 -47 68 -52v-25c-51 0 -105 -5 -156 -15v52c-30 -33 -74 -52 -133 -52c-133 0 -208 105 -208 241c0 135 75 240 208 240c59 0 103 -19 133 -52v170c0 24 -9 33 -32 33h-35zM265 28c49 0 86 21 111 55v285c-25 34 -62 55 -111 55
c-100 0 -134 -81 -134 -197s34 -198 134 -198z" />
    <glyph glyph-name="e" unicode="e" horiz-adv-x="509" 
d="M458 274h-325c-1 -16 -2 -32 -2 -48c0 -116 41 -199 156 -199c65 0 121 44 151 115l37 -17c-35 -83 -99 -140 -194 -140c-160 0 -246 104 -246 241c0 136 85 240 226 240c117 0 197 -69 197 -192zM262 427c-77 0 -111 -44 -124 -113h231c0 73 -46 113 -107 113z" />
    <glyph glyph-name="f" unicode="f" horiz-adv-x="300" 
d="M26 410v41h68v59c0 126 77 205 183 205c47 0 79 -22 79 -53c0 -28 -20 -48 -47 -48c-46 0 -41 48 -79 48c-29 0 -48 -26 -48 -75v-136h98v-41h-98v-333c0 -36 18 -47 72 -52v-25h-228v25c55 5 68 16 68 52v333h-68z" />
    <glyph glyph-name="g" unicode="g" horiz-adv-x="525" 
d="M511 469c0 -20 -13 -39 -38 -39c-28 0 -35 25 -58 25c-18 0 -29 -15 -38 -31c46 -41 59 -90 59 -135c0 -99 -70 -176 -191 -176c-28 0 -53 4 -76 11c-52 11 -78 -11 -78 -32c0 -33 42 -39 196 -44s202 -42 202 -114c0 -85 -87 -133 -223 -133c-132 0 -228 25 -230 107
c-1 38 22 64 55 81c-40 17 -54 43 -54 81c0 50 32 81 74 87c-38 32 -58 79 -58 132c0 101 70 177 192 177c40 0 76 -9 101 -22c27 43 69 71 109 71c32 0 56 -17 56 -46zM144 289c0 -79 22 -137 101 -137c78 0 100 58 100 137s-22 138 -100 138c-79 0 -101 -59 -101 -138z
M274 -39c-54 2 -97 6 -130 12c-32 -11 -46 -31 -46 -56c0 -52 64 -77 168 -77c103 0 159 33 159 72c0 41 -34 46 -151 49z" />
    <glyph glyph-name="h" unicode="h" horiz-adv-x="572" 
d="M546 0h-223v25c55 5 67 16 67 52v254c0 59 -31 84 -78 84c-46 0 -91 -16 -130 -43v-295c0 -36 13 -47 67 -52v-25h-223v25c55 5 68 16 68 52v507c0 24 -9 33 -31 33h-37v20l125 78h31v-299c39 24 100 50 155 50c59 0 142 -23 142 -135v-254c0 -36 13 -47 67 -52v-25z" />
    <glyph glyph-name="i" unicode="i" horiz-adv-x="276" 
d="M249 0h-223v25c55 5 68 16 68 52v258c0 24 -9 33 -31 33h-37v20l125 78h31v-389c0 -36 13 -47 67 -52v-25zM81 627c0 31 23 57 59 57c35 0 59 -26 59 -57c0 -30 -24 -56 -59 -56c-36 0 -59 26 -59 56z" />
    <glyph glyph-name="j" unicode="j" horiz-adv-x="266" 
d="M-2 -199c-43 0 -77 18 -77 56c0 24 20 45 45 45c44 0 42 -48 76 -48c29 0 52 22 52 75v406c0 24 -9 33 -31 33h-37v20l125 78h31v-448c0 -148 -80 -217 -184 -217zM81 627c0 31 23 57 59 57c35 0 59 -26 59 -57c0 -30 -24 -56 -59 -56c-36 0 -59 26 -59 56z" />
    <glyph glyph-name="k" unicode="k" horiz-adv-x="537" 
d="M249 0h-223v25c55 5 68 16 68 52v507c0 24 -9 33 -31 33h-37v20l125 78h31v-483l135 136c24 23 33 53 -46 58v25h235v-25c-57 -5 -87 -20 -133 -65l-70 -70l166 -207c37 -45 55 -54 87 -59v-25h-248v25c69 5 70 35 49 61l-117 143l-58 -58v-94c0 -36 13 -47 67 -52v-25z
" />
    <glyph glyph-name="l" unicode="l" horiz-adv-x="276" 
d="M249 0h-223v25c55 5 68 16 68 52v507c0 24 -9 33 -31 33h-37v20l125 78h31v-638c0 -36 13 -47 67 -52v-25z" />
    <glyph glyph-name="m" unicode="m" horiz-adv-x="869" 
d="M546 0h-223v25c55 5 67 16 67 52v254c0 59 -31 84 -78 84c-46 0 -91 -16 -130 -43v-295c0 -36 13 -47 67 -52v-25h-223v25c55 5 68 16 68 52v258c0 24 -9 33 -31 33h-37v20l125 78h31v-50c39 24 100 50 155 50c42 0 98 -12 125 -60c44 31 115 60 171 60
c60 0 142 -23 142 -135v-254c0 -36 13 -47 68 -52v-25h-223v25c54 5 67 16 67 52v254c0 59 -31 84 -78 84c-48 0 -94 -17 -135 -45c3 -12 5 -25 5 -39v-254c0 -36 13 -47 67 -52v-25z" />
    <glyph glyph-name="n" unicode="n" horiz-adv-x="572" 
d="M546 0h-223v25c55 5 67 16 67 52v254c0 59 -31 84 -78 84c-46 0 -91 -16 -130 -43v-295c0 -36 13 -47 67 -52v-25h-223v25c55 5 68 16 68 52v258c0 24 -9 33 -31 33h-37v20l125 78h31v-50c39 24 100 50 155 50c59 0 142 -23 142 -135v-254c0 -36 13 -47 67 -52v-25z" />
    <glyph glyph-name="o" unicode="o" horiz-adv-x="541" 
d="M35 226c0 136 94 240 235 240s236 -104 236 -240c0 -137 -95 -241 -236 -241s-235 104 -235 241zM131 226c0 -116 38 -202 139 -202s140 86 140 202s-39 201 -140 201s-139 -85 -139 -201z" />
    <glyph glyph-name="p" unicode="p" horiz-adv-x="553" 
d="M244 -184h-223v25c55 5 68 16 68 51v443c0 24 -9 33 -31 33h-40v20l128 78h31v-51c31 32 75 51 133 51c133 0 208 -105 208 -240c0 -136 -75 -241 -214 -241c-56 0 -97 17 -127 46v-139c0 -35 13 -46 67 -51v-25zM288 423c-49 0 -86 -21 -111 -55v-285
c25 -34 62 -55 111 -55c100 0 134 82 134 198s-34 197 -134 197z" />
    <glyph glyph-name="q" unicode="q" horiz-adv-x="544" 
d="M532 -184h-223v25c54 5 67 16 67 51v145c-30 -33 -74 -52 -133 -52c-133 0 -208 105 -208 241c0 135 75 240 208 240c62 0 106 -21 137 -56l53 56h31v-574c0 -35 13 -46 68 -51v-25zM265 28c49 0 86 21 111 55v285c-25 34 -62 55 -111 55c-100 0 -134 -81 -134 -197
s34 -198 134 -198z" />
    <glyph glyph-name="r" unicode="r" horiz-adv-x="401" 
d="M392 405c0 -32 -20 -51 -49 -51c-43 0 -49 46 -82 46c-24 0 -56 -16 -79 -51v-272c0 -36 13 -47 67 -52v-25h-223v25c55 5 68 16 68 52v258c0 24 -9 33 -31 33h-37v20l125 78h31v-66c35 42 88 66 133 66c55 0 77 -29 77 -61z" />
    <glyph glyph-name="s" unicode="s" horiz-adv-x="464" 
d="M120 363c0 -115 318 -44 318 -230c0 -90 -77 -148 -179 -148c-64 0 -124 21 -159 48l-12 -33h-26l-36 151l22 7c60 -95 125 -134 210 -134c53 0 106 24 106 81c0 128 -322 52 -322 230c0 72 66 131 163 131c63 0 108 -17 138 -40l10 25h25l29 -129l-22 -8
c-47 83 -106 114 -174 114c-61 0 -91 -28 -91 -65z" />
    <glyph glyph-name="t" unicode="t" horiz-adv-x="319" 
d="M293 47v-39c-23 -11 -59 -19 -91 -19c-67 0 -117 26 -117 117v304h-67v21c78 28 109 82 124 168h31v-148h120v-41h-120v-305c0 -48 17 -70 58 -70c21 0 41 4 62 12z" />
    <glyph glyph-name="u" unicode="u" horiz-adv-x="564" 
d="M314 368v20l125 78h31v-389c0 -36 13 -47 67 -52v-25c-51 0 -104 -5 -155 -15v49c-39 -24 -101 -49 -155 -49c-59 0 -142 23 -142 135v215c0 24 -9 33 -31 33h-36v20l125 78h30v-346c0 -59 32 -84 79 -84c46 0 89 17 130 43v256c0 24 -9 33 -32 33h-36z" />
    <glyph glyph-name="v" unicode="v" horiz-adv-x="463" 
d="M256 0h-57l-129 339c-22 60 -32 82 -79 87v25h220v-25c-70 -5 -68 -25 -50 -74l91 -244l95 239c21 53 6 74 -51 79v25h176v-25c-38 -5 -57 -26 -81 -87z" />
    <glyph glyph-name="w" unicode="w" horiz-adv-x="762" 
d="M499 0l-118 308l-120 -308h-59l-132 339c-23 60 -32 82 -79 87v25h221v-25c-71 -5 -71 -26 -47 -87l88 -229l104 256c-18 40 -36 57 -74 60v25h227v-25c-71 -5 -70 -25 -46 -87l88 -231l90 231c24 61 9 82 -56 87v25h185v-25c-38 -5 -56 -26 -81 -87l-131 -339h-60z" />
    <glyph glyph-name="x" unicode="x" horiz-adv-x="512" 
d="M326 72l-90 119l-92 -119c-22 -28 -5 -43 46 -47v-25h-180v25c36 4 55 15 80 47l120 156l-111 151c-24 32 -36 44 -73 47v25h220v-25c-52 -4 -61 -20 -40 -47l69 -92l71 92c19 24 11 43 -45 47v25h185v-25c-41 -4 -61 -16 -85 -47l-100 -129l132 -178
c25 -32 40 -43 69 -47v-25h-215v25c61 3 61 18 39 47z" />
    <glyph glyph-name="y" unicode="y" horiz-adv-x="463" 
d="M391 339l-171 -427c-30 -75 -78 -111 -140 -111c-53 0 -97 24 -97 63c0 25 20 47 49 47c43 0 49 -49 84 -49c27 0 49 28 64 68l23 59l-133 350c-23 61 -32 82 -79 87v25h220v-25c-70 -5 -68 -25 -46 -87l87 -230l92 230c24 61 8 82 -49 87v25h177v-25
c-38 -5 -56 -26 -81 -87z" />
    <glyph glyph-name="z" unicode="z" horiz-adv-x="472" 
d="M26 25l279 387h-62c-94 0 -141 -20 -188 -94l-23 10l42 123h348v-25l-279 -387h85c104 0 153 48 203 119l20 -11l-64 -147h-361v25z" />
    <glyph glyph-name="braceleft" unicode="{" horiz-adv-x="309" 
d="M287 -185v-27c-115 0 -173 72 -173 199v164c0 60 -18 95 -92 95v32c74 0 92 34 92 94v164c0 127 58 199 173 199v-27c-56 0 -90 -39 -90 -113v-165c0 -110 -48 -154 -112 -168c64 -15 112 -59 112 -169v-165c0 -74 34 -113 90 -113z" />
    <glyph glyph-name="bar" unicode="|" horiz-adv-x="309" 
d="M133 -214v944h42v-944h-42z" />
    <glyph glyph-name="braceright" unicode="}" horiz-adv-x="309" 
d="M22 -212v27c57 0 90 39 90 113v165c0 110 48 154 112 169c-64 14 -112 58 -112 168v165c0 74 -33 113 -90 113v27c116 0 174 -72 174 -199v-164c0 -60 17 -94 91 -94v-32c-74 0 -91 -35 -91 -95v-164c0 -127 -58 -199 -174 -199z" />
    <glyph glyph-name="asciitilde" unicode="~" horiz-adv-x="516" 
d="M428 414h35c0 -104 -49 -144 -121 -144c-94 0 -135 95 -194 95c-36 0 -58 -19 -58 -78h-38c0 104 49 143 121 143c94 0 137 -94 196 -94c37 0 59 19 59 78z" />
    <glyph glyph-name="Adieresis" unicode="&#xc4;" horiz-adv-x="665" 
d="M308 700h57l229 -602c17 -47 37 -68 84 -73v-25h-260v25c75 5 92 20 76 62l-50 128h-272l-48 -128c-15 -38 8 -57 85 -62v-25h-222v25c50 5 75 26 90 68zM307 572l-118 -313h238zM196 850c0 28 21 52 53 52s54 -24 54 -52c0 -27 -22 -51 -54 -51s-53 24 -53 51zM362 850
c0 28 21 52 54 52c32 0 53 -24 53 -52c0 -27 -21 -51 -53 -51c-33 0 -54 24 -54 51z" />
    <glyph glyph-name="Aring" unicode="&#xc5;" horiz-adv-x="665" 
d="M308 700h57l229 -602c17 -47 37 -68 84 -73v-25h-260v25c75 5 92 20 76 62l-50 128h-272l-48 -128c-15 -38 8 -57 85 -62v-25h-222v25c50 5 75 26 90 68zM307 572l-118 -313h238zM232 824c0 55 44 100 99 100c56 0 101 -45 101 -100c0 -53 -45 -99 -101 -99
c-55 0 -99 46 -99 99zM271 824c0 -35 26 -62 60 -62c35 0 63 27 63 62s-28 62 -63 62c-34 0 -60 -27 -60 -62z" />
    <glyph glyph-name="Ccedilla" unicode="&#xc7;" horiz-adv-x="700" 
d="M408 -60c46 0 80 -22 80 -66c0 -45 -47 -93 -129 -93c-64 0 -106 28 -106 57c0 17 12 31 29 31c47 0 22 -56 83 -56c39 0 60 21 60 48c0 20 -17 35 -41 35c-17 0 -30 -4 -41 -14l-24 10l39 94c-186 10 -314 160 -314 364c0 211 138 365 334 365c77 0 137 -21 177 -50
l15 35h29l62 -195l-23 -8c-61 111 -145 175 -254 175c-159 0 -230 -135 -230 -322s70 -321 230 -321c109 0 209 60 241 165l45 -15c-43 -116 -130 -186 -269 -193l-22 -51c8 3 15 5 29 5z" />
    <glyph glyph-name="Eacute" unicode="&#xc9;" horiz-adv-x="688" 
d="M321 743l91 145c7 10 13 16 28 16h60c10 0 16 -6 16 -15s-6 -15 -21 -29l-134 -117h-40zM256 45h104c151 0 227 62 300 152l21 -13l-98 -184h-553v25c80 5 97 11 97 87v476c0 77 -17 82 -97 87v25h554l67 -163l-21 -11c-63 85 -134 129 -262 129h-112
c-19 0 -30 -11 -30 -30v-237h162c74 0 88 33 94 97h26v-239h-26c-6 64 -20 97 -94 97h-162v-268c0 -19 11 -30 30 -30z" />
    <glyph glyph-name="Ntilde" unicode="&#xd1;" horiz-adv-x="758" 
d="M277 0h-247v25c80 5 98 11 98 87v476c0 77 -18 82 -98 87v25h218l342 -523v411c0 77 -14 82 -95 87v25h242v-25c-80 -5 -96 -10 -96 -87v-588h-54l-408 624v-512c0 -76 18 -82 98 -87v-25zM483 892h30c-5 -70 -39 -100 -82 -100c-48 0 -83 53 -119 53
c-16 0 -33 -12 -38 -44h-32c5 70 39 100 82 100c48 0 84 -53 120 -53c17 0 34 12 39 44z" />
    <glyph glyph-name="Odieresis" unicode="&#xd6;" horiz-adv-x="753" 
d="M239 850c0 28 21 52 53 52s54 -24 54 -52c0 -27 -22 -51 -54 -51s-53 24 -53 51zM405 850c0 28 21 52 54 52c32 0 53 -24 53 -52c0 -27 -21 -51 -53 -51c-33 0 -54 24 -54 51zM44 350c0 211 127 365 332 365c206 0 333 -154 333 -365s-127 -365 -333 -365
c-205 0 -332 154 -332 365zM154 350c0 -187 59 -321 222 -321c164 0 223 134 223 321s-59 322 -223 322c-163 0 -222 -135 -222 -322z" />
    <glyph glyph-name="Udieresis" unicode="&#xdc;" horiz-adv-x="766" 
d="M262 850c0 28 21 52 53 52s54 -24 54 -52c0 -27 -22 -51 -54 -51s-53 24 -53 51zM428 850c0 28 21 52 54 52c32 0 53 -24 53 -52c0 -27 -21 -51 -53 -51c-33 0 -54 24 -54 51zM217 588v-382c0 -122 83 -175 198 -175c99 0 182 55 182 173v384c0 77 -17 82 -97 87v25h245
v-25c-80 -5 -97 -10 -97 -87v-384c0 -118 -81 -219 -250 -219c-174 0 -280 74 -280 219v384c0 77 -17 82 -97 87v25h293v-25c-80 -5 -97 -10 -97 -87z" />
    <glyph glyph-name="aacute" unicode="&#xe1;" horiz-adv-x="518" 
d="M414 -11c-40 0 -70 19 -78 62c-46 -32 -105 -64 -166 -64c-83 0 -135 37 -135 107c0 108 128 145 299 173v60c0 73 -16 101 -72 101c-58 0 -92 -24 -104 -73c-9 -34 -28 -48 -50 -48c-25 0 -39 15 -39 45c0 57 76 114 198 114c85 0 156 -31 156 -141v-235
c0 -37 10 -54 32 -54c10 0 22 3 37 11v-36c-21 -14 -45 -22 -78 -22zM202 38c45 0 89 22 132 52v139c-122 -18 -203 -46 -203 -123c0 -47 30 -68 71 -68zM235 512l91 145c7 10 13 16 28 16h60c10 0 16 -6 16 -15s-6 -15 -21 -29l-134 -117h-40z" />
    <glyph glyph-name="agrave" unicode="&#xe0;" horiz-adv-x="518" 
d="M414 -11c-40 0 -70 19 -78 62c-46 -32 -105 -64 -166 -64c-83 0 -135 37 -135 107c0 108 128 145 299 173v60c0 73 -16 101 -72 101c-58 0 -92 -24 -104 -73c-9 -34 -28 -48 -50 -48c-25 0 -39 15 -39 45c0 57 76 114 198 114c85 0 156 -31 156 -141v-235
c0 -37 10 -54 32 -54c10 0 22 3 37 11v-36c-21 -14 -45 -22 -78 -22zM202 38c45 0 89 22 132 52v139c-122 -18 -203 -46 -203 -123c0 -47 30 -68 71 -68zM198 657l92 -145h-41l-133 117c-16 14 -21 20 -21 29s5 15 16 15h59c15 0 22 -6 28 -16z" />
    <glyph glyph-name="acircumflex" unicode="&#xe2;" horiz-adv-x="518" 
d="M414 -11c-40 0 -70 19 -78 62c-46 -32 -105 -64 -166 -64c-83 0 -135 37 -135 107c0 108 128 145 299 173v60c0 73 -16 101 -72 101c-58 0 -92 -24 -104 -73c-9 -34 -28 -48 -50 -48c-25 0 -39 15 -39 45c0 57 76 114 198 114c85 0 156 -31 156 -141v-235
c0 -37 10 -54 32 -54c10 0 22 3 37 11v-36c-21 -14 -45 -22 -78 -22zM202 38c45 0 89 22 132 52v139c-122 -18 -203 -46 -203 -123c0 -47 30 -68 71 -68zM113 511l100 147c8 12 17 18 31 18h43c14 0 23 -6 30 -18l100 -147h-41l-111 106l-111 -106h-41z" />
    <glyph glyph-name="adieresis" unicode="&#xe4;" horiz-adv-x="518" 
d="M414 -11c-40 0 -70 19 -78 62c-46 -32 -105 -64 -166 -64c-83 0 -135 37 -135 107c0 108 128 145 299 173v60c0 73 -16 101 -72 101c-58 0 -92 -24 -104 -73c-9 -34 -28 -48 -50 -48c-25 0 -39 15 -39 45c0 57 76 114 198 114c85 0 156 -31 156 -141v-235
c0 -37 10 -54 32 -54c10 0 22 3 37 11v-36c-21 -14 -45 -22 -78 -22zM202 38c45 0 89 22 132 52v139c-122 -18 -203 -46 -203 -123c0 -47 30 -68 71 -68zM128 619c0 28 21 52 53 52s54 -24 54 -52c0 -27 -22 -51 -54 -51s-53 24 -53 51zM294 619c0 28 21 52 54 52
c32 0 53 -24 53 -52c0 -27 -21 -51 -53 -51c-33 0 -54 24 -54 51z" />
    <glyph glyph-name="atilde" unicode="&#xe3;" horiz-adv-x="518" 
d="M414 -11c-40 0 -70 19 -78 62c-46 -32 -105 -64 -166 -64c-83 0 -135 37 -135 107c0 108 128 145 299 173v60c0 73 -16 101 -72 101c-58 0 -92 -24 -104 -73c-9 -34 -28 -48 -50 -48c-25 0 -39 15 -39 45c0 57 76 114 198 114c85 0 156 -31 156 -141v-235
c0 -37 10 -54 32 -54c10 0 22 3 37 11v-36c-21 -14 -45 -22 -78 -22zM202 38c45 0 89 22 132 52v139c-122 -18 -203 -46 -203 -123c0 -47 30 -68 71 -68zM370 661h30c-5 -70 -39 -100 -82 -100c-48 0 -83 53 -119 53c-16 0 -33 -12 -38 -44h-32c5 70 39 100 82 100
c48 0 84 -53 120 -53c17 0 34 12 39 44z" />
    <glyph glyph-name="aring" unicode="&#xe5;" horiz-adv-x="518" 
d="M414 -11c-40 0 -70 19 -78 62c-46 -32 -105 -64 -166 -64c-83 0 -135 37 -135 107c0 108 128 145 299 173v60c0 73 -16 101 -72 101c-58 0 -92 -24 -104 -73c-9 -34 -28 -48 -50 -48c-25 0 -39 15 -39 45c0 57 76 114 198 114c85 0 156 -31 156 -141v-235
c0 -37 10 -54 32 -54c10 0 22 3 37 11v-36c-21 -14 -45 -22 -78 -22zM202 38c45 0 89 22 132 52v139c-122 -18 -203 -46 -203 -123c0 -47 30 -68 71 -68zM156 615c0 55 44 100 99 100c56 0 101 -45 101 -100c0 -53 -45 -99 -101 -99c-55 0 -99 46 -99 99zM195 615
c0 -35 26 -62 60 -62c35 0 63 27 63 62s-28 62 -63 62c-34 0 -60 -27 -60 -62z" />
    <glyph glyph-name="ccedilla" unicode="&#xe7;" horiz-adv-x="482" 
d="M299 -60c46 0 80 -22 80 -66c0 -45 -47 -93 -129 -93c-64 0 -106 28 -106 57c0 17 12 31 29 31c47 0 22 -56 83 -56c39 0 60 21 60 48c0 20 -17 35 -41 35c-17 0 -30 -4 -41 -14l-24 10l39 94c-137 9 -214 109 -214 240c0 136 93 240 222 240c106 0 177 -58 177 -113
c0 -30 -21 -46 -46 -46c-22 0 -41 14 -48 48c-7 43 -31 72 -83 72c-94 0 -126 -85 -126 -201s47 -199 147 -199c71 0 114 45 145 117l36 -19c-32 -77 -82 -131 -167 -139l-22 -51c8 3 15 5 29 5z" />
    <glyph glyph-name="eacute" unicode="&#xe9;" horiz-adv-x="509" 
d="M232 509l91 145c7 10 13 16 28 16h60c10 0 16 -6 16 -15s-6 -15 -21 -29l-134 -117h-40zM458 274h-325c-1 -16 -2 -32 -2 -48c0 -116 41 -199 156 -199c65 0 121 44 151 115l37 -17c-35 -83 -99 -140 -194 -140c-160 0 -246 104 -246 241c0 136 85 240 226 240
c117 0 197 -69 197 -192zM262 427c-77 0 -111 -44 -124 -113h231c0 73 -46 113 -107 113z" />
    <glyph glyph-name="egrave" unicode="&#xe8;" horiz-adv-x="509" 
d="M458 274h-325c-1 -16 -2 -32 -2 -48c0 -116 41 -199 156 -199c65 0 121 44 151 115l37 -17c-35 -83 -99 -140 -194 -140c-160 0 -246 104 -246 241c0 136 85 240 226 240c117 0 197 -69 197 -192zM262 427c-77 0 -111 -44 -124 -113h231c0 73 -46 113 -107 113zM195 654
l92 -145h-41l-133 117c-16 14 -21 20 -21 29s5 15 16 15h59c15 0 22 -6 28 -16z" />
    <glyph glyph-name="ecircumflex" unicode="&#xea;" horiz-adv-x="509" 
d="M111 508l100 147c8 12 17 18 31 18h43c14 0 23 -6 30 -18l100 -147h-41l-111 106l-111 -106h-41zM458 274h-325c-1 -16 -2 -32 -2 -48c0 -116 41 -199 156 -199c65 0 121 44 151 115l37 -17c-35 -83 -99 -140 -194 -140c-160 0 -246 104 -246 241c0 136 85 240 226 240
c117 0 197 -69 197 -192zM262 427c-77 0 -111 -44 -124 -113h231c0 73 -46 113 -107 113z" />
    <glyph glyph-name="edieresis" unicode="&#xeb;" horiz-adv-x="509" 
d="M127 616c0 28 21 52 53 52s54 -24 54 -52c0 -27 -22 -51 -54 -51s-53 24 -53 51zM293 616c0 28 21 52 54 52c32 0 53 -24 53 -52c0 -27 -21 -51 -53 -51c-33 0 -54 24 -54 51zM458 274h-325c-1 -16 -2 -32 -2 -48c0 -116 41 -199 156 -199c65 0 121 44 151 115l37 -17
c-35 -83 -99 -140 -194 -140c-160 0 -246 104 -246 241c0 136 85 240 226 240c117 0 197 -69 197 -192zM262 427c-77 0 -111 -44 -124 -113h231c0 73 -46 113 -107 113z" />
    <glyph glyph-name="iacute" unicode="&#xed;" horiz-adv-x="276" 
d="M109 509l91 145c7 10 13 16 28 16h60c10 0 16 -6 16 -15s-6 -15 -21 -29l-134 -117h-40zM249 0h-223v25c55 5 68 16 68 52v258c0 24 -9 33 -31 33h-37v20l125 78h31v-389c0 -36 13 -47 67 -52v-25z" />
    <glyph glyph-name="igrave" unicode="&#xec;" horiz-adv-x="276" 
d="M249 0h-223v25c55 5 68 16 68 52v258c0 24 -9 33 -31 33h-37v20l125 78h31v-389c0 -36 13 -47 67 -52v-25zM79 654l92 -145h-41l-133 117c-16 14 -21 20 -21 29s5 15 16 15h59c15 0 22 -6 28 -16z" />
    <glyph glyph-name="icircumflex" unicode="&#xee;" horiz-adv-x="276" 
d="M-14 508l100 147c8 12 17 18 31 18h43c14 0 23 -6 30 -18l100 -147h-41l-111 106l-111 -106h-41zM249 0h-223v25c55 5 68 16 68 52v258c0 24 -9 33 -31 33h-37v20l125 78h31v-389c0 -36 13 -47 67 -52v-25z" />
    <glyph glyph-name="idieresis" unicode="&#xef;" horiz-adv-x="276" 
d="M2 616c0 28 21 52 53 52s54 -24 54 -52c0 -27 -22 -51 -54 -51s-53 24 -53 51zM168 616c0 28 21 52 54 52c32 0 53 -24 53 -52c0 -27 -21 -51 -53 -51c-33 0 -54 24 -54 51zM249 0h-223v25c55 5 68 16 68 52v258c0 24 -9 33 -31 33h-37v20l125 78h31v-389
c0 -36 13 -47 67 -52v-25z" />
    <glyph glyph-name="ntilde" unicode="&#xf1;" horiz-adv-x="572" 
d="M546 0h-223v25c55 5 67 16 67 52v254c0 59 -31 84 -78 84c-46 0 -91 -16 -130 -43v-295c0 -36 13 -47 67 -52v-25h-223v25c55 5 68 16 68 52v258c0 24 -9 33 -31 33h-37v20l125 78h31v-50c39 24 100 50 155 50c59 0 142 -23 142 -135v-254c0 -36 13 -47 67 -52v-25z
M393 658h30c-5 -70 -39 -100 -82 -100c-48 0 -83 53 -119 53c-16 0 -33 -12 -38 -44h-32c5 70 39 100 82 100c48 0 84 -53 120 -53c17 0 34 12 39 44z" />
    <glyph glyph-name="oacute" unicode="&#xf3;" horiz-adv-x="541" 
d="M241 509l91 145c7 10 13 16 28 16h60c10 0 16 -6 16 -15s-6 -15 -21 -29l-134 -117h-40zM35 226c0 136 94 240 235 240s236 -104 236 -240c0 -137 -95 -241 -236 -241s-235 104 -235 241zM131 226c0 -116 38 -202 139 -202s140 86 140 202s-39 201 -140 201
s-139 -85 -139 -201z" />
    <glyph glyph-name="ograve" unicode="&#xf2;" horiz-adv-x="541" 
d="M35 226c0 136 94 240 235 240s236 -104 236 -240c0 -137 -95 -241 -236 -241s-235 104 -235 241zM131 226c0 -116 38 -202 139 -202s140 86 140 202s-39 201 -140 201s-139 -85 -139 -201zM204 654l92 -145h-41l-133 117c-16 14 -21 20 -21 29s5 15 16 15h59
c15 0 22 -6 28 -16z" />
    <glyph glyph-name="ocircumflex" unicode="&#xf4;" horiz-adv-x="541" 
d="M125 508l100 147c8 12 17 18 31 18h43c14 0 23 -6 30 -18l100 -147h-41l-111 106l-111 -106h-41zM35 226c0 136 94 240 235 240s236 -104 236 -240c0 -137 -95 -241 -236 -241s-235 104 -235 241zM131 226c0 -116 38 -202 139 -202s140 86 140 202s-39 201 -140 201
s-139 -85 -139 -201z" />
    <glyph glyph-name="odieresis" unicode="&#xf6;" horiz-adv-x="541" 
d="M141 616c0 28 21 52 53 52s54 -24 54 -52c0 -27 -22 -51 -54 -51s-53 24 -53 51zM307 616c0 28 21 52 54 52c32 0 53 -24 53 -52c0 -27 -21 -51 -53 -51c-33 0 -54 24 -54 51zM35 226c0 136 94 240 235 240s236 -104 236 -240c0 -137 -95 -241 -236 -241
s-235 104 -235 241zM131 226c0 -116 38 -202 139 -202s140 86 140 202s-39 201 -140 201s-139 -85 -139 -201z" />
    <glyph glyph-name="otilde" unicode="&#xf5;" horiz-adv-x="541" 
d="M35 226c0 136 94 240 235 240s236 -104 236 -240c0 -137 -95 -241 -236 -241s-235 104 -235 241zM131 226c0 -116 38 -202 139 -202s140 86 140 202s-39 201 -140 201s-139 -85 -139 -201zM383 658h30c-5 -70 -39 -100 -82 -100c-48 0 -83 53 -119 53
c-16 0 -33 -12 -38 -44h-32c5 70 39 100 82 100c48 0 84 -53 120 -53c17 0 34 12 39 44z" />
    <glyph glyph-name="uacute" unicode="&#xfa;" horiz-adv-x="564" 
d="M250 509l91 145c7 10 13 16 28 16h60c10 0 16 -6 16 -15s-6 -15 -21 -29l-134 -117h-40zM314 368v20l125 78h31v-389c0 -36 13 -47 67 -52v-25c-51 0 -104 -5 -155 -15v49c-39 -24 -101 -49 -155 -49c-59 0 -142 23 -142 135v215c0 24 -9 33 -31 33h-36v20l125 78h30
v-346c0 -59 32 -84 79 -84c46 0 89 17 130 43v256c0 24 -9 33 -32 33h-36z" />
    <glyph glyph-name="ugrave" unicode="&#xf9;" horiz-adv-x="564" 
d="M314 368v20l125 78h31v-389c0 -36 13 -47 67 -52v-25c-51 0 -104 -5 -155 -15v49c-39 -24 -101 -49 -155 -49c-59 0 -142 23 -142 135v215c0 24 -9 33 -31 33h-36v20l125 78h30v-346c0 -59 32 -84 79 -84c46 0 89 17 130 43v256c0 24 -9 33 -32 33h-36zM221 654l92 -145
h-41l-133 117c-16 14 -21 20 -21 29s5 15 16 15h59c15 0 22 -6 28 -16z" />
    <glyph glyph-name="ucircumflex" unicode="&#xfb;" horiz-adv-x="564" 
d="M125 508l100 147c8 12 17 18 31 18h43c14 0 23 -6 30 -18l100 -147h-41l-111 106l-111 -106h-41zM314 368v20l125 78h31v-389c0 -36 13 -47 67 -52v-25c-51 0 -104 -5 -155 -15v49c-39 -24 -101 -49 -155 -49c-59 0 -142 23 -142 135v215c0 24 -9 33 -31 33h-36v20
l125 78h30v-346c0 -59 32 -84 79 -84c46 0 89 17 130 43v256c0 24 -9 33 -32 33h-36z" />
    <glyph glyph-name="udieresis" unicode="&#xfc;" horiz-adv-x="564" 
d="M140 616c0 28 21 52 53 52s54 -24 54 -52c0 -27 -22 -51 -54 -51s-53 24 -53 51zM306 616c0 28 21 52 54 52c32 0 53 -24 53 -52c0 -27 -21 -51 -53 -51c-33 0 -54 24 -54 51zM314 368v20l125 78h31v-389c0 -36 13 -47 67 -52v-25c-51 0 -104 -5 -155 -15v49
c-39 -24 -101 -49 -155 -49c-59 0 -142 23 -142 135v215c0 24 -9 33 -31 33h-36v20l125 78h30v-346c0 -59 32 -84 79 -84c46 0 89 17 130 43v256c0 24 -9 33 -32 33h-36z" />
    <glyph glyph-name="dagger" unicode="&#x2020;" horiz-adv-x="421" 
d="M248 674c0 -34 -21 -60 -28 -132c71 8 98 28 131 28c25 0 41 -16 41 -37c0 -20 -16 -37 -41 -37c-33 0 -60 20 -131 27c7 -67 28 -50 28 -83c0 -26 -17 -287 -38 -287c-20 0 -37 261 -37 287c0 33 20 16 27 83c-71 -7 -97 -27 -130 -27c-25 0 -42 17 -42 37
c0 21 17 37 41 37c34 0 60 -20 131 -28c-7 72 -27 98 -27 132c0 24 17 41 37 41c21 0 38 -17 38 -41z" />
    <glyph glyph-name="degree" unicode="&#xb0;" horiz-adv-x="293" 
d="M31 599c0 64 52 116 116 116s116 -52 116 -116c0 -63 -52 -115 -116 -115s-116 52 -116 115zM66 599c0 -45 36 -79 81 -79s80 34 80 79s-35 80 -80 80s-81 -35 -81 -80z" />
    <glyph glyph-name="cent" unicode="&#xa2;" horiz-adv-x="578" 
d="M451 486c0 -30 -21 -46 -45 -46c-22 0 -39 14 -46 48c-6 37 -26 63 -65 70v-398c70 0 115 45 146 117l36 -19c-34 -81 -88 -137 -182 -140v-148h-43v150c-128 15 -199 114 -199 239c0 128 81 228 199 239v132h43v-132c94 -7 156 -60 156 -112zM145 359
c0 -99 35 -173 107 -194v393c-77 -13 -107 -93 -107 -199z" />
    <glyph glyph-name="sterling" unicode="&#xa3;" horiz-adv-x="578" 
d="M24 328v40h114c-19 43 -33 91 -33 154c0 105 81 193 224 193c124 0 186 -77 186 -147c0 -58 -34 -96 -79 -96c-38 0 -58 27 -58 55c0 35 26 55 58 57c9 0 15 3 15 10c0 44 -43 77 -109 77c-94 0 -127 -72 -127 -140c0 -65 13 -115 28 -163h149v-40h-137
c13 -44 25 -90 25 -146c0 -23 -3 -45 -8 -65c46 -24 88 -49 143 -49c53 0 90 24 99 77h42c-11 -98 -63 -160 -156 -160c-71 0 -118 33 -156 66c-28 -42 -70 -66 -115 -66c-49 0 -100 30 -100 88c0 53 49 86 107 86c28 0 53 -5 76 -14c-2 75 -28 128 -55 183h-133zM129 27
c38 0 62 27 74 60c-22 17 -43 30 -67 30c-34 0 -58 -17 -58 -44s19 -46 51 -46z" />
    <glyph glyph-name="section" unicode="&#xa7;" horiz-adv-x="475" 
d="M194 600c0 -166 238 -193 238 -483c0 -164 -88 -316 -246 -316c-46 0 -78 22 -78 53c0 28 19 48 47 48c45 0 41 -48 79 -48c29 0 48 26 48 62c0 167 -238 193 -238 483c0 164 88 316 245 316c47 0 79 -22 79 -52c0 -29 -20 -49 -48 -49c-45 0 -40 48 -79 48
c-28 0 -47 -26 -47 -62zM129 570c-16 -37 -31 -73 -31 -147c0 -208 248 -291 248 -477c16 37 32 73 32 147c0 208 -249 292 -249 477z" />
    <glyph glyph-name="bullet" unicode="&#x2022;" horiz-adv-x="280" 
d="M28 233c0 62 50 112 112 112s111 -50 111 -112s-49 -111 -111 -111s-112 49 -112 111z" />
    <glyph glyph-name="paragraph" unicode="&#xb6;" horiz-adv-x="398" 
d="M31 498c0 112 89 202 200 202h146v-25c-77 -5 -97 -10 -97 -78v-525c0 -171 -93 -270 -232 -270c-90 0 -156 42 -156 90c0 29 24 51 50 51c63 0 57 -89 138 -89c78 0 151 69 151 218v225c-111 0 -200 89 -200 201z" />
    <glyph glyph-name="germandbls" unicode="&#xdf;" horiz-adv-x="613" 
d="M26 410v41h68v33c0 164 94 231 210 231c107 0 181 -54 181 -143c0 -50 -44 -110 -128 -130c124 -18 223 -87 223 -234c0 -130 -69 -223 -193 -223c-105 0 -158 71 -158 131c0 30 18 46 43 46c20 0 41 -13 45 -53c8 -53 26 -85 70 -85c76 0 97 74 97 183
c0 150 -76 205 -212 205h-29v39c111 0 157 62 157 121c0 62 -39 104 -100 104c-64 0 -118 -35 -118 -135v-464c0 -36 17 -47 49 -52v-25h-205v25c55 5 68 16 68 52v333h-68z" />
    <glyph glyph-name="registered" unicode="&#xae;" horiz-adv-x="449" 
d="M28 519c0 108 88 196 196 196s196 -88 196 -196c0 -107 -88 -195 -196 -195s-196 88 -196 195zM60 519c0 -91 73 -163 164 -163s164 72 164 163c0 92 -73 164 -164 164s-164 -72 -164 -164zM323 571c0 -30 -19 -48 -52 -54l42 -62c8 -11 14 -16 30 -18v-17h-66l-61 94
h-17v-54c0 -20 5 -21 26 -23v-17h-104v17c21 2 25 3 25 23v127c0 19 -3 19 -25 21v17h119c52 0 83 -14 83 -54zM269 571c0 22 -12 30 -39 30h-22c-5 0 -9 -4 -9 -9v-53h31c27 0 39 11 39 32z" />
    <glyph glyph-name="copyright" unicode="&#xa9;" horiz-adv-x="791" 
d="M31 350c0 201 164 365 365 365s365 -164 365 -365s-164 -365 -365 -365s-365 164 -365 365zM64 350c0 -183 149 -331 332 -331c182 0 331 148 331 331s-149 332 -331 332c-183 0 -332 -149 -332 -332zM532 562l33 -119l-19 -6c-32 61 -80 101 -140 101
c-87 0 -121 -78 -121 -186s34 -186 121 -186c66 0 118 44 135 100l34 -11c-28 -75 -82 -122 -176 -122c-122 0 -206 89 -206 219s84 219 206 219c45 0 77 -11 101 -28l8 19h24z" />
    <glyph glyph-name="trademark" unicode="&#x2122;" horiz-adv-x="483" 
d="M468 490h-96v11c21 2 26 3 26 23v139l-64 -173h-15l-62 173v-139c0 -20 4 -21 25 -23v-11h-72v11c21 2 26 3 26 23v142c0 20 -5 21 -26 23v11h81l49 -135l49 135h79v-11c-21 -2 -25 -3 -25 -23v-142c0 -20 4 -21 25 -23v-11zM79 524v149c0 5 -3 9 -9 9
c-25 0 -40 -10 -57 -39l-10 4l21 60h11c2 -5 5 -7 10 -7h116c5 0 8 2 9 7h12l20 -60l-10 -4c-16 29 -33 39 -58 39c-6 0 -9 -4 -9 -9v-149c0 -20 5 -21 25 -23v-11h-96v11c21 2 25 3 25 23z" />
    <glyph glyph-name="acute" unicode="&#xb4;" horiz-adv-x="516" 
d="M226 509l91 145c7 10 13 16 28 16h60c10 0 16 -6 16 -15s-6 -15 -21 -29l-134 -117h-40z" />
    <glyph glyph-name="dieresis" unicode="&#xa8;" horiz-adv-x="498" 
d="M112 616c0 28 21 52 53 52s54 -24 54 -52c0 -27 -22 -51 -54 -51s-53 24 -53 51zM278 616c0 28 21 52 54 52c32 0 53 -24 53 -52c0 -27 -21 -51 -53 -51c-33 0 -54 24 -54 51z" />
    <glyph glyph-name="notequal" unicode="&#x2260;" horiz-adv-x="552" 
d="M10 425v50h274l40 141h52l-40 -141h206v-50h-220l-42 -148h262v-50h-276l-40 -142h-52l40 142h-204v50h218l42 148h-260z" />
    <glyph glyph-name="AE" unicode="&#xc6;" horiz-adv-x="1065" 
d="M633 45h103c152 0 228 62 301 152l20 -13l-98 -184h-552v25c80 5 97 11 97 87v105h-277l-75 -109c-35 -49 -2 -78 61 -83v-25h-229v25c37 1 75 30 115 87l378 544c-20 14 -52 16 -95 19v25h578l67 -163l-21 -11c-63 85 -134 129 -262 129h-111c-19 0 -30 -11 -30 -30
v-237h162c74 0 88 33 93 97h26v-239h-26c-5 64 -19 97 -93 97h-162v-268c0 -19 11 -30 30 -30zM504 588c0 9 -1 17 -2 24l-243 -350h245v326z" />
    <glyph glyph-name="Oslash" unicode="&#xd8;" horiz-adv-x="753" 
d="M44 350c0 211 127 365 332 365c86 0 158 -27 213 -74l49 59h55l-73 -89c57 -65 89 -156 89 -261c0 -211 -127 -365 -333 -365c-86 0 -158 27 -213 73l-48 -58h-55l73 88c-58 65 -89 156 -89 262zM154 350c0 -77 10 -144 32 -197l359 434c-36 54 -90 85 -169 85
c-163 0 -222 -135 -222 -322zM599 350c0 76 -10 143 -33 196l-358 -433c36 -53 89 -84 168 -84c164 0 223 134 223 321z" />
    <glyph glyph-name="infinity" unicode="&#x221e;" horiz-adv-x="857" 
d="M644 150c-115 0 -171 72 -218 151c-47 -79 -101 -151 -213 -151c-104 0 -196 88 -196 200c0 113 92 201 196 201c115 0 171 -73 218 -152c46 79 101 152 213 152c104 0 196 -88 196 -201c0 -112 -92 -200 -196 -200zM213 199c96 0 144 69 188 146
c-46 80 -91 153 -188 153c-83 0 -146 -64 -146 -148c0 -83 63 -151 146 -151zM644 501c-96 0 -143 -70 -188 -147c45 -79 91 -151 188 -151c83 0 146 64 146 147c0 84 -63 151 -146 151z" />
    <glyph glyph-name="plusminus" unicode="&#xb1;" horiz-adv-x="552" 
d="M10 326v50h240v240h50v-240h242v-50h-242v-231h-50v231h-240zM10 0v45h532v-45h-532z" />
    <glyph glyph-name="lessequal" unicode="&#x2264;" horiz-adv-x="552" 
d="M521 170v-55l-490 203v55l490 202v-54l-424 -176zM10 0v45h532v-45h-532z" />
    <glyph glyph-name="greaterequal" unicode="&#x2265;" horiz-adv-x="552" 
d="M30 115v55l425 175l-425 176v54l491 -202v-55zM542 45v-45h-532v45h532z" />
    <glyph glyph-name="yen" unicode="&#xa5;" horiz-adv-x="578" 
d="M36 269v39h192l-121 271c-28 62 -40 91 -89 96v25h226v-25c-70 -5 -54 -44 -27 -106l100 -221l94 224c25 63 38 98 -32 103v25h182v-25c-56 -5 -73 -34 -97 -97l-112 -270h190v-39h-201v-93h201v-40h-201v-24c0 -76 17 -82 97 -87v-25h-293v25c80 5 97 11 97 87v24h-206
v40h206v93h-206z" />
    <glyph glyph-name="mu" unicode="&#xb5;" horiz-adv-x="540" 
d="M231 -15c-34 0 -72 9 -99 35c24 -67 64 -117 64 -155c0 -39 -27 -64 -59 -64c-33 0 -60 25 -60 65v585h89v-331c0 -57 30 -84 78 -84c46 0 91 17 131 43c-1 9 -1 19 -1 29v343h89v-360c0 -38 10 -55 32 -55c10 0 22 3 37 11v-36c-21 -14 -45 -22 -69 -22
c-41 0 -70 13 -82 51c-35 -28 -93 -55 -150 -55z" />
    <glyph glyph-name="partialdiff" unicode="&#x2202;" horiz-adv-x="537" 
d="M499 282c0 -185 -91 -297 -231 -297c-145 0 -240 104 -240 240c0 137 95 241 229 241c55 0 101 -23 134 -53c-11 177 -50 246 -121 246c-36 0 -46 -52 -86 -52c-28 0 -46 17 -46 45c0 32 23 63 85 63c168 0 276 -169 276 -433zM396 267c0 34 -1 65 -1 93
c-28 35 -70 67 -130 67c-98 0 -134 -85 -134 -205c0 -112 36 -198 137 -198c98 0 128 98 128 243z" />
    <glyph glyph-name="summation" unicode="&#x2211;" horiz-adv-x="624" 
d="M130 84h198c158 0 206 28 275 113l21 -13l-98 -184h-496v25l216 323l-214 327v25h495l67 -163l-21 -11c-63 85 -133 129 -261 129h-148l173 -263z" />
    <glyph glyph-name="product" unicode="&#x220f;" horiz-adv-x="789" 
d="M759 0h-293v25c80 5 97 11 97 87v513c0 19 -11 30 -30 30h-277c-19 0 -30 -11 -30 -30v-513c0 -76 17 -82 97 -87v-25h-293v25c80 5 97 11 97 87v476c0 77 -17 82 -97 87v25h729v-25c-80 -5 -97 -10 -97 -87v-476c0 -76 17 -82 97 -87v-25z" />
    <glyph glyph-name="pi" unicode="&#x3c0;" horiz-adv-x="540" 
d="M85 -15c-39 0 -72 18 -72 53c0 23 20 43 44 43c41 0 35 -43 70 -43c29 0 51 22 51 75v256h-19c-47 0 -75 -31 -75 -71h-36c0 61 25 153 146 153h200c65 0 108 4 136 17v-29c-21 -33 -44 -60 -120 -67v-282c0 -37 10 -54 32 -54c10 0 22 3 37 11v-36
c-19 -14 -43 -22 -70 -22c-47 0 -78 25 -78 87v293h-111v-226c0 -89 -38 -158 -135 -158z" />
    <glyph glyph-name="integral" unicode="&#x222b;" horiz-adv-x="243" 
d="M166 769v-751c0 -148 -80 -217 -184 -217v0c-44 0 -78 18 -78 56c0 24 21 45 46 45c44 0 41 -48 76 -48c29 0 51 22 51 75v763c0 126 78 205 184 205c47 0 79 -22 79 -53c0 -28 -20 -48 -48 -48c-45 0 -40 48 -79 48c-28 0 -47 -26 -47 -75z" />
    <glyph glyph-name="ordfeminine" unicode="&#xaa;" horiz-adv-x="412" 
d="M326 269c-34 0 -60 12 -67 47c-34 -24 -80 -49 -129 -49c-63 0 -104 32 -104 83c0 83 106 115 232 135v49c0 52 -12 71 -53 71c-40 0 -62 -16 -73 -54c-8 -27 -27 -39 -47 -39s-34 13 -34 38c0 46 66 88 162 88c69 0 128 -25 128 -109v-184c0 -24 8 -36 24 -36
c7 0 16 2 26 8v-31c-17 -11 -37 -17 -65 -17zM165 314c33 0 64 16 93 36v103c-89 -13 -147 -34 -147 -88c0 -33 23 -51 54 -51z" />
    <glyph glyph-name="ordmasculine" unicode="&#xba;" horiz-adv-x="422" 
d="M20 452c0 104 74 186 191 186s191 -82 191 -186s-74 -186 -191 -186s-191 82 -191 186zM108 452c0 -88 26 -152 103 -152s102 64 102 152c0 87 -25 151 -102 151s-103 -64 -103 -151z" />
    <glyph glyph-name="Omega" unicode="&#x2126;" horiz-adv-x="754" 
d="M686 -22h-27c0 9 -3 22 -17 22h-224v65c131 122 181 220 181 363c0 141 -59 244 -222 244s-223 -103 -223 -244c0 -143 51 -241 181 -363v-65h-224c-14 0 -17 -13 -17 -22h-27l-22 193h27c15 -83 26 -87 60 -87h126c-123 94 -214 204 -214 348c0 164 128 283 333 283
s332 -119 332 -283c0 -144 -91 -254 -214 -348h127c34 0 45 4 60 87h27z" />
    <glyph glyph-name="ae" unicode="&#xe6;" horiz-adv-x="807" 
d="M267 466c59 0 110 -22 131 -79c34 48 87 79 162 79c116 0 196 -69 196 -192h-324c-2 -16 -3 -32 -3 -48c0 -116 42 -199 156 -199c66 0 121 44 151 115l37 -17c-35 -83 -99 -140 -194 -140c-93 0 -159 34 -200 88c-49 -40 -127 -86 -209 -86c-83 0 -135 37 -135 107
c0 108 128 145 299 173v60c0 73 -16 101 -72 101c-58 0 -92 -24 -104 -73c-9 -34 -28 -48 -50 -48c-25 0 -39 15 -39 45c0 57 75 114 198 114zM362 102c-20 37 -28 80 -28 127c-122 -18 -203 -46 -203 -123c0 -47 30 -68 71 -68c59 0 115 30 160 64zM561 427
c-78 0 -112 -44 -125 -113h231c0 73 -45 113 -106 113z" />
    <glyph glyph-name="oslash" unicode="&#xf8;" horiz-adv-x="541" 
d="M35 226c0 136 94 240 235 240c57 0 107 -18 146 -47l28 32h52l-52 -58c39 -43 62 -101 62 -167c0 -137 -95 -241 -236 -241c-57 0 -107 17 -145 46l-28 -31h-52l51 57c-39 43 -61 102 -61 169zM131 226c0 -42 5 -80 16 -111l228 258c-22 34 -56 54 -105 54
c-101 0 -139 -85 -139 -201zM410 226c0 41 -5 78 -16 109l-229 -258c22 -34 56 -53 105 -53c101 0 140 86 140 202z" />
    <glyph glyph-name="questiondown" unicode="&#xbf;" horiz-adv-x="469" 
d="M253 166l2 99h42l1 -189c-110 0 -190 -32 -190 -145c0 -76 58 -146 147 -146c81 0 61 93 135 93c26 0 47 -21 47 -52c0 -62 -67 -90 -145 -90c-175 0 -262 119 -262 229c0 136 93 199 223 201zM339 398c0 -35 -26 -62 -64 -62c-37 0 -63 27 -63 62s26 63 63 63
c38 0 64 -28 64 -63z" />
    <glyph glyph-name="exclamdown" unicode="&#xa1;" horiz-adv-x="240" 
d="M101 265h36c2 -259 45 -306 45 -420c0 -81 -28 -109 -63 -109s-63 28 -63 109c0 114 43 161 45 420zM182 398c0 -35 -25 -62 -63 -62c-37 0 -63 27 -63 62s26 63 63 63c38 0 63 -28 63 -63z" />
    <glyph glyph-name="logicalnot" unicode="&#xac;" horiz-adv-x="552" 
d="M10 425v50h532v-243h-50v193h-482z" />
    <glyph glyph-name="radical" unicode="&#x221a;" horiz-adv-x="552" 
d="M10 222v50h141l84 -206l264 634h54l-290 -700h-54l-92 222h-107z" />
    <glyph glyph-name="florin" unicode="&#x192;" horiz-adv-x="578" 
d="M58 347v39h162l31 124c32 126 116 205 222 205c47 0 79 -22 79 -53c0 -28 -20 -48 -47 -48c-46 0 -41 48 -80 48c-28 0 -54 -26 -66 -75l-50 -201h173v-39h-183l-82 -329c-36 -148 -121 -217 -223 -217c-44 0 -78 18 -78 56c0 24 20 45 45 45c44 0 42 -48 77 -48
c28 0 55 22 69 75l103 418h-152z" />
    <glyph glyph-name="approxequal" unicode="&#x2248;" horiz-adv-x="552" 
d="M542 289v-43c-17 8 -57 22 -97 22c-157 0 -178 -70 -339 -70c-44 0 -75 10 -96 18v42c17 -7 56 -21 96 -21c157 0 178 70 339 70c44 0 75 -10 97 -18zM542 487v-43c-17 8 -57 22 -97 22c-157 0 -178 -70 -339 -70c-44 0 -75 10 -96 18v42c17 -7 56 -21 96 -21
c157 0 178 70 339 70c44 0 75 -10 97 -18z" />
    <glyph glyph-name="Delta" unicode="&#x2206;" horiz-adv-x="659" 
d="M305 700h57l266 -700h-589zM304 573l-200 -528h402z" />
    <glyph glyph-name="guillemotleft" unicode="&#xab;" horiz-adv-x="509" 
d="M263 30l-20 -14l-171 190c-6 7 -11 17 -11 27c0 11 4 20 11 28l171 190l20 -14l-97 -204zM448 30l-20 -14l-171 190c-6 7 -11 17 -11 27c0 11 4 20 11 28l171 190l20 -14l-97 -204z" />
    <glyph glyph-name="guillemotright" unicode="&#xbb;" horiz-adv-x="515" 
d="M80 16l-20 14l97 203l-97 204l20 14l171 -190c7 -8 11 -17 11 -28c0 -10 -5 -20 -11 -27zM266 16l-20 14l97 203l-97 204l20 14l171 -190c7 -8 11 -17 11 -28c0 -10 -5 -20 -11 -27z" />
    <glyph glyph-name="ellipsis" unicode="&#x2026;" horiz-adv-x="719" 
d="M57 53c0 35 25 62 63 62c37 0 63 -27 63 -62s-26 -63 -63 -63c-38 0 -63 28 -63 63zM296 53c0 35 25 62 63 62c37 0 63 -27 63 -62s-26 -63 -63 -63c-38 0 -63 28 -63 63zM536 53c0 35 25 62 63 62c37 0 63 -27 63 -62s-26 -63 -63 -63c-38 0 -63 28 -63 63z" />
    <glyph glyph-name="uni00A0" unicode="&#xa0;" horiz-adv-x="251" 
 />
    <glyph glyph-name="Agrave" unicode="&#xc0;" horiz-adv-x="665" 
d="M308 700h57l229 -602c17 -47 37 -68 84 -73v-25h-260v25c75 5 92 20 76 62l-50 128h-272l-48 -128c-15 -38 8 -57 85 -62v-25h-222v25c50 5 75 26 90 68zM307 572l-118 -313h238zM277 888l92 -145h-41l-133 117c-16 14 -21 20 -21 29s5 15 16 15h59c15 0 22 -6 28 -16z
" />
    <glyph glyph-name="Atilde" unicode="&#xc3;" horiz-adv-x="665" 
d="M308 700h57l229 -602c17 -47 37 -68 84 -73v-25h-260v25c75 5 92 20 76 62l-50 128h-272l-48 -128c-15 -38 8 -57 85 -62v-25h-222v25c50 5 75 26 90 68zM307 572l-118 -313h238zM438 892h30c-5 -70 -39 -100 -82 -100c-48 0 -83 53 -119 53c-16 0 -33 -12 -38 -44h-32
c5 70 39 100 82 100c48 0 84 -53 120 -53c17 0 34 12 39 44z" />
    <glyph glyph-name="Otilde" unicode="&#xd5;" horiz-adv-x="753" 
d="M44 350c0 211 127 365 332 365c206 0 333 -154 333 -365s-127 -365 -333 -365c-205 0 -332 154 -332 365zM154 350c0 -187 59 -321 222 -321c164 0 223 134 223 321s-59 322 -223 322c-163 0 -222 -135 -222 -322zM481 892h30c-5 -70 -39 -100 -82 -100
c-48 0 -83 53 -119 53c-16 0 -33 -12 -38 -44h-32c5 70 39 100 82 100c48 0 84 -53 120 -53c17 0 34 12 39 44z" />
    <glyph glyph-name="OE" unicode="&#x152;" horiz-adv-x="1151" 
d="M719 45h103c152 0 228 62 301 152l20 -13l-97 -184h-513c-44 -10 -95 -15 -139 -15c-223 0 -350 154 -350 365s127 365 350 365c42 0 98 -5 139 -15h514l66 -163l-20 -11c-64 85 -134 129 -263 129h-111c-19 0 -30 -11 -30 -30v-237h162c74 0 88 33 93 97h27v-239h-27
c-5 64 -19 97 -93 97h-162v-268c0 -19 11 -30 30 -30zM154 350c0 -187 59 -321 240 -321c146 0 201 77 201 202v243c0 133 -56 198 -201 198c-181 0 -240 -135 -240 -322z" />
    <glyph glyph-name="oe" unicode="&#x153;" horiz-adv-x="866" 
d="M832 274h-324c-2 -14 -2 -27 -2 -41c0 -119 36 -206 156 -206c65 0 120 44 151 115l37 -17c-35 -83 -100 -140 -195 -140c-94 0 -161 38 -199 99c-31 -49 -79 -82 -141 -93c-21 -4 -42 -5 -64 -4c-129 7 -216 108 -216 239c0 136 94 240 235 240c82 0 147 -38 186 -98
c29 48 75 81 134 92c21 4 42 6 64 4c105 -6 178 -73 178 -190zM131 226c0 -116 38 -202 139 -202s140 86 140 202s-39 201 -140 201s-139 -85 -139 -201zM637 427c-78 0 -112 -44 -125 -113h231c0 73 -45 113 -106 113z" />
    <glyph glyph-name="endash" unicode="&#x2013;" horiz-adv-x="552" 
d="M10 206v39h532v-39h-532z" />
    <glyph glyph-name="emdash" unicode="&#x2014;" horiz-adv-x="817" 
d="M10 206v39h797v-39h-797z" />
    <glyph glyph-name="quotedblleft" unicode="&#x201c;" horiz-adv-x="423" 
d="M366 516c0 -35 -25 -62 -63 -62c-37 0 -63 27 -63 73c0 65 49 151 95 195l20 -15c-34 -44 -53 -81 -61 -128c47 0 72 -28 72 -63zM182 516c0 -35 -25 -62 -63 -62c-37 0 -63 27 -63 73c0 65 49 151 95 195l20 -15c-34 -44 -53 -81 -61 -128c47 0 72 -28 72 -63z" />
    <glyph glyph-name="quotedblright" unicode="&#x201d;" horiz-adv-x="423" 
d="M240 653c0 35 25 62 63 62c37 0 63 -27 63 -73c0 -65 -49 -151 -95 -195l-20 15c34 44 53 81 61 128c-47 0 -72 28 -72 63zM57 653c0 35 25 62 63 62c37 0 63 -27 63 -73c0 -65 -49 -151 -95 -195l-20 15c34 44 53 81 61 128c-47 0 -72 28 -72 63z" />
    <glyph glyph-name="quoteleft" unicode="&#x2018;" horiz-adv-x="240" 
d="M182 516c0 -35 -25 -62 -63 -62c-37 0 -63 27 -63 73c0 65 49 151 95 195l20 -15c-34 -44 -53 -81 -61 -128c47 0 72 -28 72 -63z" />
    <glyph glyph-name="quoteright" unicode="&#x2019;" horiz-adv-x="240" 
d="M57 653c0 35 25 62 63 62c37 0 63 -27 63 -73c0 -65 -49 -151 -95 -195l-20 15c34 44 53 81 61 128c-47 0 -72 28 -72 63z" />
    <glyph glyph-name="divide" unicode="&#xf7;" horiz-adv-x="552" 
d="M10 326v50h532v-50h-532zM212 525c0 35 25 62 63 62c37 0 63 -27 63 -62s-26 -63 -63 -63c-38 0 -63 28 -63 63zM212 176c0 35 25 62 63 62c37 0 63 -27 63 -62s-26 -63 -63 -63c-38 0 -63 28 -63 63z" />
    <glyph glyph-name="lozenge" unicode="&#x25ca;" horiz-adv-x="552" 
d="M46 350l202 350h55l203 -350l-203 -350h-55zM100 350l175 -303l176 303l-176 303z" />
    <glyph glyph-name="ydieresis" unicode="&#xff;" horiz-adv-x="463" 
d="M391 339l-171 -427c-30 -75 -78 -111 -140 -111c-53 0 -97 24 -97 63c0 25 20 47 49 47c43 0 49 -49 84 -49c27 0 49 28 64 68l23 59l-133 350c-23 61 -32 82 -79 87v25h220v-25c-70 -5 -68 -25 -46 -87l87 -230l92 230c24 61 8 82 -49 87v25h177v-25
c-38 -5 -56 -26 -81 -87zM96 616c0 28 21 52 53 52s54 -24 54 -52c0 -27 -22 -51 -54 -51s-53 24 -53 51zM262 616c0 28 21 52 54 52c32 0 53 -24 53 -52c0 -27 -21 -51 -53 -51c-33 0 -54 24 -54 51z" />
    <glyph glyph-name="Ydieresis" unicode="&#x178;" horiz-adv-x="630" 
d="M171 25c80 5 97 11 97 87v157l-182 319c-34 59 -49 82 -99 87v25h263v-25c-69 -5 -87 -28 -53 -86l147 -258l140 257c32 60 14 82 -56 87v25h215v-25c-56 -5 -74 -26 -106 -87l-170 -316v-160c0 -76 17 -82 97 -87v-25h-293v25zM178 850c0 28 21 52 53 52s54 -24 54 -52
c0 -27 -22 -51 -54 -51s-53 24 -53 51zM344 850c0 28 21 52 54 52c32 0 53 -24 53 -52c0 -27 -21 -51 -53 -51c-33 0 -54 24 -54 51z" />
    <glyph glyph-name="fraction" unicode="&#x2044;" horiz-adv-x="107" 
d="M-196 0l456 700h43l-456 -700h-43z" />
    <glyph glyph-name="Euro" unicode="&#x20ac;" horiz-adv-x="578" 
d="M41 395v39h62c22 186 118 281 248 281c111 0 177 -77 177 -147c0 -59 -35 -96 -79 -96c-39 0 -59 27 -59 55c0 35 27 55 58 57c9 0 15 3 15 10c0 44 -42 79 -104 79c-104 0 -141 -87 -149 -239h201v-39h-203v-45c0 -18 0 -35 1 -51h202v-40h-200
c13 -147 59 -229 156 -229c68 0 113 42 144 114l39 -19c-35 -83 -96 -140 -192 -140c-135 0 -231 93 -254 274h-63v40h59c-1 16 -2 33 -2 51c0 15 0 30 1 45h-58z" />
    <glyph glyph-name="guilsinglleft" unicode="&#x2039;" horiz-adv-x="324" 
d="M263 30l-20 -14l-171 190c-6 7 -11 17 -11 27c0 11 4 20 11 28l171 190l20 -14l-97 -204z" />
    <glyph glyph-name="guilsinglright" unicode="&#x203a;" horiz-adv-x="324" 
d="M80 16l-20 14l97 203l-97 204l20 14l171 -190c7 -8 11 -17 11 -28c0 -10 -5 -20 -11 -27z" />
    <glyph glyph-name="daggerdbl" unicode="&#x2021;" horiz-adv-x="421" 
d="M248 674c0 -34 -21 -60 -28 -132c71 8 98 28 131 28c25 0 41 -16 41 -37c0 -20 -16 -37 -41 -37c-33 0 -60 20 -131 27c7 -67 28 -50 28 -83c0 -26 -17 -173 -38 -173c-20 0 -37 147 -37 173c0 33 20 16 27 83c-71 -7 -97 -27 -130 -27c-25 0 -42 17 -42 37
c0 21 17 37 41 37c34 0 60 -20 131 -28c-7 72 -27 98 -27 132c0 24 17 41 37 41c21 0 38 -17 38 -41zM173 -158c0 34 20 60 27 132c-71 -8 -97 -28 -130 -28c-26 0 -42 16 -42 37s16 37 42 37c33 0 59 -20 130 -27c-7 67 -27 51 -27 84c0 25 17 171 37 171
c21 0 38 -146 38 -171c0 -33 -21 -17 -28 -84c71 7 97 27 131 27c25 0 41 -16 41 -37s-16 -37 -41 -37c-34 0 -60 20 -131 28c7 -72 28 -98 28 -132c0 -24 -17 -41 -38 -41c-20 0 -37 17 -37 41z" />
    <glyph glyph-name="periodcentered" unicode="&#xb7;" horiz-adv-x="240" 
d="M57 232c0 35 25 62 63 62c37 0 63 -27 63 -62s-26 -63 -63 -63c-38 0 -63 28 -63 63z" />
    <glyph glyph-name="quotesinglbase" unicode="&#x201a;" horiz-adv-x="240" 
d="M57 53c0 35 25 62 63 62c37 0 63 -27 63 -73c0 -65 -49 -151 -95 -195l-20 15c34 44 53 81 61 128c-47 0 -72 28 -72 63z" />
    <glyph glyph-name="quotedblbase" unicode="&#x201e;" horiz-adv-x="423" 
d="M240 53c0 35 25 62 63 62c37 0 63 -27 63 -73c0 -65 -49 -151 -95 -195l-20 15c34 44 53 81 61 128c-47 0 -72 28 -72 63zM57 53c0 35 25 62 63 62c37 0 63 -27 63 -73c0 -65 -49 -151 -95 -195l-20 15c34 44 53 81 61 128c-47 0 -72 28 -72 63z" />
    <glyph glyph-name="perthousand" unicode="&#x2030;" horiz-adv-x="1249" 
d="M31 490c0 132 56 219 159 219c104 0 160 -87 160 -219s-56 -219 -160 -219c-103 0 -159 87 -159 219zM111 490c0 -119 14 -189 79 -189c66 0 80 70 80 189c0 120 -14 189 -80 189c-65 0 -79 -69 -79 -189zM184 0l456 700h43l-456 -700h-43zM518 210c0 132 56 219 159 219
c104 0 160 -87 160 -219s-56 -219 -160 -219c-103 0 -159 87 -159 219zM598 210c0 -119 14 -189 79 -189c66 0 80 70 80 189c0 120 -14 189 -80 189c-65 0 -79 -69 -79 -189zM899 210c0 132 56 219 159 219c104 0 160 -87 160 -219s-56 -219 -160 -219
c-103 0 -159 87 -159 219zM979 210c0 -119 14 -189 79 -189c66 0 80 70 80 189c0 120 -14 189 -80 189c-65 0 -79 -69 -79 -189z" />
    <glyph glyph-name="Acircumflex" unicode="&#xc2;" horiz-adv-x="665" 
d="M308 700h57l229 -602c17 -47 37 -68 84 -73v-25h-260v25c75 5 92 20 76 62l-50 128h-272l-48 -128c-15 -38 8 -57 85 -62v-25h-222v25c50 5 75 26 90 68zM307 572l-118 -313h238zM183 742l100 147c8 12 17 18 31 18h43c14 0 23 -6 30 -18l100 -147h-41l-111 106
l-111 -106h-41z" />
    <glyph glyph-name="Ecircumflex" unicode="&#xca;" horiz-adv-x="688" 
d="M201 742l100 147c8 12 17 18 31 18h43c14 0 23 -6 30 -18l100 -147h-41l-111 106l-111 -106h-41zM256 45h104c151 0 227 62 300 152l21 -13l-98 -184h-553v25c80 5 97 11 97 87v476c0 77 -17 82 -97 87v25h554l67 -163l-21 -11c-63 85 -134 129 -262 129h-112
c-19 0 -30 -11 -30 -30v-237h162c74 0 88 33 94 97h26v-239h-26c-6 64 -20 97 -94 97h-162v-268c0 -19 11 -30 30 -30z" />
    <glyph glyph-name="Aacute" unicode="&#xc1;" horiz-adv-x="665" 
d="M308 700h57l229 -602c17 -47 37 -68 84 -73v-25h-260v25c75 5 92 20 76 62l-50 128h-272l-48 -128c-15 -38 8 -57 85 -62v-25h-222v25c50 5 75 26 90 68zM307 572l-118 -313h238zM306 743l91 145c7 10 13 16 28 16h60c10 0 16 -6 16 -15s-6 -15 -21 -29l-134 -117h-40z
" />
    <glyph glyph-name="Edieresis" unicode="&#xcb;" horiz-adv-x="688" 
d="M202 850c0 28 21 52 53 52s54 -24 54 -52c0 -27 -22 -51 -54 -51s-53 24 -53 51zM368 850c0 28 21 52 54 52c32 0 53 -24 53 -52c0 -27 -21 -51 -53 -51c-33 0 -54 24 -54 51zM256 45h104c151 0 227 62 300 152l21 -13l-98 -184h-553v25c80 5 97 11 97 87v476
c0 77 -17 82 -97 87v25h554l67 -163l-21 -11c-63 85 -134 129 -262 129h-112c-19 0 -30 -11 -30 -30v-237h162c74 0 88 33 94 97h26v-239h-26c-6 64 -20 97 -94 97h-162v-268c0 -19 11 -30 30 -30z" />
    <glyph glyph-name="Egrave" unicode="&#xc8;" horiz-adv-x="688" 
d="M256 45h104c151 0 227 62 300 152l21 -13l-98 -184h-553v25c80 5 97 11 97 87v476c0 77 -17 82 -97 87v25h554l67 -163l-21 -11c-63 85 -134 129 -262 129h-112c-19 0 -30 -11 -30 -30v-237h162c74 0 88 33 94 97h26v-239h-26c-6 64 -20 97 -94 97h-162v-268
c0 -19 11 -30 30 -30zM292 888l92 -145h-41l-133 117c-16 14 -21 20 -21 29s5 15 16 15h59c15 0 22 -6 28 -16z" />
    <glyph glyph-name="Iacute" unicode="&#xcd;" horiz-adv-x="352" 
d="M323 0h-293v25c80 5 97 11 97 87v476c0 77 -17 82 -97 87v25h293v-25c-80 -5 -97 -10 -97 -87v-476c0 -76 17 -82 97 -87v-25zM149 743l91 145c7 10 13 16 28 16h60c10 0 16 -6 16 -15s-6 -15 -21 -29l-134 -117h-40z" />
    <glyph glyph-name="Icircumflex" unicode="&#xce;" horiz-adv-x="352" 
d="M323 0h-293v25c80 5 97 11 97 87v476c0 77 -17 82 -97 87v25h293v-25c-80 -5 -97 -10 -97 -87v-476c0 -76 17 -82 97 -87v-25zM25 742l100 147c8 12 17 18 31 18h43c14 0 23 -6 30 -18l100 -147h-41l-111 106l-111 -106h-41z" />
    <glyph glyph-name="Idieresis" unicode="&#xcf;" horiz-adv-x="352" 
d="M323 0h-293v25c80 5 97 11 97 87v476c0 77 -17 82 -97 87v25h293v-25c-80 -5 -97 -10 -97 -87v-476c0 -76 17 -82 97 -87v-25zM41 850c0 28 21 52 53 52s54 -24 54 -52c0 -27 -22 -51 -54 -51s-53 24 -53 51zM207 850c0 28 21 52 54 52c32 0 53 -24 53 -52
c0 -27 -21 -51 -53 -51c-33 0 -54 24 -54 51z" />
    <glyph glyph-name="Igrave" unicode="&#xcc;" horiz-adv-x="352" 
d="M323 0h-293v25c80 5 97 11 97 87v476c0 77 -17 82 -97 87v25h293v-25c-80 -5 -97 -10 -97 -87v-476c0 -76 17 -82 97 -87v-25zM120 888l92 -145h-41l-133 117c-16 14 -21 20 -21 29s5 15 16 15h59c15 0 22 -6 28 -16z" />
    <glyph glyph-name="Oacute" unicode="&#xd3;" horiz-adv-x="753" 
d="M349 743l91 145c7 10 13 16 28 16h60c10 0 16 -6 16 -15s-6 -15 -21 -29l-134 -117h-40zM44 350c0 211 127 365 332 365c206 0 333 -154 333 -365s-127 -365 -333 -365c-205 0 -332 154 -332 365zM154 350c0 -187 59 -321 222 -321c164 0 223 134 223 321
s-59 322 -223 322c-163 0 -222 -135 -222 -322z" />
    <glyph glyph-name="Ocircumflex" unicode="&#xd4;" horiz-adv-x="753" 
d="M223 742l100 147c8 12 17 18 31 18h43c14 0 23 -6 30 -18l100 -147h-41l-111 106l-111 -106h-41zM44 350c0 211 127 365 332 365c206 0 333 -154 333 -365s-127 -365 -333 -365c-205 0 -332 154 -332 365zM154 350c0 -187 59 -321 222 -321c164 0 223 134 223 321
s-59 322 -223 322c-163 0 -222 -135 -222 -322z" />
    <glyph glyph-name="Ograve" unicode="&#xd2;" horiz-adv-x="753" 
d="M44 350c0 211 127 365 332 365c206 0 333 -154 333 -365s-127 -365 -333 -365c-205 0 -332 154 -332 365zM154 350c0 -187 59 -321 222 -321c164 0 223 134 223 321s-59 322 -223 322c-163 0 -222 -135 -222 -322zM320 888l92 -145h-41l-133 117c-16 14 -21 20 -21 29
s5 15 16 15h59c15 0 22 -6 28 -16z" />
    <glyph glyph-name="Uacute" unicode="&#xda;" horiz-adv-x="766" 
d="M377 743l91 145c7 10 13 16 28 16h60c10 0 16 -6 16 -15s-6 -15 -21 -29l-134 -117h-40zM217 588v-382c0 -122 83 -175 198 -175c99 0 182 55 182 173v384c0 77 -17 82 -97 87v25h245v-25c-80 -5 -97 -10 -97 -87v-384c0 -118 -81 -219 -250 -219
c-174 0 -280 74 -280 219v384c0 77 -17 82 -97 87v25h293v-25c-80 -5 -97 -10 -97 -87z" />
    <glyph glyph-name="Ucircumflex" unicode="&#xdb;" horiz-adv-x="766" 
d="M230 742l100 147c8 12 17 18 31 18h43c14 0 23 -6 30 -18l100 -147h-41l-111 106l-111 -106h-41zM217 588v-382c0 -122 83 -175 198 -175c99 0 182 55 182 173v384c0 77 -17 82 -97 87v25h245v-25c-80 -5 -97 -10 -97 -87v-384c0 -118 -81 -219 -250 -219
c-174 0 -280 74 -280 219v384c0 77 -17 82 -97 87v25h293v-25c-80 -5 -97 -10 -97 -87z" />
    <glyph glyph-name="Ugrave" unicode="&#xd9;" horiz-adv-x="766" 
d="M217 588v-382c0 -122 83 -175 198 -175c99 0 182 55 182 173v384c0 77 -17 82 -97 87v25h245v-25c-80 -5 -97 -10 -97 -87v-384c0 -118 -81 -219 -250 -219c-174 0 -280 74 -280 219v384c0 77 -17 82 -97 87v25h293v-25c-80 -5 -97 -10 -97 -87zM340 888l92 -145h-41
l-133 117c-16 14 -21 20 -21 29s5 15 16 15h59c15 0 22 -6 28 -16z" />
    <glyph glyph-name="dotlessi" unicode="&#x131;" horiz-adv-x="276" 
d="M249 0h-223v25c55 5 68 16 68 52v258c0 24 -9 33 -31 33h-37v20l125 78h31v-389c0 -36 13 -47 67 -52v-25z" />
    <glyph glyph-name="circumflex" unicode="&#x2c6;" horiz-adv-x="516" 
d="M105 508l100 147c8 12 17 18 31 18h43c14 0 23 -6 30 -18l100 -147h-41l-111 106l-111 -106h-41z" />
    <glyph glyph-name="tilde" unicode="&#x2dc;" horiz-adv-x="516" 
d="M363 658h30c-5 -70 -39 -100 -82 -100c-48 0 -83 53 -119 53c-16 0 -33 -12 -38 -44h-32c5 70 39 100 82 100c48 0 84 -53 120 -53c17 0 34 12 39 44z" />
    <glyph glyph-name="macron" unicode="&#xaf;" horiz-adv-x="516" 
d="M132 579v52h251v-52h-251z" />
    <glyph glyph-name="breve" unicode="&#x2d8;" horiz-adv-x="516" 
d="M358 654h35c-10 -53 -55 -100 -135 -100c-81 0 -126 47 -136 100h37c10 -28 47 -45 99 -45c51 0 90 17 100 45z" />
    <glyph glyph-name="dotaccent" unicode="&#x2d9;" horiz-adv-x="498" 
d="M195 616c0 28 21 52 53 52c33 0 54 -24 54 -52c0 -27 -21 -51 -54 -51c-32 0 -53 24 -53 51z" />
    <glyph glyph-name="ring" unicode="&#x2da;" horiz-adv-x="498" 
d="M149 615c0 55 44 100 99 100c56 0 101 -45 101 -100c0 -53 -45 -99 -101 -99c-55 0 -99 46 -99 99zM188 615c0 -35 26 -62 60 -62c35 0 63 27 63 62s-28 62 -63 62c-34 0 -60 -27 -60 -62z" />
    <glyph glyph-name="cedilla" unicode="&#xb8;" horiz-adv-x="516" 
d="M313 -60c46 0 80 -22 80 -66c0 -45 -47 -93 -129 -93c-64 0 -106 28 -106 57c0 17 12 31 29 31c47 0 22 -56 83 -56c39 0 60 21 60 48c0 20 -17 35 -41 35c-17 0 -30 -4 -41 -14l-24 10l45 108h43l-28 -65c8 3 15 5 29 5z" />
    <glyph glyph-name="hungarumlaut" unicode="&#x2dd;" horiz-adv-x="516" 
d="M156 509l39 141c5 15 10 20 26 20h50c11 0 18 -6 18 -15s-7 -18 -15 -29l-86 -117h-32zM293 509l41 141c4 15 9 20 25 20h49c11 0 18 -6 18 -15s-7 -18 -15 -29l-86 -117h-32z" />
    <glyph glyph-name="ogonek" unicode="&#x2db;" horiz-adv-x="516" 
d="M331 0h45c-41 -21 -66 -57 -66 -95c0 -36 30 -62 62 -62s53 18 68 45l30 -16c-24 -47 -60 -73 -118 -73c-61 0 -108 34 -108 90c0 48 37 86 87 111z" />
    <glyph glyph-name="caron" unicode="&#x2c7;" horiz-adv-x="516" 
d="M205 526l-100 147h41l111 -106l111 106h41l-100 -147c-7 -11 -16 -18 -30 -18h-43c-14 0 -23 7 -31 18z" />
    <glyph glyph-name="zero.pl" horiz-adv-x="557" 
d="M34 350c0 208 82 365 245 365s245 -157 245 -365s-82 -365 -245 -365s-245 157 -245 365zM139 350c0 -187 23 -321 140 -321s140 134 140 321c0 188 -23 322 -140 322s-140 -134 -140 -322z" />
    <glyph glyph-name="one.pl" horiz-adv-x="352" 
d="M321 0h-290v25c80 5 97 11 97 87v453c0 24 -9 32 -31 32h-65v21l155 97h37v-603c0 -76 17 -82 97 -87v-25z" />
    <glyph glyph-name="two.pl" horiz-adv-x="511" 
d="M81 497h-49c0 138 95 218 211 218c128 0 219 -84 219 -203c0 -159 -148 -291 -317 -420h248c34 0 45 4 60 87h27l-24 -201h-27c0 9 -3 22 -17 22h-372v44c147 136 317 293 317 468c0 100 -42 158 -129 158c-81 0 -147 -54 -147 -173z" />
    <glyph glyph-name="three.pl" horiz-adv-x="525" 
d="M459 559c0 -76 -46 -134 -123 -157c88 -16 156 -94 156 -182c0 -132 -94 -235 -265 -235c-95 0 -197 33 -197 103c0 30 22 52 49 52c82 0 65 -110 152 -110c117 0 156 71 156 166c0 87 -57 167 -171 167h-18v44h24c91 0 132 67 132 137c0 65 -35 126 -116 126
c-71 0 -131 -46 -137 -141h-49c11 112 82 186 204 186c135 0 203 -80 203 -156z" />
    <glyph glyph-name="four.pl" horiz-adv-x="554" 
d="M409 0h-96v180h-282v34l302 486h76v-475h114v-45h-114v-180zM313 582l-223 -357h223v357z" />
    <glyph glyph-name="five.pl" horiz-adv-x="514" 
d="M222 464c164 0 260 -110 260 -239c0 -128 -92 -240 -254 -240c-95 0 -204 33 -204 103c0 30 22 52 47 52c82 0 73 -110 164 -110c108 0 164 69 164 166c0 99 -77 171 -189 171c-47 0 -95 -10 -134 -31l-25 10l52 354h284c17 0 26 8 28 22h27l-13 -113h-295l-23 -164
c29 12 70 19 111 19z" />
    <glyph glyph-name="six.pl" horiz-adv-x="557" 
d="M467 715v-42c-168 -19 -279 -106 -315 -266c36 24 89 44 139 44c153 0 233 -116 233 -234c0 -121 -99 -232 -245 -232c-154 0 -245 128 -245 308c0 252 193 402 433 422zM274 406c-46 0 -97 -21 -131 -53c-3 -23 -4 -47 -4 -72c0 -147 29 -252 140 -252
c96 0 140 81 140 188c0 105 -48 189 -145 189z" />
    <glyph glyph-name="seven.pl" horiz-adv-x="482" 
d="M235 0h-105c23 215 125 435 256 609h-281c-34 0 -45 -5 -60 -87h-27l23 200h27c0 -9 3 -22 17 -22h380v-43c-142 -198 -209 -419 -230 -657z" />
    <glyph glyph-name="eight.pl" horiz-adv-x="557" 
d="M495 556c0 -93 -60 -137 -132 -171c84 -37 161 -87 161 -203c0 -111 -87 -197 -249 -197c-159 0 -241 95 -241 182c0 102 68 152 148 189c-66 35 -118 85 -118 184c0 71 61 175 226 175c132 0 205 -78 205 -159zM102 171c0 -72 50 -143 170 -143c119 0 159 70 159 129
c0 104 -100 133 -194 173c-73 -33 -135 -73 -135 -159zM158 560c0 -85 69 -117 148 -150c69 31 127 67 127 142c0 68 -45 120 -137 120c-86 0 -138 -41 -138 -112z" />
    <glyph glyph-name="nine.pl" horiz-adv-x="557" 
d="M91 -15v43c168 18 279 104 315 265c-37 -24 -89 -44 -139 -44c-152 0 -233 116 -233 234c0 122 100 232 245 232c155 0 245 -128 245 -308c0 -252 -193 -402 -433 -422zM284 294c45 0 97 21 131 52c2 23 4 47 4 73c0 148 -29 253 -140 253c-95 0 -140 -82 -140 -189
c0 -105 48 -189 145 -189z" />
    <glyph glyph-name="zero.os" horiz-adv-x="578" 
d="M44 258c0 134 82 273 245 273s245 -139 245 -273s-82 -273 -245 -273s-245 139 -245 273zM149 258c0 -120 23 -230 140 -230s140 110 140 230c0 121 -23 230 -140 230s-140 -109 -140 -230z" />
    <glyph glyph-name="one.os" horiz-adv-x="578" 
d="M464 0h-350v25c102 5 127 11 127 87v269c0 24 -9 32 -31 32h-96v21l186 97h37v-419c0 -76 26 -82 127 -87v-25z" />
    <glyph glyph-name="one.os.a1" horiz-adv-x="578" 
d="M241 112v292c0 77 -27 82 -127 87v25h350v-25c-101 -5 -127 -10 -127 -87v-292c0 -76 26 -82 127 -87v-25h-350v25c102 5 127 11 127 87z" />
    <glyph glyph-name="two.os" horiz-adv-x="578" 
d="M99 313h-49c0 138 96 218 214 218c127 0 214 -64 214 -163c0 -123 -130 -213 -285 -281h219c35 0 45 4 61 87h27l-24 -196h-27c0 9 -3 22 -17 22h-374v51c160 91 317 186 317 315c0 70 -39 117 -128 117c-83 0 -148 -56 -148 -170z" />
    <glyph glyph-name="three.os" horiz-adv-x="578" 
d="M474 375c0 -76 -46 -133 -122 -157c87 -16 155 -94 155 -182c0 -132 -93 -235 -264 -235c-96 0 -197 33 -197 102c0 31 21 52 49 52c81 0 65 -109 151 -109c117 0 156 70 156 166c0 87 -56 167 -170 167h-18v44h23c91 0 132 67 132 137c0 65 -35 126 -116 126
c-71 0 -130 -46 -137 -141h-49c11 112 82 186 204 186c136 0 203 -80 203 -156z" />
    <glyph glyph-name="four.os" horiz-adv-x="578" 
d="M421 -184h-96v184h-282v34l299 482h79v-471h114v-45h-114v-184zM325 402l-223 -357h223v357z" />
    <glyph glyph-name="five.os" horiz-adv-x="578" 
d="M247 280c165 0 260 -110 260 -239c0 -128 -91 -240 -253 -240c-95 0 -205 33 -205 102c0 31 22 52 48 52c81 0 72 -109 164 -109c108 0 163 68 163 166c0 99 -76 171 -189 171c-47 0 -94 -10 -133 -31l-26 10l52 354h284c17 0 27 8 29 22h27l-14 -113h-295l-22 -164
c28 12 69 19 110 19z" />
    <glyph glyph-name="six.os" horiz-adv-x="578" 
d="M477 715v-42c-168 -19 -279 -106 -315 -266c36 24 89 44 139 44c153 0 233 -116 233 -234c0 -121 -99 -232 -245 -232c-154 0 -245 128 -245 308c0 252 193 402 433 422zM284 406c-46 0 -97 -21 -131 -53c-3 -23 -4 -47 -4 -72c0 -147 29 -252 140 -252
c96 0 140 81 140 188c0 105 -48 189 -145 189z" />
    <glyph glyph-name="seven.os" horiz-adv-x="578" 
d="M279 -184h-105c23 215 125 435 256 609h-281c-34 0 -45 -5 -60 -87h-27l23 200h27c0 -9 3 -22 17 -22h380v-43c-142 -198 -209 -419 -230 -657z" />
    <glyph glyph-name="eight.os" horiz-adv-x="578" 
d="M505 556c0 -93 -60 -137 -132 -171c84 -37 161 -87 161 -203c0 -111 -87 -197 -249 -197c-159 0 -241 95 -241 182c0 102 68 152 148 189c-66 35 -118 85 -118 184c0 71 61 175 226 175c132 0 205 -78 205 -159zM112 171c0 -72 50 -143 170 -143c119 0 159 70 159 129
c0 104 -100 133 -194 173c-73 -33 -135 -73 -135 -159zM168 560c0 -85 69 -117 148 -150c69 31 127 67 127 142c0 68 -45 120 -137 120c-86 0 -138 -41 -138 -112z" />
    <glyph glyph-name="nine.os" horiz-adv-x="578" 
d="M101 -199v42c168 19 279 106 315 266c-37 -24 -89 -44 -139 -44c-152 0 -233 116 -233 234c0 122 100 232 245 232c155 0 245 -128 245 -308c0 -252 -193 -402 -433 -422zM294 110c45 0 97 21 131 52c2 23 4 47 4 73c0 148 -29 253 -140 253c-95 0 -140 -82 -140 -189
c0 -105 48 -189 145 -189z" />
    <glyph glyph-name="zero.p.os" horiz-adv-x="557" 
d="M34 258c0 134 82 273 245 273s245 -139 245 -273s-82 -273 -245 -273s-245 139 -245 273zM139 258c0 -120 23 -230 140 -230s140 110 140 230c0 121 -23 230 -140 230s-140 -109 -140 -230z" />
    <glyph glyph-name="one.p.os" horiz-adv-x="352" 
d="M321 0h-290v25c80 5 97 11 97 87v269c0 24 -9 32 -31 32h-66v21l156 97h37v-419c0 -76 17 -82 97 -87v-25z" />
    <glyph glyph-name="one.p.os.a1" horiz-adv-x="352" 
d="M128 112v292c0 77 -17 82 -97 87v25h290v-25c-80 -5 -97 -10 -97 -87v-292c0 -76 17 -82 97 -87v-25h-290v25c80 5 97 11 97 87z" />
    <glyph glyph-name="two.p.os" horiz-adv-x="512" 
d="M81 313h-49c0 138 96 218 214 218c127 0 214 -64 214 -163c0 -123 -130 -213 -285 -281h219c35 0 45 4 61 87h27l-24 -196h-27c0 9 -3 22 -17 22h-374v51c160 91 317 186 317 315c0 70 -39 117 -128 117c-83 0 -148 -56 -148 -170z" />
    <glyph glyph-name="three.p.os" horiz-adv-x="525" 
d="M458 375c0 -76 -46 -133 -122 -157c87 -16 155 -94 155 -182c0 -132 -93 -235 -264 -235c-96 0 -197 33 -197 102c0 31 21 52 49 52c81 0 65 -109 151 -109c117 0 156 70 156 166c0 87 -56 167 -170 167h-18v44h23c91 0 132 67 132 137c0 65 -35 126 -116 126
c-71 0 -130 -46 -137 -141h-49c11 112 82 186 204 186c136 0 203 -80 203 -156z" />
    <glyph glyph-name="four.p.os" horiz-adv-x="536" 
d="M400 -184h-96v184h-282v34l299 482h79v-471h114v-45h-114v-184zM304 402l-223 -357h223v357z" />
    <glyph glyph-name="five.p.os" horiz-adv-x="515" 
d="M222 280c165 0 260 -110 260 -239c0 -128 -91 -240 -253 -240c-95 0 -205 33 -205 102c0 31 22 52 48 52c81 0 72 -109 164 -109c108 0 163 68 163 166c0 99 -76 171 -189 171c-47 0 -94 -10 -133 -31l-26 10l52 354h284c17 0 27 8 29 22h27l-14 -113h-295l-22 -164
c28 12 69 19 110 19z" />
    <glyph glyph-name="six.p.os" horiz-adv-x="557" 
d="M467 715v-42c-168 -19 -279 -106 -315 -266c36 24 89 44 139 44c153 0 233 -116 233 -234c0 -121 -99 -232 -245 -232c-154 0 -245 128 -245 308c0 252 193 402 433 422zM274 406c-46 0 -97 -21 -131 -53c-3 -23 -4 -47 -4 -72c0 -147 29 -252 140 -252
c96 0 140 81 140 188c0 105 -48 189 -145 189z" />
    <glyph glyph-name="seven.p.os" horiz-adv-x="482" 
d="M235 -184h-105c23 215 125 435 256 609h-281c-34 0 -45 -5 -60 -87h-27l23 200h27c0 -9 3 -22 17 -22h380v-43c-142 -198 -209 -419 -230 -657z" />
    <glyph glyph-name="eight.p.os" horiz-adv-x="557" 
d="M495 556c0 -93 -60 -137 -132 -171c84 -37 161 -87 161 -203c0 -111 -87 -197 -249 -197c-159 0 -241 95 -241 182c0 102 68 152 148 189c-66 35 -118 85 -118 184c0 71 61 175 226 175c132 0 205 -78 205 -159zM102 171c0 -72 50 -143 170 -143c119 0 159 70 159 129
c0 104 -100 133 -194 173c-73 -33 -135 -73 -135 -159zM158 560c0 -85 69 -117 148 -150c69 31 127 67 127 142c0 68 -45 120 -137 120c-86 0 -138 -41 -138 -112z" />
    <glyph glyph-name="nine.p.os" horiz-adv-x="557" 
d="M91 -199v42c168 19 279 106 315 266c-37 -24 -89 -44 -139 -44c-152 0 -233 116 -233 234c0 122 100 232 245 232c155 0 245 -128 245 -308c0 -252 -193 -402 -433 -422zM284 110c45 0 97 21 131 52c2 23 4 47 4 73c0 148 -29 253 -140 253c-95 0 -140 -82 -140 -189
c0 -105 48 -189 145 -189z" />
    <glyph glyph-name="A.s1" horiz-adv-x="898" 
d="M283 700h314l229 -602c17 -47 37 -68 84 -73v-25h-260v25c75 5 92 20 76 62l-49 128h-274l-48 -128c-14 -38 9 -57 86 -62v-25h-221v25c50 3 74 26 90 68l195 516c13 33 -2 47 -29 47h-193c-144 0 -233 -71 -233 -186c0 -81 56 -142 120 -142c35 0 55 13 55 38
c0 20 -20 36 -20 65c0 38 26 60 59 60c41 0 63 -35 63 -73c0 -81 -64 -136 -150 -136c-104 0 -177 77 -177 188c0 126 102 230 283 230zM539 573l-119 -314h240z" />
    <glyph glyph-name="A.s2" horiz-adv-x="898" 
d="M283 728c97 0 185 -28 289 -28h26l229 -602c17 -47 37 -68 84 -73v-25h-260v25c75 5 92 20 76 62l-49 128h-274l-48 -128c-15 -38 9 -57 86 -62v-25h-221v25c49 3 74 26 89 68l192 507c15 41 1 50 -27 58c-48 14 -133 26 -192 26c-144 0 -233 -72 -233 -187
c0 -81 56 -141 120 -141c35 0 55 13 55 37c0 21 -20 36 -20 65c0 38 26 61 59 61c41 0 63 -35 63 -74c0 -81 -64 -135 -150 -135c-104 0 -177 76 -177 187c0 127 102 231 283 231zM540 573l-119 -314h240z" />
    <glyph glyph-name="A.s3" horiz-adv-x="665" 
d="M308 700h57l229 -602c17 -47 37 -68 84 -73v-25h-260v25c75 5 92 20 76 62l-57 146c-24 -27 -63 -46 -113 -46c-49 0 -97 27 -145 46l-55 -146c-15 -38 8 -57 85 -62v-25h-222v25c50 5 75 26 90 68l59 155c-14 4 -27 6 -40 6c-36 0 -63 -12 -98 -41l-21 21
c34 46 87 79 155 79c9 0 18 -1 27 -2zM307 572l-103 -274c48 -19 93 -47 153 -47c26 0 48 5 68 15z" />
    <glyph glyph-name="A.s4" horiz-adv-x="800" 
d="M442 700h58l229 -602c17 -47 37 -68 84 -73v-25h-260v25c75 5 91 20 75 62c-38 100 -148 194 -284 229l-86 -229c-14 -38 9 -57 86 -62v-25h-222v25c50 5 74 26 90 68l88 232c-22 4 -45 6 -67 6c-97 0 -136 -32 -136 -60c0 -26 20 -33 20 -64c0 -28 -22 -54 -56 -54
c-35 0 -61 34 -61 73c0 83 91 149 233 149c28 0 56 -3 83 -7zM441 572l-81 -214c82 -22 153 -65 209 -118z" />
    <glyph glyph-name="A.s5" horiz-adv-x="875" 
d="M174 375c81 0 138 -32 196 -62l148 387h57l229 -602c17 -47 37 -68 84 -73v-25h-260v25c75 5 92 20 76 62l-58 150c-36 -19 -90 -40 -142 -40c-47 0 -86 8 -121 21l-49 -131c-15 -38 8 -57 85 -62v-25h-221v25c49 5 74 26 89 68l54 142c-75 37 -129 86 -202 86
c-48 0 -75 -33 -75 -62c0 -53 78 -46 78 -105c0 -30 -24 -53 -55 -53c-44 0 -87 43 -87 117c0 100 80 157 174 157zM517 572l-106 -280c40 -18 83 -31 136 -31c35 0 61 6 83 16z" />
    <glyph glyph-name="A.s6" horiz-adv-x="665" 
d="M308 700h57l229 -602c17 -47 37 -68 84 -73v-25h-260v25c75 5 92 20 76 62l-50 128h-272c-130 -329 -248 -449 -437 -449c-108 0 -184 53 -184 110c0 30 24 55 56 55c77 0 60 -112 149 -112c139 0 255 98 389 453zM307 572l-118 -313h238z" />
    <glyph glyph-name="A.s7" horiz-adv-x="800" 
d="M443 700h57l229 -602c17 -47 37 -68 84 -73v-25h-260v25c75 5 91 20 75 62c-38 100 -148 194 -283 229l-25 -68c-135 -354 -255 -482 -451 -482c-107 0 -183 53 -183 110c0 30 24 55 55 55c78 0 61 -112 149 -112c140 0 256 98 390 453l20 53c-22 4 -44 6 -67 6
c-97 0 -136 -32 -136 -60c0 -26 20 -33 20 -64c0 -28 -22 -54 -56 -54c-35 0 -61 34 -61 73c0 83 91 149 233 149c28 0 56 -3 83 -7zM441 572l-80 -214c81 -22 153 -65 208 -118z" />
    <glyph glyph-name="A.s8" horiz-adv-x="898" 
d="M910 0h-260v25c75 5 92 20 76 62l-49 128h-273c-130 -329 -247 -449 -437 -449c-108 0 -184 53 -184 110c0 30 24 55 56 55c77 0 60 -112 149 -112c140 0 255 98 390 453l124 328c16 42 4 56 -26 56h-193c-144 0 -233 -71 -233 -186c0 -81 56 -142 120 -142
c35 0 55 13 55 38c0 20 -20 36 -20 65c0 38 26 60 59 60c41 0 63 -35 63 -73c0 -81 -64 -136 -150 -136c-104 0 -177 77 -177 188c0 126 102 230 283 230h314l229 -602c17 -47 37 -68 84 -73v-25zM540 571l-119 -312h239z" />
    <glyph glyph-name="A.s9" horiz-adv-x="1089" 
d="M732 700h57l229 -602c17 -47 37 -68 84 -73v-25h-260v25c75 5 92 20 76 62l-50 128h-273c-71 -170 -163 -283 -343 -283c-140 0 -266 82 -266 236c0 127 88 197 179 197c104 0 157 -68 157 -136c0 -46 -26 -78 -66 -78c-30 0 -58 21 -58 53c0 37 27 43 27 72
c0 23 -27 41 -68 41c-60 0 -121 -53 -121 -149c0 -122 103 -191 216 -191c153 0 241 96 320 304zM731 572l-118 -313h238z" />
    <glyph glyph-name="A.s10" horiz-adv-x="1259" 
d="M1011 25c75 5 92 20 76 62l-50 128h-272c-129 -329 -264 -444 -451 -444c-188 0 -313 128 -313 304c0 182 148 302 288 302s230 -96 230 -196c0 -86 -46 -133 -98 -133c-37 0 -64 26 -64 61c0 60 82 49 82 109c0 62 -69 114 -150 114c-115 0 -241 -102 -241 -258
c0 -161 114 -258 265 -258c165 0 292 101 426 456l162 428h57l231 -604c16 -45 35 -66 82 -71v-25h-260v25zM900 572l-118 -313h238z" />
    <glyph glyph-name="A.s11" horiz-adv-x="1354" 
d="M1182 87l-50 128h-272c-121 -301 -313 -419 -534 -418c-169 0 -326 103 -326 259c0 138 108 242 248 242c130 0 233 -72 233 -153c0 -31 -19 -61 -59 -61c-44 0 -64 36 -73 83c-9 42 -20 86 -107 86c-104 0 -196 -87 -196 -197c0 -132 134 -215 280 -215
c207 0 386 115 497 406l139 364c10 27 6 39 -32 49c-87 24 -174 39 -264 39c-159 0 -221 -68 -221 -152c0 -53 33 -108 100 -108c84 0 45 118 129 118c37 0 60 -30 60 -61c0 -62 -67 -111 -158 -111c-117 0 -180 76 -180 162c0 102 76 197 270 197c149 0 263 -44 353 -44h34
l224 -588c22 -61 42 -82 89 -87v-25h-260v25c80 5 90 26 76 62zM995 572l-119 -313h239z" />
    <glyph glyph-name="A.a1" horiz-adv-x="699" 
d="M508 700h64v-588c0 -76 17 -82 97 -87v-25h-294v25c80 5 98 11 98 87v105h-246l-75 -109c-35 -49 -2 -78 61 -83v-25h-229v25c37 1 75 30 115 87zM473 570l-214 -308h214v308z" />
    <glyph glyph-name="A.s12" horiz-adv-x="888" 
d="M283 700h478v-588c0 -76 17 -82 97 -87v-25h-294v25c80 5 98 11 98 87v105h-246l-75 -109c-35 -49 -2 -78 61 -83v-25h-229v25c37 1 75 30 115 87l343 493c23 34 -1 50 -30 50l-318 1c-144 0 -233 -71 -233 -186c0 -81 56 -142 120 -142c35 0 55 13 55 38
c0 20 -20 36 -20 65c0 38 26 60 59 60c41 0 63 -35 63 -73c0 -81 -64 -136 -150 -136c-104 0 -177 77 -177 188c0 126 102 230 283 230zM662 570l-214 -308h214v308z" />
    <glyph glyph-name="A.s13" horiz-adv-x="809" 
d="M618 700h63v-588c0 -76 18 -82 98 -87v-25h-294v25c73 4 94 10 97 69c-15 83 -75 179 -163 241l-158 -227c-34 -49 -1 -78 62 -83v-25h-229v25c37 1 75 30 115 87l172 247c-48 26 -102 42 -161 42c-84 0 -123 -31 -123 -59c0 -27 20 -33 20 -65c0 -28 -22 -53 -56 -53
c-35 0 -61 34 -61 73c0 82 91 149 220 149c70 0 133 -18 187 -49zM583 570l-138 -198c60 -43 107 -100 138 -163v361z" />
    <glyph glyph-name="A.s14" horiz-adv-x="871" 
d="M174 375c95 0 157 -44 227 -78l279 403h64v-588c0 -76 17 -82 97 -87v-25h-294v25c81 5 98 11 98 87v125c-36 -19 -89 -40 -141 -40c-41 0 -76 6 -107 16l-73 -105c-34 -49 -2 -78 62 -83v-25h-230v25c37 1 76 30 116 87l82 118c-82 36 -138 91 -215 91
c-48 0 -75 -33 -75 -62c0 -53 78 -46 78 -105c0 -30 -24 -53 -55 -53c-44 0 -87 43 -87 117c0 100 80 157 174 157zM645 570l-202 -291c31 -11 65 -18 104 -18c43 0 71 8 98 23v286z" />
    <glyph glyph-name="A.s15" horiz-adv-x="1369" 
d="M1339 0h-293v25c80 5 97 11 97 87v105h-243l-90 -131c-144 -207 -300 -289 -481 -289c-212 0 -329 118 -329 264c0 138 121 215 222 215c61 0 115 -28 115 -82c0 -35 -27 -62 -62 -62c-63 0 -56 67 -115 67c-49 0 -110 -50 -110 -138c0 -127 112 -220 279 -220
c156 0 308 74 442 269l407 590h64v-588c0 -76 17 -82 97 -87v-25zM1143 572l-212 -310h212v310z" />
    <glyph glyph-name="A.s16" horiz-adv-x="1367" 
d="M1337 0h-294v25c81 5 98 11 98 87v105h-244l-90 -131c-145 -209 -293 -289 -476 -289c-201 0 -331 136 -331 311c0 182 147 294 287 294c132 0 226 -86 226 -192c0 -85 -42 -131 -99 -131c-37 0 -65 26 -65 59c0 71 84 44 84 114c0 59 -54 105 -146 105
c-115 0 -237 -94 -237 -249c0 -154 123 -267 281 -267s303 74 438 269l407 590h64v-588c0 -76 17 -82 97 -87v-25zM1141 572l-213 -310h213v310z" />
    <glyph glyph-name="A.s17" horiz-adv-x="1369" 
d="M765 700h477v-588c0 -76 17 -82 97 -87v-25h-293v25c80 5 97 11 97 87v105h-243l-90 -131c-144 -207 -300 -289 -481 -289c-212 0 -329 118 -329 264c0 138 121 215 222 215c61 0 115 -28 115 -82c0 -35 -27 -62 -62 -62c-63 0 -56 67 -115 67c-49 0 -110 -50 -110 -138
c0 -127 112 -220 279 -220c156 0 308 74 442 269l338 489c27 40 4 56 -27 56l-317 1c-144 0 -234 -71 -234 -186c0 -81 56 -142 120 -142c35 0 55 13 55 38c0 20 -19 36 -19 65c0 38 25 60 58 60c41 0 63 -35 63 -73c0 -81 -64 -136 -150 -136c-104 0 -176 77 -176 188
c0 126 102 230 283 230zM1143 572l-212 -310h212v310z" />
    <glyph glyph-name="A.s18" horiz-adv-x="1367" 
d="M1337 0h-294v25c81 5 98 11 98 87v105h-244l-90 -131c-145 -209 -293 -289 -476 -289c-201 0 -331 136 -331 311c0 182 147 294 287 294c132 0 226 -86 226 -192c0 -85 -42 -130 -99 -130c-37 0 -65 25 -65 58c0 71 84 44 84 114c0 59 -54 105 -146 105
c-115 0 -237 -94 -237 -249c0 -154 123 -267 281 -267s303 74 438 269l337 489c27 40 4 56 -26 56l-275 1c-144 0 -233 -71 -233 -186c0 -81 55 -142 119 -142c35 0 56 13 56 38c0 20 -20 36 -20 65c0 38 26 60 58 60c42 0 64 -35 64 -73c0 -81 -64 -136 -151 -136
c-104 0 -176 77 -176 188c0 126 102 230 283 230h435v-588c0 -76 17 -82 97 -87v-25zM1141 572l-213 -310h213v310z" />
    <glyph glyph-name="A.s19" horiz-adv-x="1369" 
d="M1178 700h64v-588c0 -76 17 -82 97 -87v-25h-293v25c76 5 95 10 97 76c-18 82 -77 174 -162 234l-171 -249c-144 -207 -300 -289 -481 -289c-212 0 -329 118 -329 264c0 138 121 215 222 215c61 0 115 -28 115 -82c0 -35 -27 -62 -62 -62c-63 0 -56 67 -115 67
c-49 0 -110 -50 -110 -138c0 -127 112 -220 279 -220c156 0 308 74 442 269l172 249c-48 26 -103 42 -162 42c-84 0 -122 -31 -122 -59c0 -27 19 -33 19 -65c0 -28 -21 -53 -55 -53c-36 0 -61 34 -61 73c0 82 90 149 219 149c70 0 133 -19 188 -49zM1143 572l-136 -199
c59 -43 105 -99 136 -161v360z" />
    <glyph glyph-name="A.s20" horiz-adv-x="1367" 
d="M1337 0h-294v25c76 4 96 10 98 74c-16 91 -65 191 -151 253l-183 -266c-145 -209 -293 -289 -476 -289c-201 0 -331 136 -331 311c0 182 147 294 287 294c132 0 226 -86 226 -192c0 -85 -42 -130 -99 -130c-37 0 -65 25 -65 58c0 71 84 44 84 114c0 59 -54 105 -146 105
c-115 0 -237 -94 -237 -249c0 -154 123 -267 281 -267s303 74 438 269l183 266c-44 23 -96 37 -157 37c-84 0 -123 -31 -123 -58c0 -28 20 -34 20 -66c0 -28 -21 -53 -55 -53c-36 0 -62 34 -62 73c0 82 91 149 220 149c71 0 132 -17 183 -45l198 287h64v-588
c0 -76 17 -82 97 -87v-25zM1141 572l-125 -182c56 -41 98 -98 125 -161v343z" />
    <glyph glyph-name="A.s21" horiz-adv-x="946" 
d="M927 0h-293v25c80 5 97 11 97 87v140h-288c-15 -36 -30 -73 -46 -109c-52 -124 -121 -173 -227 -173c-109 0 -170 49 -170 100c0 32 23 56 55 56c75 0 53 -104 137 -104c52 0 115 25 163 136c122 271 196 568 475 542v-588c0 -76 17 -82 97 -87v-25zM731 645
c-127 -24 -198 -175 -270 -348h270v348z" />
    <glyph glyph-name="A.s22" horiz-adv-x="946" 
d="M927 0h-293v25c73 4 93 10 96 70c-22 124 -100 244 -229 294c-35 -76 -68 -162 -104 -246c-52 -124 -121 -173 -227 -173c-109 0 -170 49 -170 100c0 32 23 56 55 56c75 0 53 -104 137 -104c52 0 115 25 163 136c37 82 69 166 105 244c-30 7 -62 12 -96 12
c-84 0 -122 -32 -122 -60c0 -26 19 -33 19 -64c0 -28 -21 -54 -55 -54c-36 0 -61 34 -61 73c0 83 90 149 219 149c41 0 79 -6 115 -16c77 158 171 274 351 258v-588c0 -76 17 -82 97 -87v-25zM520 429c97 -40 169 -116 211 -210v426c-93 -18 -156 -104 -211 -216z" />
    <glyph glyph-name="A.s23" horiz-adv-x="1295" 
d="M1179 700v-588c0 -76 17 -82 97 -87v-25h-293v25c80 5 97 11 97 87v140h-285c-15 -37 -30 -74 -45 -109c-98 -226 -243 -343 -431 -343c-205 0 -317 116 -317 263c0 139 121 216 222 216c61 0 115 -28 115 -82c0 -35 -27 -62 -62 -62c-63 0 -56 67 -115 67
c-49 0 -110 -50 -110 -139c0 -126 103 -219 268 -219c161 0 293 107 384 314c121 271 196 568 475 542zM1080 645c-126 -27 -199 -184 -267 -348h267v348z" />
    <glyph glyph-name="A.s24" horiz-adv-x="1295" 
d="M1179 700v-588c0 -76 17 -82 97 -87v-25h-293v25c72 4 93 9 96 65c-19 109 -105 225 -231 288c-34 -77 -65 -160 -98 -235c-98 -226 -243 -343 -431 -343c-205 0 -317 116 -317 263c0 139 121 216 222 216c61 0 115 -28 115 -82c0 -35 -27 -62 -62 -62
c-63 0 -56 67 -115 67c-49 0 -110 -50 -110 -139c0 -126 103 -219 268 -219c161 0 293 107 384 314c36 80 67 163 102 239c-50 19 -105 30 -163 30c-84 0 -123 -32 -123 -60c0 -26 20 -33 20 -64c0 -28 -21 -54 -55 -54c-36 0 -62 34 -62 73c0 83 91 149 220 149
c66 0 127 -12 182 -33c78 159 173 279 354 262zM867 419c96 -48 170 -125 213 -213v439c-93 -20 -158 -112 -213 -226z" />
    <glyph glyph-name="A.s25" horiz-adv-x="1308" 
d="M1288 0h-293v25c80 5 97 11 97 87v140h-284c-15 -37 -30 -74 -45 -109c-101 -232 -245 -346 -432 -346c-201 0 -331 136 -331 311c0 182 147 294 287 294c132 0 226 -86 226 -192c0 -85 -42 -130 -99 -130c-37 0 -65 25 -65 58c0 71 84 44 84 114c0 59 -54 105 -146 105
c-115 0 -237 -94 -237 -249c0 -154 123 -267 281 -267c180 0 298 118 385 317c121 271 197 568 475 542v-588c0 -76 17 -82 97 -87v-25zM1092 645c-125 -27 -198 -184 -266 -348h266v348z" />
    <glyph glyph-name="A.c1" horiz-adv-x="690" 
d="M465 81v2c-66 -49 -150 -98 -242 -98c-112 0 -192 60 -192 163c0 160 190 223 434 263v112c0 102 -30 147 -126 147c-79 0 -137 -52 -158 -132c-14 -48 -33 -69 -62 -69c-33 0 -53 23 -53 65c0 80 112 181 272 181c128 0 226 -43 226 -199v-423c0 -40 14 -59 45 -59
c14 0 31 3 52 12v-36c-29 -16 -62 -25 -105 -25c-54 0 -91 27 -91 96zM262 42c62 0 133 34 203 87v239c-198 -30 -326 -82 -326 -207c0 -76 51 -119 123 -119z" />
    <glyph glyph-name="A.XA.sx" horiz-adv-x="662" 
d="M308 700h57l229 -602c17 -47 37 -68 84 -73v-25h-260v25c75 5 92 20 76 62l-186 480l-181 -480c-14 -38 5 -57 82 -62v-25h-222v25c50 5 75 26 90 68z" />
    <glyph glyph-name="Aacute.s1" horiz-adv-x="898" 
d="M539 743l91 145c7 10 13 16 28 16h60c10 0 16 -6 16 -15s-6 -15 -21 -29l-134 -117h-40zM283 700h314l229 -602c17 -47 37 -68 84 -73v-25h-260v25c75 5 92 20 76 62l-49 128h-274l-48 -128c-14 -38 9 -57 86 -62v-25h-221v25c50 3 74 26 90 68l195 516
c13 33 -2 47 -29 47h-193c-144 0 -233 -71 -233 -186c0 -81 56 -142 120 -142c35 0 55 13 55 38c0 20 -20 36 -20 65c0 38 26 60 59 60c41 0 63 -35 63 -73c0 -81 -64 -136 -150 -136c-104 0 -177 77 -177 188c0 126 102 230 283 230zM539 573l-119 -314h240z" />
    <glyph glyph-name="Aacute.s2" horiz-adv-x="898" 
d="M539 743l91 145c7 10 13 16 28 16h60c10 0 16 -6 16 -15s-6 -15 -21 -29l-134 -117h-40zM283 728c97 0 185 -28 289 -28h26l229 -602c17 -47 37 -68 84 -73v-25h-260v25c75 5 92 20 76 62l-49 128h-274l-48 -128c-15 -38 9 -57 86 -62v-25h-221v25c49 3 74 26 89 68
l192 507c15 41 1 50 -27 58c-48 14 -133 26 -192 26c-144 0 -233 -72 -233 -187c0 -81 56 -141 120 -141c35 0 55 13 55 37c0 21 -20 36 -20 65c0 38 26 61 59 61c41 0 63 -35 63 -74c0 -81 -64 -135 -150 -135c-104 0 -177 76 -177 187c0 127 102 231 283 231zM540 573
l-119 -314h240z" />
    <glyph glyph-name="Aacute.s3" horiz-adv-x="665" 
d="M303 743l91 145c7 10 13 16 28 16h60c10 0 16 -6 16 -15s-6 -15 -21 -29l-134 -117h-40zM308 700h57l229 -602c17 -47 37 -68 84 -73v-25h-260v25c75 5 92 20 76 62l-57 146c-24 -27 -63 -46 -113 -46c-49 0 -97 27 -145 46l-55 -146c-15 -38 8 -57 85 -62v-25h-222v25
c50 5 75 26 90 68l59 155c-14 4 -27 6 -40 6c-36 0 -63 -12 -98 -41l-21 21c34 46 87 79 155 79c9 0 18 -1 27 -2zM307 572l-103 -274c48 -19 93 -47 153 -47c26 0 48 5 68 15z" />
    <glyph glyph-name="Aacute.s4" horiz-adv-x="800" 
d="M439 743l91 145c7 10 13 16 28 16h60c10 0 16 -6 16 -15s-6 -15 -21 -29l-134 -117h-40zM442 700h58l229 -602c17 -47 37 -68 84 -73v-25h-260v25c75 5 91 20 75 62c-38 100 -148 194 -284 229l-86 -229c-14 -38 9 -57 86 -62v-25h-222v25c50 5 74 26 90 68l88 232
c-22 4 -45 6 -67 6c-97 0 -136 -32 -136 -60c0 -26 20 -33 20 -64c0 -28 -22 -54 -56 -54c-35 0 -61 34 -61 73c0 83 91 149 233 149c28 0 56 -3 83 -7zM441 572l-81 -214c82 -22 153 -65 209 -118z" />
    <glyph glyph-name="Aacute.s5" horiz-adv-x="875" 
d="M517 743l91 145c7 10 13 16 28 16h60c10 0 16 -6 16 -15s-6 -15 -21 -29l-134 -117h-40zM174 375c81 0 138 -32 196 -62l148 387h57l229 -602c17 -47 37 -68 84 -73v-25h-260v25c75 5 92 20 76 62l-58 150c-36 -19 -90 -40 -142 -40c-47 0 -86 8 -121 21l-49 -131
c-15 -38 8 -57 85 -62v-25h-221v25c49 5 74 26 89 68l54 142c-75 37 -129 86 -202 86c-48 0 -75 -33 -75 -62c0 -53 78 -46 78 -105c0 -30 -24 -53 -55 -53c-44 0 -87 43 -87 117c0 100 80 157 174 157zM517 572l-106 -280c40 -18 83 -31 136 -31c35 0 61 6 83 16z" />
    <glyph glyph-name="Aacute.s6" horiz-adv-x="665" 
d="M306 743l91 145c7 10 13 16 28 16h60c10 0 16 -6 16 -15s-6 -15 -21 -29l-134 -117h-40zM308 700h57l229 -602c17 -47 37 -68 84 -73v-25h-260v25c75 5 92 20 76 62l-50 128h-272c-130 -329 -248 -449 -437 -449c-108 0 -184 53 -184 110c0 30 24 55 56 55
c77 0 60 -112 149 -112c139 0 255 98 389 453zM307 572l-118 -313h238z" />
    <glyph glyph-name="Aacute.s7" horiz-adv-x="800" 
d="M437 743l91 145c7 10 13 16 28 16h60c10 0 16 -6 16 -15s-6 -15 -21 -29l-134 -117h-40zM443 700h57l229 -602c17 -47 37 -68 84 -73v-25h-260v25c75 5 91 20 75 62c-38 100 -148 194 -283 229l-25 -68c-135 -354 -255 -482 -451 -482c-107 0 -183 53 -183 110
c0 30 24 55 55 55c78 0 61 -112 149 -112c140 0 256 98 390 453l20 53c-22 4 -44 6 -67 6c-97 0 -136 -32 -136 -60c0 -26 20 -33 20 -64c0 -28 -22 -54 -56 -54c-35 0 -61 34 -61 73c0 83 91 149 233 149c28 0 56 -3 83 -7zM441 572l-80 -214c81 -22 153 -65 208 -118z" />
    <glyph glyph-name="Aacute.s8" horiz-adv-x="898" 
d="M910 0h-260v25c75 5 92 20 76 62l-49 128h-273c-130 -329 -247 -449 -437 -449c-108 0 -184 53 -184 110c0 30 24 55 56 55c77 0 60 -112 149 -112c140 0 255 98 390 453l124 328c16 42 4 56 -26 56h-193c-144 0 -233 -71 -233 -186c0 -81 56 -142 120 -142
c35 0 55 13 55 38c0 20 -20 36 -20 65c0 38 26 60 59 60c41 0 63 -35 63 -73c0 -81 -64 -136 -150 -136c-104 0 -177 77 -177 188c0 126 102 230 283 230h314l229 -602c17 -47 37 -68 84 -73v-25zM540 571l-119 -312h239zM535 743l91 145c7 10 13 16 28 16h60
c10 0 16 -6 16 -15s-6 -15 -21 -29l-134 -117h-40z" />
    <glyph glyph-name="Aacute.s9" horiz-adv-x="1089" 
d="M731 743l91 145c7 10 13 16 28 16h60c10 0 16 -6 16 -15s-6 -15 -21 -29l-134 -117h-40zM732 700h57l229 -602c17 -47 37 -68 84 -73v-25h-260v25c75 5 92 20 76 62l-50 128h-273c-71 -170 -163 -283 -343 -283c-140 0 -266 82 -266 236c0 127 88 197 179 197
c104 0 157 -68 157 -136c0 -46 -26 -78 -66 -78c-30 0 -58 21 -58 53c0 37 27 43 27 72c0 23 -27 41 -68 41c-60 0 -121 -53 -121 -149c0 -122 103 -191 216 -191c153 0 241 96 320 304zM731 572l-118 -313h238z" />
    <glyph glyph-name="Aacute.s10" horiz-adv-x="1259" 
d="M899 743l91 145c7 10 13 16 28 16h60c10 0 16 -6 16 -15s-6 -15 -21 -29l-134 -117h-40zM1011 25c75 5 92 20 76 62l-50 128h-272c-129 -329 -264 -444 -451 -444c-188 0 -313 128 -313 304c0 182 148 302 288 302s230 -96 230 -196c0 -86 -46 -133 -98 -133
c-37 0 -64 26 -64 61c0 60 82 49 82 109c0 62 -69 114 -150 114c-115 0 -241 -102 -241 -258c0 -161 114 -258 265 -258c165 0 292 101 426 456l162 428h57l231 -604c16 -45 35 -66 82 -71v-25h-260v25zM900 572l-118 -313h238z" />
    <glyph glyph-name="Aacute.s11" horiz-adv-x="1354" 
d="M989 743l91 145c7 10 13 16 28 16h60c10 0 16 -6 16 -15s-6 -15 -21 -29l-134 -117h-40zM1182 87l-50 128h-272c-121 -301 -313 -419 -534 -418c-169 0 -326 103 -326 259c0 138 108 242 248 242c130 0 233 -72 233 -153c0 -31 -19 -61 -59 -61c-44 0 -64 36 -73 83
c-9 42 -20 86 -107 86c-104 0 -196 -87 -196 -197c0 -132 134 -215 280 -215c207 0 386 115 497 406l139 364c10 27 6 39 -32 49c-87 24 -174 39 -264 39c-159 0 -221 -68 -221 -152c0 -53 33 -108 100 -108c84 0 45 118 129 118c37 0 60 -30 60 -61
c0 -62 -67 -111 -158 -111c-117 0 -180 76 -180 162c0 102 76 197 270 197c149 0 263 -44 353 -44h34l224 -588c22 -61 42 -82 89 -87v-25h-260v25c80 5 90 26 76 62zM995 572l-119 -313h239z" />
    <glyph glyph-name="Aacute.a1" horiz-adv-x="699" 
d="M502 743l91 145c7 10 13 16 28 16h60c10 0 16 -6 16 -15s-6 -15 -21 -29l-134 -117h-40zM508 700h64v-588c0 -76 17 -82 97 -87v-25h-294v25c80 5 98 11 98 87v105h-246l-75 -109c-35 -49 -2 -78 61 -83v-25h-229v25c37 1 75 30 115 87zM473 570l-214 -308h214v308z" />
    <glyph glyph-name="Aacute.s12" horiz-adv-x="888" 
d="M283 700h478v-588c0 -76 17 -82 97 -87v-25h-294v25c80 5 98 11 98 87v105h-246l-75 -109c-35 -49 -2 -78 61 -83v-25h-229v25c37 1 75 30 115 87l343 493c23 34 -1 50 -30 50l-318 1c-144 0 -233 -71 -233 -186c0 -81 56 -142 120 -142c35 0 55 13 55 38
c0 20 -20 36 -20 65c0 38 26 60 59 60c41 0 63 -35 63 -73c0 -81 -64 -136 -150 -136c-104 0 -177 77 -177 188c0 126 102 230 283 230zM662 570l-214 -308h214v308zM692 743l91 145c7 10 13 16 28 16h60c10 0 16 -6 16 -15s-6 -15 -21 -29l-134 -117h-40z" />
    <glyph glyph-name="Aacute.s13" horiz-adv-x="809" 
d="M611 743l91 145c7 10 13 16 28 16h60c10 0 16 -6 16 -15s-6 -15 -21 -29l-134 -117h-40zM618 700h63v-588c0 -76 18 -82 98 -87v-25h-294v25c73 4 94 10 97 69c-15 83 -75 179 -163 241l-158 -227c-34 -49 -1 -78 62 -83v-25h-229v25c37 1 75 30 115 87l172 247
c-48 26 -102 42 -161 42c-84 0 -123 -31 -123 -59c0 -27 20 -33 20 -65c0 -28 -22 -53 -56 -53c-35 0 -61 34 -61 73c0 82 91 149 220 149c70 0 133 -18 187 -49zM583 570l-138 -198c60 -43 107 -100 138 -163v361z" />
    <glyph glyph-name="Aacute.s14" horiz-adv-x="871" 
d="M674 743l91 145c7 10 13 16 28 16h60c10 0 16 -6 16 -15s-6 -15 -21 -29l-134 -117h-40zM174 375c95 0 157 -44 227 -78l279 403h64v-588c0 -76 17 -82 97 -87v-25h-294v25c81 5 98 11 98 87v125c-36 -19 -89 -40 -141 -40c-41 0 -76 6 -107 16l-73 -105
c-34 -49 -2 -78 62 -83v-25h-230v25c37 1 76 30 116 87l82 118c-82 36 -138 91 -215 91c-48 0 -75 -33 -75 -62c0 -53 78 -46 78 -105c0 -30 -24 -53 -55 -53c-44 0 -87 43 -87 117c0 100 80 157 174 157zM645 570l-202 -291c31 -11 65 -18 104 -18c43 0 71 8 98 23v286z
" />
    <glyph glyph-name="Aacute.s15" horiz-adv-x="1369" 
d="M1173 743l91 145c7 10 13 16 28 16h60c10 0 16 -6 16 -15s-6 -15 -21 -29l-134 -117h-40zM1339 0h-293v25c80 5 97 11 97 87v105h-243l-90 -131c-144 -207 -300 -289 -481 -289c-212 0 -329 118 -329 264c0 138 121 215 222 215c61 0 115 -28 115 -82
c0 -35 -27 -62 -62 -62c-63 0 -56 67 -115 67c-49 0 -110 -50 -110 -138c0 -127 112 -220 279 -220c156 0 308 74 442 269l407 590h64v-588c0 -76 17 -82 97 -87v-25zM1143 572l-212 -310h212v310z" />
    <glyph glyph-name="Aacute.s16" horiz-adv-x="1367" 
d="M1168 743l91 145c7 10 13 16 28 16h60c10 0 16 -6 16 -15s-6 -15 -21 -29l-134 -117h-40zM1337 0h-294v25c81 5 98 11 98 87v105h-244l-90 -131c-145 -209 -293 -289 -476 -289c-201 0 -331 136 -331 311c0 182 147 294 287 294c132 0 226 -86 226 -192
c0 -85 -42 -131 -99 -131c-37 0 -65 26 -65 59c0 71 84 44 84 114c0 59 -54 105 -146 105c-115 0 -237 -94 -237 -249c0 -154 123 -267 281 -267s303 74 438 269l407 590h64v-588c0 -76 17 -82 97 -87v-25zM1141 572l-213 -310h213v310z" />
    <glyph glyph-name="Aacute.s17" horiz-adv-x="1369" 
d="M1169 743l91 145c7 10 13 16 28 16h60c10 0 16 -6 16 -15s-6 -15 -21 -29l-134 -117h-40zM765 700h477v-588c0 -76 17 -82 97 -87v-25h-293v25c80 5 97 11 97 87v105h-243l-90 -131c-144 -207 -300 -289 -481 -289c-212 0 -329 118 -329 264c0 138 121 215 222 215
c61 0 115 -28 115 -82c0 -35 -27 -62 -62 -62c-63 0 -56 67 -115 67c-49 0 -110 -50 -110 -138c0 -127 112 -220 279 -220c156 0 308 74 442 269l338 489c27 40 4 56 -27 56l-317 1c-144 0 -234 -71 -234 -186c0 -81 56 -142 120 -142c35 0 55 13 55 38c0 20 -19 36 -19 65
c0 38 25 60 58 60c41 0 63 -35 63 -73c0 -81 -64 -136 -150 -136c-104 0 -176 77 -176 188c0 126 102 230 283 230zM1143 572l-212 -310h212v310z" />
    <glyph glyph-name="Aacute.s18" horiz-adv-x="1367" 
d="M1168 743l91 145c7 10 13 16 28 16h60c10 0 16 -6 16 -15s-6 -15 -21 -29l-134 -117h-40zM1337 0h-294v25c81 5 98 11 98 87v105h-244l-90 -131c-145 -209 -293 -289 -476 -289c-201 0 -331 136 -331 311c0 182 147 294 287 294c132 0 226 -86 226 -192
c0 -85 -42 -130 -99 -130c-37 0 -65 25 -65 58c0 71 84 44 84 114c0 59 -54 105 -146 105c-115 0 -237 -94 -237 -249c0 -154 123 -267 281 -267s303 74 438 269l337 489c27 40 4 56 -26 56l-275 1c-144 0 -233 -71 -233 -186c0 -81 55 -142 119 -142c35 0 56 13 56 38
c0 20 -20 36 -20 65c0 38 26 60 58 60c42 0 64 -35 64 -73c0 -81 -64 -136 -151 -136c-104 0 -176 77 -176 188c0 126 102 230 283 230h435v-588c0 -76 17 -82 97 -87v-25zM1141 572l-213 -310h213v310z" />
    <glyph glyph-name="Aacute.s19" horiz-adv-x="1369" 
d="M1171 743l91 145c7 10 13 16 28 16h60c10 0 16 -6 16 -15s-6 -15 -21 -29l-134 -117h-40zM1178 700h64v-588c0 -76 17 -82 97 -87v-25h-293v25c76 5 95 10 97 76c-18 82 -77 174 -162 234l-171 -249c-144 -207 -300 -289 -481 -289c-212 0 -329 118 -329 264
c0 138 121 215 222 215c61 0 115 -28 115 -82c0 -35 -27 -62 -62 -62c-63 0 -56 67 -115 67c-49 0 -110 -50 -110 -138c0 -127 112 -220 279 -220c156 0 308 74 442 269l172 249c-48 26 -103 42 -162 42c-84 0 -122 -31 -122 -59c0 -27 19 -33 19 -65c0 -28 -21 -53 -55 -53
c-36 0 -61 34 -61 73c0 82 90 149 219 149c70 0 133 -19 188 -49zM1143 572l-136 -199c59 -43 105 -99 136 -161v360z" />
    <glyph glyph-name="Aacute.s20" horiz-adv-x="1367" 
d="M1168 743l91 145c7 10 13 16 28 16h60c10 0 16 -6 16 -15s-6 -15 -21 -29l-134 -117h-40zM1337 0h-294v25c76 4 96 10 98 74c-16 91 -65 191 -151 253l-183 -266c-145 -209 -293 -289 -476 -289c-201 0 -331 136 -331 311c0 182 147 294 287 294c132 0 226 -86 226 -192
c0 -85 -42 -130 -99 -130c-37 0 -65 25 -65 58c0 71 84 44 84 114c0 59 -54 105 -146 105c-115 0 -237 -94 -237 -249c0 -154 123 -267 281 -267s303 74 438 269l183 266c-44 23 -96 37 -157 37c-84 0 -123 -31 -123 -58c0 -28 20 -34 20 -66c0 -28 -21 -53 -55 -53
c-36 0 -62 34 -62 73c0 82 91 149 220 149c71 0 132 -17 183 -45l198 287h64v-588c0 -76 17 -82 97 -87v-25zM1141 572l-125 -182c56 -41 98 -98 125 -161v343z" />
    <glyph glyph-name="Aacute.s21" horiz-adv-x="946" 
d="M751 743l91 145c7 10 13 16 28 16h60c10 0 16 -6 16 -15s-6 -15 -21 -29l-134 -117h-40zM927 0h-293v25c80 5 97 11 97 87v140h-288c-15 -36 -30 -73 -46 -109c-52 -124 -121 -173 -227 -173c-109 0 -170 49 -170 100c0 32 23 56 55 56c75 0 53 -104 137 -104
c52 0 115 25 163 136c122 271 196 568 475 542v-588c0 -76 17 -82 97 -87v-25zM731 645c-127 -24 -198 -175 -270 -348h270v348z" />
    <glyph glyph-name="Aacute.s22" horiz-adv-x="946" 
d="M752 743l91 145c7 10 13 16 28 16h60c10 0 16 -6 16 -15s-6 -15 -21 -29l-134 -117h-40zM927 0h-293v25c73 4 93 10 96 70c-22 124 -100 244 -229 294c-35 -76 -68 -162 -104 -246c-52 -124 -121 -173 -227 -173c-109 0 -170 49 -170 100c0 32 23 56 55 56
c75 0 53 -104 137 -104c52 0 115 25 163 136c37 82 69 166 105 244c-30 7 -62 12 -96 12c-84 0 -122 -32 -122 -60c0 -26 19 -33 19 -64c0 -28 -21 -54 -55 -54c-36 0 -61 34 -61 73c0 83 90 149 219 149c41 0 79 -6 115 -16c77 158 171 274 351 258v-588
c0 -76 17 -82 97 -87v-25zM520 429c97 -40 169 -116 211 -210v426c-93 -18 -156 -104 -211 -216z" />
    <glyph glyph-name="Aacute.s23" horiz-adv-x="1295" 
d="M1106 743l91 145c7 10 13 16 28 16h60c10 0 16 -6 16 -15s-6 -15 -21 -29l-134 -117h-40zM1179 700v-588c0 -76 17 -82 97 -87v-25h-293v25c80 5 97 11 97 87v140h-285c-15 -37 -30 -74 -45 -109c-98 -226 -243 -343 -431 -343c-205 0 -317 116 -317 263
c0 139 121 216 222 216c61 0 115 -28 115 -82c0 -35 -27 -62 -62 -62c-63 0 -56 67 -115 67c-49 0 -110 -50 -110 -139c0 -126 103 -219 268 -219c161 0 293 107 384 314c121 271 196 568 475 542zM1080 645c-126 -27 -199 -184 -267 -348h267v348z" />
    <glyph glyph-name="Aacute.s24" horiz-adv-x="1295" 
d="M1102 743l91 145c7 10 13 16 28 16h60c10 0 16 -6 16 -15s-6 -15 -21 -29l-134 -117h-40zM1179 700v-588c0 -76 17 -82 97 -87v-25h-293v25c72 4 93 9 96 65c-19 109 -105 225 -231 288c-34 -77 -65 -160 -98 -235c-98 -226 -243 -343 -431 -343
c-205 0 -317 116 -317 263c0 139 121 216 222 216c61 0 115 -28 115 -82c0 -35 -27 -62 -62 -62c-63 0 -56 67 -115 67c-49 0 -110 -50 -110 -139c0 -126 103 -219 268 -219c161 0 293 107 384 314c36 80 67 163 102 239c-50 19 -105 30 -163 30c-84 0 -123 -32 -123 -60
c0 -26 20 -33 20 -64c0 -28 -21 -54 -55 -54c-36 0 -62 34 -62 73c0 83 91 149 220 149c66 0 127 -12 182 -33c78 159 173 279 354 262zM867 419c96 -48 170 -125 213 -213v439c-93 -20 -158 -112 -213 -226z" />
    <glyph glyph-name="Aacute.s25" horiz-adv-x="1308" 
d="M1114 743l91 145c7 10 13 16 28 16h60c10 0 16 -6 16 -15s-6 -15 -21 -29l-134 -117h-40zM1288 0h-293v25c80 5 97 11 97 87v140h-284c-15 -37 -30 -74 -45 -109c-101 -232 -245 -346 -432 -346c-201 0 -331 136 -331 311c0 182 147 294 287 294c132 0 226 -86 226 -192
c0 -85 -42 -130 -99 -130c-37 0 -65 25 -65 58c0 71 84 44 84 114c0 59 -54 105 -146 105c-115 0 -237 -94 -237 -249c0 -154 123 -267 281 -267c180 0 298 118 385 317c121 271 197 568 475 542v-588c0 -76 17 -82 97 -87v-25zM1092 645c-125 -27 -198 -184 -266 -348h266
v348z" />
    <glyph glyph-name="Aacute.c1" horiz-adv-x="690" 
d="M312 743l91 145c7 10 13 16 28 16h60c10 0 16 -6 16 -15s-6 -15 -21 -29l-134 -117h-40zM465 81v2c-66 -49 -150 -98 -242 -98c-112 0 -192 60 -192 163c0 160 190 223 434 263v112c0 102 -30 147 -126 147c-79 0 -137 -52 -158 -132c-14 -48 -33 -69 -62 -69
c-33 0 -53 23 -53 65c0 80 112 181 272 181c128 0 226 -43 226 -199v-423c0 -40 14 -59 45 -59c14 0 31 3 52 12v-36c-29 -16 -62 -25 -105 -25c-54 0 -91 27 -91 96zM262 42c62 0 133 34 203 87v239c-198 -30 -326 -82 -326 -207c0 -76 51 -119 123 -119z" />
    <glyph glyph-name="Aacute.XA.sx" horiz-adv-x="662" 
d="M308 700h57l229 -602c17 -47 37 -68 84 -73v-25h-260v25c75 5 92 20 76 62l-186 480l-181 -480c-14 -38 5 -57 82 -62v-25h-222v25c50 5 75 26 90 68zM306 743l91 145c7 10 13 16 28 16h60c10 0 16 -6 16 -15s-6 -15 -21 -29l-134 -117h-40z" />
    <glyph glyph-name="Agrave.s1" horiz-adv-x="898" 
d="M283 700h314l229 -602c17 -47 37 -68 84 -73v-25h-260v25c75 5 92 20 76 62l-49 128h-274l-48 -128c-14 -38 9 -57 86 -62v-25h-221v25c50 3 74 26 90 68l195 516c13 33 -2 47 -29 47h-193c-144 0 -233 -71 -233 -186c0 -81 56 -142 120 -142c35 0 55 13 55 38
c0 20 -20 36 -20 65c0 38 26 60 59 60c41 0 63 -35 63 -73c0 -81 -64 -136 -150 -136c-104 0 -177 77 -177 188c0 126 102 230 283 230zM539 573l-119 -314h240zM509 888l92 -145h-41l-133 117c-16 14 -21 20 -21 29s5 15 16 15h59c15 0 22 -6 28 -16z" />
    <glyph glyph-name="Agrave.s2" horiz-adv-x="898" 
d="M283 728c97 0 185 -28 289 -28h26l229 -602c17 -47 37 -68 84 -73v-25h-260v25c75 5 92 20 76 62l-49 128h-274l-48 -128c-15 -38 9 -57 86 -62v-25h-221v25c49 3 74 26 89 68l192 507c15 41 1 50 -27 58c-48 14 -133 26 -192 26c-144 0 -233 -72 -233 -187
c0 -81 56 -141 120 -141c35 0 55 13 55 37c0 21 -20 36 -20 65c0 38 26 61 59 61c41 0 63 -35 63 -74c0 -81 -64 -135 -150 -135c-104 0 -177 76 -177 187c0 127 102 231 283 231zM540 573l-119 -314h240zM512 888l92 -145h-41l-133 117c-16 14 -21 20 -21 29s5 15 16 15h59
c15 0 22 -6 28 -16z" />
    <glyph glyph-name="Agrave.s3" horiz-adv-x="665" 
d="M308 700h57l229 -602c17 -47 37 -68 84 -73v-25h-260v25c75 5 92 20 76 62l-57 146c-24 -27 -63 -46 -113 -46c-49 0 -97 27 -145 46l-55 -146c-15 -38 8 -57 85 -62v-25h-222v25c50 5 75 26 90 68l59 155c-14 4 -27 6 -40 6c-36 0 -63 -12 -98 -41l-21 21
c34 46 87 79 155 79c9 0 18 -1 27 -2zM307 572l-103 -274c48 -19 93 -47 153 -47c26 0 48 5 68 15zM277 888l92 -145h-41l-133 117c-16 14 -21 20 -21 29s5 15 16 15h59c15 0 22 -6 28 -16z" />
    <glyph glyph-name="Agrave.s4" horiz-adv-x="800" 
d="M442 700h58l229 -602c17 -47 37 -68 84 -73v-25h-260v25c75 5 91 20 75 62c-38 100 -148 194 -284 229l-86 -229c-14 -38 9 -57 86 -62v-25h-222v25c50 5 74 26 90 68l88 232c-22 4 -45 6 -67 6c-97 0 -136 -32 -136 -60c0 -26 20 -33 20 -64c0 -28 -22 -54 -56 -54
c-35 0 -61 34 -61 73c0 83 91 149 233 149c28 0 56 -3 83 -7zM441 572l-81 -214c82 -22 153 -65 209 -118zM411 888l92 -145h-41l-133 117c-16 14 -21 20 -21 29s5 15 16 15h59c15 0 22 -6 28 -16z" />
    <glyph glyph-name="Agrave.s5" horiz-adv-x="875" 
d="M174 375c81 0 138 -32 196 -62l148 387h57l229 -602c17 -47 37 -68 84 -73v-25h-260v25c75 5 92 20 76 62l-58 150c-36 -19 -90 -40 -142 -40c-47 0 -86 8 -121 21l-49 -131c-15 -38 8 -57 85 -62v-25h-221v25c49 5 74 26 89 68l54 142c-75 37 -129 86 -202 86
c-48 0 -75 -33 -75 -62c0 -53 78 -46 78 -105c0 -30 -24 -53 -55 -53c-44 0 -87 43 -87 117c0 100 80 157 174 157zM517 572l-106 -280c40 -18 83 -31 136 -31c35 0 61 6 83 16zM489 888l92 -145h-41l-133 117c-16 14 -21 20 -21 29s5 15 16 15h59c15 0 22 -6 28 -16z" />
    <glyph glyph-name="Agrave.s6" horiz-adv-x="665" 
d="M308 700h57l229 -602c17 -47 37 -68 84 -73v-25h-260v25c75 5 92 20 76 62l-50 128h-272c-130 -329 -248 -449 -437 -449c-108 0 -184 53 -184 110c0 30 24 55 56 55c77 0 60 -112 149 -112c139 0 255 98 389 453zM307 572l-118 -313h238zM277 888l92 -145h-41l-133 117
c-16 14 -21 20 -21 29s5 15 16 15h59c15 0 22 -6 28 -16z" />
    <glyph glyph-name="Agrave.s7" horiz-adv-x="800" 
d="M411 888l92 -145h-41l-133 117c-16 14 -21 20 -21 29s5 15 16 15h59c15 0 22 -6 28 -16zM443 700h57l229 -602c17 -47 37 -68 84 -73v-25h-260v25c75 5 91 20 75 62c-38 100 -148 194 -283 229l-25 -68c-135 -354 -255 -482 -451 -482c-107 0 -183 53 -183 110
c0 30 24 55 55 55c78 0 61 -112 149 -112c140 0 256 98 390 453l20 53c-22 4 -44 6 -67 6c-97 0 -136 -32 -136 -60c0 -26 20 -33 20 -64c0 -28 -22 -54 -56 -54c-35 0 -61 34 -61 73c0 83 91 149 233 149c28 0 56 -3 83 -7zM441 572l-80 -214c81 -22 153 -65 208 -118z" />
    <glyph glyph-name="Agrave.s8" horiz-adv-x="898" 
d="M910 0h-260v25c75 5 92 20 76 62l-49 128h-273c-130 -329 -247 -449 -437 -449c-108 0 -184 53 -184 110c0 30 24 55 56 55c77 0 60 -112 149 -112c140 0 255 98 390 453l124 328c16 42 4 56 -26 56h-193c-144 0 -233 -71 -233 -186c0 -81 56 -142 120 -142
c35 0 55 13 55 38c0 20 -20 36 -20 65c0 38 26 60 59 60c41 0 63 -35 63 -73c0 -81 -64 -136 -150 -136c-104 0 -177 77 -177 188c0 126 102 230 283 230h314l229 -602c17 -47 37 -68 84 -73v-25zM540 571l-119 -312h239zM507 888l92 -145h-41l-133 117
c-16 14 -21 20 -21 29s5 15 16 15h59c15 0 22 -6 28 -16z" />
    <glyph glyph-name="Agrave.s9" horiz-adv-x="1089" 
d="M732 700h57l229 -602c17 -47 37 -68 84 -73v-25h-260v25c75 5 92 20 76 62l-50 128h-273c-71 -170 -163 -283 -343 -283c-140 0 -266 82 -266 236c0 127 88 197 179 197c104 0 157 -68 157 -136c0 -46 -26 -78 -66 -78c-30 0 -58 21 -58 53c0 37 27 43 27 72
c0 23 -27 41 -68 41c-60 0 -121 -53 -121 -149c0 -122 103 -191 216 -191c153 0 241 96 320 304zM731 572l-118 -313h238zM704 888l92 -145h-41l-133 117c-16 14 -21 20 -21 29s5 15 16 15h59c15 0 22 -6 28 -16z" />
    <glyph glyph-name="Agrave.s10" horiz-adv-x="1259" 
d="M1011 25c75 5 92 20 76 62l-50 128h-272c-129 -329 -264 -444 -451 -444c-188 0 -313 128 -313 304c0 182 148 302 288 302s230 -96 230 -196c0 -86 -46 -133 -98 -133c-37 0 -64 26 -64 61c0 60 82 49 82 109c0 62 -69 114 -150 114c-115 0 -241 -102 -241 -258
c0 -161 114 -258 265 -258c165 0 292 101 426 456l162 428h57l231 -604c16 -45 35 -66 82 -71v-25h-260v25zM900 572l-118 -313h238zM869 888l92 -145h-41l-133 117c-16 14 -21 20 -21 29s5 15 16 15h59c15 0 22 -6 28 -16z" />
    <glyph glyph-name="Agrave.s11" horiz-adv-x="1354" 
d="M1182 87l-50 128h-272c-121 -301 -313 -419 -534 -418c-169 0 -326 103 -326 259c0 138 108 242 248 242c130 0 233 -72 233 -153c0 -31 -19 -61 -59 -61c-44 0 -64 36 -73 83c-9 42 -20 86 -107 86c-104 0 -196 -87 -196 -197c0 -132 134 -215 280 -215
c207 0 386 115 497 406l139 364c10 27 6 39 -32 49c-87 24 -174 39 -264 39c-159 0 -221 -68 -221 -152c0 -53 33 -108 100 -108c84 0 45 118 129 118c37 0 60 -30 60 -61c0 -62 -67 -111 -158 -111c-117 0 -180 76 -180 162c0 102 76 197 270 197c149 0 263 -44 353 -44h34
l224 -588c22 -61 42 -82 89 -87v-25h-260v25c80 5 90 26 76 62zM995 572l-119 -313h239zM962 888l92 -145h-41l-133 117c-16 14 -21 20 -21 29s5 15 16 15h59c15 0 22 -6 28 -16z" />
    <glyph glyph-name="Agrave.a1" horiz-adv-x="699" 
d="M474 888l92 -145h-41l-133 117c-16 14 -21 20 -21 29s5 15 16 15h59c15 0 22 -6 28 -16zM508 700h64v-588c0 -76 17 -82 97 -87v-25h-294v25c80 5 98 11 98 87v105h-246l-75 -109c-35 -49 -2 -78 61 -83v-25h-229v25c37 1 75 30 115 87zM473 570l-214 -308h214v308z" />
    <glyph glyph-name="Agrave.s12" horiz-adv-x="888" 
d="M283 700h478v-588c0 -76 17 -82 97 -87v-25h-294v25c80 5 98 11 98 87v105h-246l-75 -109c-35 -49 -2 -78 61 -83v-25h-229v25c37 1 75 30 115 87l343 493c23 34 -1 50 -30 50l-318 1c-144 0 -233 -71 -233 -186c0 -81 56 -142 120 -142c35 0 55 13 55 38
c0 20 -20 36 -20 65c0 38 26 60 59 60c41 0 63 -35 63 -73c0 -81 -64 -136 -150 -136c-104 0 -177 77 -177 188c0 126 102 230 283 230zM662 570l-214 -308h214v308zM663 888l92 -145h-41l-133 117c-16 14 -21 20 -21 29s5 15 16 15h59c15 0 22 -6 28 -16z" />
    <glyph glyph-name="Agrave.s13" horiz-adv-x="809" 
d="M618 700h63v-588c0 -76 18 -82 98 -87v-25h-294v25c73 4 94 10 97 69c-15 83 -75 179 -163 241l-158 -227c-34 -49 -1 -78 62 -83v-25h-229v25c37 1 75 30 115 87l172 247c-48 26 -102 42 -161 42c-84 0 -123 -31 -123 -59c0 -27 20 -33 20 -65c0 -28 -22 -53 -56 -53
c-35 0 -61 34 -61 73c0 82 91 149 220 149c70 0 133 -18 187 -49zM583 570l-138 -198c60 -43 107 -100 138 -163v361zM583 888l92 -145h-41l-133 117c-16 14 -21 20 -21 29s5 15 16 15h59c15 0 22 -6 28 -16z" />
    <glyph glyph-name="Agrave.s14" horiz-adv-x="871" 
d="M174 375c95 0 157 -44 227 -78l279 403h64v-588c0 -76 17 -82 97 -87v-25h-294v25c81 5 98 11 98 87v125c-36 -19 -89 -40 -141 -40c-41 0 -76 6 -107 16l-73 -105c-34 -49 -2 -78 62 -83v-25h-230v25c37 1 76 30 116 87l82 118c-82 36 -138 91 -215 91
c-48 0 -75 -33 -75 -62c0 -53 78 -46 78 -105c0 -30 -24 -53 -55 -53c-44 0 -87 43 -87 117c0 100 80 157 174 157zM645 570l-202 -291c31 -11 65 -18 104 -18c43 0 71 8 98 23v286zM646 888l92 -145h-41l-133 117c-16 14 -21 20 -21 29s5 15 16 15h59c15 0 22 -6 28 -16z
" />
    <glyph glyph-name="Agrave.s15" horiz-adv-x="1369" 
d="M1145 888l92 -145h-41l-133 117c-16 14 -21 20 -21 29s5 15 16 15h59c15 0 22 -6 28 -16zM1339 0h-293v25c80 5 97 11 97 87v105h-243l-90 -131c-144 -207 -300 -289 -481 -289c-212 0 -329 118 -329 264c0 138 121 215 222 215c61 0 115 -28 115 -82
c0 -35 -27 -62 -62 -62c-63 0 -56 67 -115 67c-49 0 -110 -50 -110 -138c0 -127 112 -220 279 -220c156 0 308 74 442 269l407 590h64v-588c0 -76 17 -82 97 -87v-25zM1143 572l-212 -310h212v310z" />
    <glyph glyph-name="Agrave.s16" horiz-adv-x="1367" 
d="M1337 0h-294v25c81 5 98 11 98 87v105h-244l-90 -131c-145 -209 -293 -289 -476 -289c-201 0 -331 136 -331 311c0 182 147 294 287 294c132 0 226 -86 226 -192c0 -85 -42 -131 -99 -131c-37 0 -65 26 -65 59c0 71 84 44 84 114c0 59 -54 105 -146 105
c-115 0 -237 -94 -237 -249c0 -154 123 -267 281 -267s303 74 438 269l407 590h64v-588c0 -76 17 -82 97 -87v-25zM1141 572l-213 -310h213v310zM1141 888l92 -145h-41l-133 117c-16 14 -21 20 -21 29s5 15 16 15h59c15 0 22 -6 28 -16z" />
    <glyph glyph-name="Agrave.s17" horiz-adv-x="1369" 
d="M765 700h477v-588c0 -76 17 -82 97 -87v-25h-293v25c80 5 97 11 97 87v105h-243l-90 -131c-144 -207 -300 -289 -481 -289c-212 0 -329 118 -329 264c0 138 121 215 222 215c61 0 115 -28 115 -82c0 -35 -27 -62 -62 -62c-63 0 -56 67 -115 67c-49 0 -110 -50 -110 -138
c0 -127 112 -220 279 -220c156 0 308 74 442 269l338 489c27 40 4 56 -27 56l-317 1c-144 0 -234 -71 -234 -186c0 -81 56 -142 120 -142c35 0 55 13 55 38c0 20 -19 36 -19 65c0 38 25 60 58 60c41 0 63 -35 63 -73c0 -81 -64 -136 -150 -136c-104 0 -176 77 -176 188
c0 126 102 230 283 230zM1143 572l-212 -310h212v310zM1143 888l92 -145h-41l-133 117c-16 14 -21 20 -21 29s5 15 16 15h59c15 0 22 -6 28 -16z" />
    <glyph glyph-name="Agrave.s18" horiz-adv-x="1367" 
d="M1337 0h-294v25c81 5 98 11 98 87v105h-244l-90 -131c-145 -209 -293 -289 -476 -289c-201 0 -331 136 -331 311c0 182 147 294 287 294c132 0 226 -86 226 -192c0 -85 -42 -130 -99 -130c-37 0 -65 25 -65 58c0 71 84 44 84 114c0 59 -54 105 -146 105
c-115 0 -237 -94 -237 -249c0 -154 123 -267 281 -267s303 74 438 269l337 489c27 40 4 56 -26 56l-275 1c-144 0 -233 -71 -233 -186c0 -81 55 -142 119 -142c35 0 56 13 56 38c0 20 -20 36 -20 65c0 38 26 60 58 60c42 0 64 -35 64 -73c0 -81 -64 -136 -151 -136
c-104 0 -176 77 -176 188c0 126 102 230 283 230h435v-588c0 -76 17 -82 97 -87v-25zM1141 572l-213 -310h213v310zM1140 888l92 -145h-41l-133 117c-16 14 -21 20 -21 29s5 15 16 15h59c15 0 22 -6 28 -16z" />
    <glyph glyph-name="Agrave.s19" horiz-adv-x="1369" 
d="M1178 700h64v-588c0 -76 17 -82 97 -87v-25h-293v25c76 5 95 10 97 76c-18 82 -77 174 -162 234l-171 -249c-144 -207 -300 -289 -481 -289c-212 0 -329 118 -329 264c0 138 121 215 222 215c61 0 115 -28 115 -82c0 -35 -27 -62 -62 -62c-63 0 -56 67 -115 67
c-49 0 -110 -50 -110 -138c0 -127 112 -220 279 -220c156 0 308 74 442 269l172 249c-48 26 -103 42 -162 42c-84 0 -122 -31 -122 -59c0 -27 19 -33 19 -65c0 -28 -21 -53 -55 -53c-36 0 -61 34 -61 73c0 82 90 149 219 149c70 0 133 -19 188 -49zM1143 572l-136 -199
c59 -43 105 -99 136 -161v360zM1144 888l92 -145h-41l-133 117c-16 14 -21 20 -21 29s5 15 16 15h59c15 0 22 -6 28 -16z" />
    <glyph glyph-name="Agrave.s20" horiz-adv-x="1367" 
d="M1141 888l92 -145h-41l-133 117c-16 14 -21 20 -21 29s5 15 16 15h59c15 0 22 -6 28 -16zM1337 0h-294v25c76 4 96 10 98 74c-16 91 -65 191 -151 253l-183 -266c-145 -209 -293 -289 -476 -289c-201 0 -331 136 -331 311c0 182 147 294 287 294c132 0 226 -86 226 -192
c0 -85 -42 -130 -99 -130c-37 0 -65 25 -65 58c0 71 84 44 84 114c0 59 -54 105 -146 105c-115 0 -237 -94 -237 -249c0 -154 123 -267 281 -267s303 74 438 269l183 266c-44 23 -96 37 -157 37c-84 0 -123 -31 -123 -58c0 -28 20 -34 20 -66c0 -28 -21 -53 -55 -53
c-36 0 -62 34 -62 73c0 82 91 149 220 149c71 0 132 -17 183 -45l198 287h64v-588c0 -76 17 -82 97 -87v-25zM1141 572l-125 -182c56 -41 98 -98 125 -161v343z" />
    <glyph glyph-name="Agrave.s21" horiz-adv-x="946" 
d="M927 0h-293v25c80 5 97 11 97 87v140h-288c-15 -36 -30 -73 -46 -109c-52 -124 -121 -173 -227 -173c-109 0 -170 49 -170 100c0 32 23 56 55 56c75 0 53 -104 137 -104c52 0 115 25 163 136c122 271 196 568 475 542v-588c0 -76 17 -82 97 -87v-25zM731 645
c-127 -24 -198 -175 -270 -348h270v348zM722 888l92 -145h-41l-133 117c-16 14 -21 20 -21 29s5 15 16 15h59c15 0 22 -6 28 -16z" />
    <glyph glyph-name="Agrave.s22" horiz-adv-x="946" 
d="M927 0h-293v25c73 4 93 10 96 70c-22 124 -100 244 -229 294c-35 -76 -68 -162 -104 -246c-52 -124 -121 -173 -227 -173c-109 0 -170 49 -170 100c0 32 23 56 55 56c75 0 53 -104 137 -104c52 0 115 25 163 136c37 82 69 166 105 244c-30 7 -62 12 -96 12
c-84 0 -122 -32 -122 -60c0 -26 19 -33 19 -64c0 -28 -21 -54 -55 -54c-36 0 -61 34 -61 73c0 83 90 149 219 149c41 0 79 -6 115 -16c77 158 171 274 351 258v-588c0 -76 17 -82 97 -87v-25zM520 429c97 -40 169 -116 211 -210v426c-93 -18 -156 -104 -211 -216zM724 888
l92 -145h-41l-133 117c-16 14 -21 20 -21 29s5 15 16 15h59c15 0 22 -6 28 -16z" />
    <glyph glyph-name="Agrave.s23" horiz-adv-x="1295" 
d="M1179 700v-588c0 -76 17 -82 97 -87v-25h-293v25c80 5 97 11 97 87v140h-285c-15 -37 -30 -74 -45 -109c-98 -226 -243 -343 -431 -343c-205 0 -317 116 -317 263c0 139 121 216 222 216c61 0 115 -28 115 -82c0 -35 -27 -62 -62 -62c-63 0 -56 67 -115 67
c-49 0 -110 -50 -110 -139c0 -126 103 -219 268 -219c161 0 293 107 384 314c121 271 196 568 475 542zM1080 645c-126 -27 -199 -184 -267 -348h267v348zM1073 888l92 -145h-41l-133 117c-16 14 -21 20 -21 29s5 15 16 15h59c15 0 22 -6 28 -16z" />
    <glyph glyph-name="Agrave.s24" horiz-adv-x="1295" 
d="M1179 700v-588c0 -76 17 -82 97 -87v-25h-293v25c72 4 93 9 96 65c-19 109 -105 225 -231 288c-34 -77 -65 -160 -98 -235c-98 -226 -243 -343 -431 -343c-205 0 -317 116 -317 263c0 139 121 216 222 216c61 0 115 -28 115 -82c0 -35 -27 -62 -62 -62
c-63 0 -56 67 -115 67c-49 0 -110 -50 -110 -139c0 -126 103 -219 268 -219c161 0 293 107 384 314c36 80 67 163 102 239c-50 19 -105 30 -163 30c-84 0 -123 -32 -123 -60c0 -26 20 -33 20 -64c0 -28 -21 -54 -55 -54c-36 0 -62 34 -62 73c0 83 91 149 220 149
c66 0 127 -12 182 -33c78 159 173 279 354 262zM867 419c96 -48 170 -125 213 -213v439c-93 -20 -158 -112 -213 -226zM1072 888l92 -145h-41l-133 117c-16 14 -21 20 -21 29s5 15 16 15h59c15 0 22 -6 28 -16z" />
    <glyph glyph-name="Agrave.s25" horiz-adv-x="1308" 
d="M1288 0h-293v25c80 5 97 11 97 87v140h-284c-15 -37 -30 -74 -45 -109c-101 -232 -245 -346 -432 -346c-201 0 -331 136 -331 311c0 182 147 294 287 294c132 0 226 -86 226 -192c0 -85 -42 -130 -99 -130c-37 0 -65 25 -65 58c0 71 84 44 84 114c0 59 -54 105 -146 105
c-115 0 -237 -94 -237 -249c0 -154 123 -267 281 -267c180 0 298 118 385 317c121 271 197 568 475 542v-588c0 -76 17 -82 97 -87v-25zM1092 645c-125 -27 -198 -184 -266 -348h266v348zM1085 888l92 -145h-41l-133 117c-16 14 -21 20 -21 29s5 15 16 15h59
c15 0 22 -6 28 -16z" />
    <glyph glyph-name="Agrave.c1" horiz-adv-x="690" 
d="M465 81v2c-66 -49 -150 -98 -242 -98c-112 0 -192 60 -192 163c0 160 190 223 434 263v112c0 102 -30 147 -126 147c-79 0 -137 -52 -158 -132c-14 -48 -33 -69 -62 -69c-33 0 -53 23 -53 65c0 80 112 181 272 181c128 0 226 -43 226 -199v-423c0 -40 14 -59 45 -59
c14 0 31 3 52 12v-36c-29 -16 -62 -25 -105 -25c-54 0 -91 27 -91 96zM262 42c62 0 133 34 203 87v239c-198 -30 -326 -82 -326 -207c0 -76 51 -119 123 -119zM281 888l92 -145h-41l-133 117c-16 14 -21 20 -21 29s5 15 16 15h59c15 0 22 -6 28 -16z" />
    <glyph glyph-name="Agrave.XA.sx" horiz-adv-x="662" 
d="M308 700h57l229 -602c17 -47 37 -68 84 -73v-25h-260v25c75 5 92 20 76 62l-186 480l-181 -480c-14 -38 5 -57 82 -62v-25h-222v25c50 5 75 26 90 68zM273 888l92 -145h-41l-133 117c-16 14 -21 20 -21 29s5 15 16 15h59c15 0 22 -6 28 -16z" />
    <glyph glyph-name="Acircumflex.s1" horiz-adv-x="898" 
d="M416 742l100 147c8 12 17 18 31 18h43c14 0 23 -6 30 -18l100 -147h-41l-111 106l-111 -106h-41zM283 700h314l229 -602c17 -47 37 -68 84 -73v-25h-260v25c75 5 92 20 76 62l-49 128h-274l-48 -128c-14 -38 9 -57 86 -62v-25h-221v25c50 3 74 26 90 68l195 516
c13 33 -2 47 -29 47h-193c-144 0 -233 -71 -233 -186c0 -81 56 -142 120 -142c35 0 55 13 55 38c0 20 -20 36 -20 65c0 38 26 60 59 60c41 0 63 -35 63 -73c0 -81 -64 -136 -150 -136c-104 0 -177 77 -177 188c0 126 102 230 283 230zM539 573l-119 -314h240z" />
    <glyph glyph-name="Acircumflex.s2" horiz-adv-x="898" 
d="M417 742l100 147c8 12 17 18 31 18h43c14 0 23 -6 30 -18l100 -147h-41l-111 106l-111 -106h-41zM283 728c97 0 185 -28 289 -28h26l229 -602c17 -47 37 -68 84 -73v-25h-260v25c75 5 92 20 76 62l-49 128h-274l-48 -128c-15 -38 9 -57 86 -62v-25h-221v25
c49 3 74 26 89 68l192 507c15 41 1 50 -27 58c-48 14 -133 26 -192 26c-144 0 -233 -72 -233 -187c0 -81 56 -141 120 -141c35 0 55 13 55 37c0 21 -20 36 -20 65c0 38 26 61 59 61c41 0 63 -35 63 -74c0 -81 -64 -135 -150 -135c-104 0 -177 76 -177 187
c0 127 102 231 283 231zM540 573l-119 -314h240z" />
    <glyph glyph-name="Acircumflex.s3" horiz-adv-x="665" 
d="M184 742l100 147c8 12 17 18 31 18h43c14 0 23 -6 30 -18l100 -147h-41l-111 106l-111 -106h-41zM308 700h57l229 -602c17 -47 37 -68 84 -73v-25h-260v25c75 5 92 20 76 62l-57 146c-24 -27 -63 -46 -113 -46c-49 0 -97 27 -145 46l-55 -146c-15 -38 8 -57 85 -62v-25
h-222v25c50 5 75 26 90 68l59 155c-14 4 -27 6 -40 6c-36 0 -63 -12 -98 -41l-21 21c34 46 87 79 155 79c9 0 18 -1 27 -2zM307 572l-103 -274c48 -19 93 -47 153 -47c26 0 48 5 68 15z" />
    <glyph glyph-name="Acircumflex.s4" horiz-adv-x="800" 
d="M319 742l100 147c8 12 17 18 31 18h43c14 0 23 -6 30 -18l100 -147h-41l-111 106l-111 -106h-41zM442 700h58l229 -602c17 -47 37 -68 84 -73v-25h-260v25c75 5 91 20 75 62c-38 100 -148 194 -284 229l-86 -229c-14 -38 9 -57 86 -62v-25h-222v25c50 5 74 26 90 68
l88 232c-22 4 -45 6 -67 6c-97 0 -136 -32 -136 -60c0 -26 20 -33 20 -64c0 -28 -22 -54 -56 -54c-35 0 -61 34 -61 73c0 83 91 149 233 149c28 0 56 -3 83 -7zM441 572l-81 -214c82 -22 153 -65 209 -118z" />
    <glyph glyph-name="Acircumflex.s5" horiz-adv-x="875" 
d="M396 742l100 147c8 12 17 18 31 18h43c14 0 23 -6 30 -18l100 -147h-41l-111 106l-111 -106h-41zM174 375c81 0 138 -32 196 -62l148 387h57l229 -602c17 -47 37 -68 84 -73v-25h-260v25c75 5 92 20 76 62l-58 150c-36 -19 -90 -40 -142 -40c-47 0 -86 8 -121 21
l-49 -131c-15 -38 8 -57 85 -62v-25h-221v25c49 5 74 26 89 68l54 142c-75 37 -129 86 -202 86c-48 0 -75 -33 -75 -62c0 -53 78 -46 78 -105c0 -30 -24 -53 -55 -53c-44 0 -87 43 -87 117c0 100 80 157 174 157zM517 572l-106 -280c40 -18 83 -31 136 -31c35 0 61 6 83 16z
" />
    <glyph glyph-name="Acircumflex.s6" horiz-adv-x="665" 
d="M185 742l100 147c8 12 17 18 31 18h43c14 0 23 -6 30 -18l100 -147h-41l-111 106l-111 -106h-41zM308 700h57l229 -602c17 -47 37 -68 84 -73v-25h-260v25c75 5 92 20 76 62l-50 128h-272c-130 -329 -248 -449 -437 -449c-108 0 -184 53 -184 110c0 30 24 55 56 55
c77 0 60 -112 149 -112c139 0 255 98 389 453zM307 572l-118 -313h238z" />
    <glyph glyph-name="Acircumflex.s7" horiz-adv-x="800" 
d="M319 742l100 147c8 12 17 18 31 18h43c14 0 23 -6 30 -18l100 -147h-41l-111 106l-111 -106h-41zM443 700h57l229 -602c17 -47 37 -68 84 -73v-25h-260v25c75 5 91 20 75 62c-38 100 -148 194 -283 229l-25 -68c-135 -354 -255 -482 -451 -482c-107 0 -183 53 -183 110
c0 30 24 55 55 55c78 0 61 -112 149 -112c140 0 256 98 390 453l20 53c-22 4 -44 6 -67 6c-97 0 -136 -32 -136 -60c0 -26 20 -33 20 -64c0 -28 -22 -54 -56 -54c-35 0 -61 34 -61 73c0 83 91 149 233 149c28 0 56 -3 83 -7zM441 572l-80 -214c81 -22 153 -65 208 -118z" />
    <glyph glyph-name="Acircumflex.s8" horiz-adv-x="898" 
d="M910 0h-260v25c75 5 92 20 76 62l-49 128h-273c-130 -329 -247 -449 -437 -449c-108 0 -184 53 -184 110c0 30 24 55 56 55c77 0 60 -112 149 -112c140 0 255 98 390 453l124 328c16 42 4 56 -26 56h-193c-144 0 -233 -71 -233 -186c0 -81 56 -142 120 -142
c35 0 55 13 55 38c0 20 -20 36 -20 65c0 38 26 60 59 60c41 0 63 -35 63 -73c0 -81 -64 -136 -150 -136c-104 0 -177 77 -177 188c0 126 102 230 283 230h314l229 -602c17 -47 37 -68 84 -73v-25zM540 571l-119 -312h239zM415 742l100 147c8 12 17 18 31 18h43
c14 0 23 -6 30 -18l100 -147h-41l-111 106l-111 -106h-41z" />
    <glyph glyph-name="Acircumflex.s9" horiz-adv-x="1089" 
d="M608 742l100 147c8 12 17 18 31 18h43c14 0 23 -6 30 -18l100 -147h-41l-111 106l-111 -106h-41zM732 700h57l229 -602c17 -47 37 -68 84 -73v-25h-260v25c75 5 92 20 76 62l-50 128h-273c-71 -170 -163 -283 -343 -283c-140 0 -266 82 -266 236c0 127 88 197 179 197
c104 0 157 -68 157 -136c0 -46 -26 -78 -66 -78c-30 0 -58 21 -58 53c0 37 27 43 27 72c0 23 -27 41 -68 41c-60 0 -121 -53 -121 -149c0 -122 103 -191 216 -191c153 0 241 96 320 304zM731 572l-118 -313h238z" />
    <glyph glyph-name="Acircumflex.s10" horiz-adv-x="1259" 
d="M777 742l100 147c8 12 17 18 31 18h43c14 0 23 -6 30 -18l100 -147h-41l-111 106l-111 -106h-41zM1011 25c75 5 92 20 76 62l-50 128h-272c-129 -329 -264 -444 -451 -444c-188 0 -313 128 -313 304c0 182 148 302 288 302s230 -96 230 -196c0 -86 -46 -133 -98 -133
c-37 0 -64 26 -64 61c0 60 82 49 82 109c0 62 -69 114 -150 114c-115 0 -241 -102 -241 -258c0 -161 114 -258 265 -258c165 0 292 101 426 456l162 428h57l231 -604c16 -45 35 -66 82 -71v-25h-260v25zM900 572l-118 -313h238z" />
    <glyph glyph-name="Acircumflex.s11" horiz-adv-x="1354" 
d="M867 742l100 147c8 12 17 18 31 18h43c14 0 23 -6 30 -18l100 -147h-41l-111 106l-111 -106h-41zM1182 87l-50 128h-272c-121 -301 -313 -419 -534 -418c-169 0 -326 103 -326 259c0 138 108 242 248 242c130 0 233 -72 233 -153c0 -31 -19 -61 -59 -61
c-44 0 -64 36 -73 83c-9 42 -20 86 -107 86c-104 0 -196 -87 -196 -197c0 -132 134 -215 280 -215c207 0 386 115 497 406l139 364c10 27 6 39 -32 49c-87 24 -174 39 -264 39c-159 0 -221 -68 -221 -152c0 -53 33 -108 100 -108c84 0 45 118 129 118c37 0 60 -30 60 -61
c0 -62 -67 -111 -158 -111c-117 0 -180 76 -180 162c0 102 76 197 270 197c149 0 263 -44 353 -44h34l224 -588c22 -61 42 -82 89 -87v-25h-260v25c80 5 90 26 76 62zM995 572l-119 -313h239z" />
    <glyph glyph-name="Acircumflex.a1" horiz-adv-x="699" 
d="M371 742l100 147c8 12 17 18 31 18h43c14 0 23 -6 30 -18l100 -147h-41l-111 106l-111 -106h-41zM508 700h64v-588c0 -76 17 -82 97 -87v-25h-294v25c80 5 98 11 98 87v105h-246l-75 -109c-35 -49 -2 -78 61 -83v-25h-229v25c37 1 75 30 115 87zM473 570l-214 -308h214
v308z" />
    <glyph glyph-name="Acircumflex.s12" horiz-adv-x="888" 
d="M283 700h478v-588c0 -76 17 -82 97 -87v-25h-294v25c80 5 98 11 98 87v105h-246l-75 -109c-35 -49 -2 -78 61 -83v-25h-229v25c37 1 75 30 115 87l343 493c23 34 -1 50 -30 50l-318 1c-144 0 -233 -71 -233 -186c0 -81 56 -142 120 -142c35 0 55 13 55 38
c0 20 -20 36 -20 65c0 38 26 60 59 60c41 0 63 -35 63 -73c0 -81 -64 -136 -150 -136c-104 0 -177 77 -177 188c0 126 102 230 283 230zM662 570l-214 -308h214v308zM560 742l100 147c8 12 17 18 31 18h43c14 0 23 -6 30 -18l100 -147h-41l-111 106l-111 -106h-41z" />
    <glyph glyph-name="Acircumflex.s13" horiz-adv-x="809" 
d="M481 742l100 147c8 12 17 18 31 18h43c14 0 23 -6 30 -18l100 -147h-41l-111 106l-111 -106h-41zM618 700h63v-588c0 -76 18 -82 98 -87v-25h-294v25c73 4 94 10 97 69c-15 83 -75 179 -163 241l-158 -227c-34 -49 -1 -78 62 -83v-25h-229v25c37 1 75 30 115 87l172 247
c-48 26 -102 42 -161 42c-84 0 -123 -31 -123 -59c0 -27 20 -33 20 -65c0 -28 -22 -53 -56 -53c-35 0 -61 34 -61 73c0 82 91 149 220 149c70 0 133 -18 187 -49zM583 570l-138 -198c60 -43 107 -100 138 -163v361z" />
    <glyph glyph-name="Acircumflex.s14" horiz-adv-x="871" 
d="M543 742l100 147c8 12 17 18 31 18h43c14 0 23 -6 30 -18l100 -147h-41l-111 106l-111 -106h-41zM174 375c95 0 157 -44 227 -78l279 403h64v-588c0 -76 17 -82 97 -87v-25h-294v25c81 5 98 11 98 87v125c-36 -19 -89 -40 -141 -40c-41 0 -76 6 -107 16l-73 -105
c-34 -49 -2 -78 62 -83v-25h-230v25c37 1 76 30 116 87l82 118c-82 36 -138 91 -215 91c-48 0 -75 -33 -75 -62c0 -53 78 -46 78 -105c0 -30 -24 -53 -55 -53c-44 0 -87 43 -87 117c0 100 80 157 174 157zM645 570l-202 -291c31 -11 65 -18 104 -18c43 0 71 8 98 23v286z
" />
    <glyph glyph-name="Acircumflex.s15" horiz-adv-x="1369" 
d="M1042 742l100 147c8 12 17 18 31 18h43c14 0 23 -6 30 -18l100 -147h-41l-111 106l-111 -106h-41zM1339 0h-293v25c80 5 97 11 97 87v105h-243l-90 -131c-144 -207 -300 -289 -481 -289c-212 0 -329 118 -329 264c0 138 121 215 222 215c61 0 115 -28 115 -82
c0 -35 -27 -62 -62 -62c-63 0 -56 67 -115 67c-49 0 -110 -50 -110 -138c0 -127 112 -220 279 -220c156 0 308 74 442 269l407 590h64v-588c0 -76 17 -82 97 -87v-25zM1143 572l-212 -310h212v310z" />
    <glyph glyph-name="Acircumflex.s16" horiz-adv-x="1367" 
d="M1039 742l100 147c8 12 17 18 31 18h43c14 0 23 -6 30 -18l100 -147h-41l-111 106l-111 -106h-41zM1337 0h-294v25c81 5 98 11 98 87v105h-244l-90 -131c-145 -209 -293 -289 -476 -289c-201 0 -331 136 -331 311c0 182 147 294 287 294c132 0 226 -86 226 -192
c0 -85 -42 -131 -99 -131c-37 0 -65 26 -65 59c0 71 84 44 84 114c0 59 -54 105 -146 105c-115 0 -237 -94 -237 -249c0 -154 123 -267 281 -267s303 74 438 269l407 590h64v-588c0 -76 17 -82 97 -87v-25zM1141 572l-213 -310h213v310z" />
    <glyph glyph-name="Acircumflex.s17" horiz-adv-x="1369" 
d="M1041 742l100 147c8 12 17 18 31 18h43c14 0 23 -6 30 -18l100 -147h-41l-111 106l-111 -106h-41zM765 700h477v-588c0 -76 17 -82 97 -87v-25h-293v25c80 5 97 11 97 87v105h-243l-90 -131c-144 -207 -300 -289 -481 -289c-212 0 -329 118 -329 264
c0 138 121 215 222 215c61 0 115 -28 115 -82c0 -35 -27 -62 -62 -62c-63 0 -56 67 -115 67c-49 0 -110 -50 -110 -138c0 -127 112 -220 279 -220c156 0 308 74 442 269l338 489c27 40 4 56 -27 56l-317 1c-144 0 -234 -71 -234 -186c0 -81 56 -142 120 -142
c35 0 55 13 55 38c0 20 -19 36 -19 65c0 38 25 60 58 60c41 0 63 -35 63 -73c0 -81 -64 -136 -150 -136c-104 0 -176 77 -176 188c0 126 102 230 283 230zM1143 572l-212 -310h212v310z" />
    <glyph glyph-name="Acircumflex.s18" horiz-adv-x="1367" 
d="M1039 742l100 147c8 12 17 18 31 18h43c14 0 23 -6 30 -18l100 -147h-41l-111 106l-111 -106h-41zM1337 0h-294v25c81 5 98 11 98 87v105h-244l-90 -131c-145 -209 -293 -289 -476 -289c-201 0 -331 136 -331 311c0 182 147 294 287 294c132 0 226 -86 226 -192
c0 -85 -42 -130 -99 -130c-37 0 -65 25 -65 58c0 71 84 44 84 114c0 59 -54 105 -146 105c-115 0 -237 -94 -237 -249c0 -154 123 -267 281 -267s303 74 438 269l337 489c27 40 4 56 -26 56l-275 1c-144 0 -233 -71 -233 -186c0 -81 55 -142 119 -142c35 0 56 13 56 38
c0 20 -20 36 -20 65c0 38 26 60 58 60c42 0 64 -35 64 -73c0 -81 -64 -136 -151 -136c-104 0 -176 77 -176 188c0 126 102 230 283 230h435v-588c0 -76 17 -82 97 -87v-25zM1141 572l-213 -310h213v310z" />
    <glyph glyph-name="Acircumflex.s19" horiz-adv-x="1369" 
d="M1041 742l100 147c8 12 17 18 31 18h43c14 0 23 -6 30 -18l100 -147h-41l-111 106l-111 -106h-41zM1178 700h64v-588c0 -76 17 -82 97 -87v-25h-293v25c76 5 95 10 97 76c-18 82 -77 174 -162 234l-171 -249c-144 -207 -300 -289 -481 -289c-212 0 -329 118 -329 264
c0 138 121 215 222 215c61 0 115 -28 115 -82c0 -35 -27 -62 -62 -62c-63 0 -56 67 -115 67c-49 0 -110 -50 -110 -138c0 -127 112 -220 279 -220c156 0 308 74 442 269l172 249c-48 26 -103 42 -162 42c-84 0 -122 -31 -122 -59c0 -27 19 -33 19 -65c0 -28 -21 -53 -55 -53
c-36 0 -61 34 -61 73c0 82 90 149 219 149c70 0 133 -19 188 -49zM1143 572l-136 -199c59 -43 105 -99 136 -161v360z" />
    <glyph glyph-name="Acircumflex.s20" horiz-adv-x="1367" 
d="M1039 742l100 147c8 12 17 18 31 18h43c14 0 23 -6 30 -18l100 -147h-41l-111 106l-111 -106h-41zM1337 0h-294v25c76 4 96 10 98 74c-16 91 -65 191 -151 253l-183 -266c-145 -209 -293 -289 -476 -289c-201 0 -331 136 -331 311c0 182 147 294 287 294
c132 0 226 -86 226 -192c0 -85 -42 -130 -99 -130c-37 0 -65 25 -65 58c0 71 84 44 84 114c0 59 -54 105 -146 105c-115 0 -237 -94 -237 -249c0 -154 123 -267 281 -267s303 74 438 269l183 266c-44 23 -96 37 -157 37c-84 0 -123 -31 -123 -58c0 -28 20 -34 20 -66
c0 -28 -21 -53 -55 -53c-36 0 -62 34 -62 73c0 82 91 149 220 149c71 0 132 -17 183 -45l198 287h64v-588c0 -76 17 -82 97 -87v-25zM1141 572l-125 -182c56 -41 98 -98 125 -161v343z" />
    <glyph glyph-name="Acircumflex.s21" horiz-adv-x="946" 
d="M629 742l100 147c8 12 17 18 31 18h43c14 0 23 -6 30 -18l100 -147h-41l-111 106l-111 -106h-41zM927 0h-293v25c80 5 97 11 97 87v140h-288c-15 -36 -30 -73 -46 -109c-52 -124 -121 -173 -227 -173c-109 0 -170 49 -170 100c0 32 23 56 55 56c75 0 53 -104 137 -104
c52 0 115 25 163 136c122 271 196 568 475 542v-588c0 -76 17 -82 97 -87v-25zM731 645c-127 -24 -198 -175 -270 -348h270v348z" />
    <glyph glyph-name="Acircumflex.s22" horiz-adv-x="946" 
d="M629 742l100 147c8 12 17 18 31 18h43c14 0 23 -6 30 -18l100 -147h-41l-111 106l-111 -106h-41zM927 0h-293v25c73 4 93 10 96 70c-22 124 -100 244 -229 294c-35 -76 -68 -162 -104 -246c-52 -124 -121 -173 -227 -173c-109 0 -170 49 -170 100c0 32 23 56 55 56
c75 0 53 -104 137 -104c52 0 115 25 163 136c37 82 69 166 105 244c-30 7 -62 12 -96 12c-84 0 -122 -32 -122 -60c0 -26 19 -33 19 -64c0 -28 -21 -54 -55 -54c-36 0 -61 34 -61 73c0 83 90 149 219 149c41 0 79 -6 115 -16c77 158 171 274 351 258v-588
c0 -76 17 -82 97 -87v-25zM520 429c97 -40 169 -116 211 -210v426c-93 -18 -156 -104 -211 -216z" />
    <glyph glyph-name="Acircumflex.s23" horiz-adv-x="1295" 
d="M978 742l100 147c8 12 17 18 31 18h43c14 0 23 -6 30 -18l100 -147h-41l-111 106l-111 -106h-41zM1179 700v-588c0 -76 17 -82 97 -87v-25h-293v25c80 5 97 11 97 87v140h-285c-15 -37 -30 -74 -45 -109c-98 -226 -243 -343 -431 -343c-205 0 -317 116 -317 263
c0 139 121 216 222 216c61 0 115 -28 115 -82c0 -35 -27 -62 -62 -62c-63 0 -56 67 -115 67c-49 0 -110 -50 -110 -139c0 -126 103 -219 268 -219c161 0 293 107 384 314c121 271 196 568 475 542zM1080 645c-126 -27 -199 -184 -267 -348h267v348z" />
    <glyph glyph-name="Acircumflex.s24" horiz-adv-x="1295" 
d="M977 742l100 147c8 12 17 18 31 18h43c14 0 23 -6 30 -18l100 -147h-41l-111 106l-111 -106h-41zM1179 700v-588c0 -76 17 -82 97 -87v-25h-293v25c72 4 93 9 96 65c-19 109 -105 225 -231 288c-34 -77 -65 -160 -98 -235c-98 -226 -243 -343 -431 -343
c-205 0 -317 116 -317 263c0 139 121 216 222 216c61 0 115 -28 115 -82c0 -35 -27 -62 -62 -62c-63 0 -56 67 -115 67c-49 0 -110 -50 -110 -139c0 -126 103 -219 268 -219c161 0 293 107 384 314c36 80 67 163 102 239c-50 19 -105 30 -163 30c-84 0 -123 -32 -123 -60
c0 -26 20 -33 20 -64c0 -28 -21 -54 -55 -54c-36 0 -62 34 -62 73c0 83 91 149 220 149c66 0 127 -12 182 -33c78 159 173 279 354 262zM867 419c96 -48 170 -125 213 -213v439c-93 -20 -158 -112 -213 -226z" />
    <glyph glyph-name="Acircumflex.s25" horiz-adv-x="1308" 
d="M990 742l100 147c8 12 17 18 31 18h43c14 0 23 -6 30 -18l100 -147h-41l-111 106l-111 -106h-41zM1288 0h-293v25c80 5 97 11 97 87v140h-284c-15 -37 -30 -74 -45 -109c-101 -232 -245 -346 -432 -346c-201 0 -331 136 -331 311c0 182 147 294 287 294
c132 0 226 -86 226 -192c0 -85 -42 -130 -99 -130c-37 0 -65 25 -65 58c0 71 84 44 84 114c0 59 -54 105 -146 105c-115 0 -237 -94 -237 -249c0 -154 123 -267 281 -267c180 0 298 118 385 317c121 271 197 568 475 542v-588c0 -76 17 -82 97 -87v-25zM1092 645
c-125 -27 -198 -184 -266 -348h266v348z" />
    <glyph glyph-name="Acircumflex.c1" horiz-adv-x="690" 
d="M186 742l100 147c8 12 17 18 31 18h43c14 0 23 -6 30 -18l100 -147h-41l-111 106l-111 -106h-41zM465 81v2c-66 -49 -150 -98 -242 -98c-112 0 -192 60 -192 163c0 160 190 223 434 263v112c0 102 -30 147 -126 147c-79 0 -137 -52 -158 -132c-14 -48 -33 -69 -62 -69
c-33 0 -53 23 -53 65c0 80 112 181 272 181c128 0 226 -43 226 -199v-423c0 -40 14 -59 45 -59c14 0 31 3 52 12v-36c-29 -16 -62 -25 -105 -25c-54 0 -91 27 -91 96zM262 42c62 0 133 34 203 87v239c-198 -30 -326 -82 -326 -207c0 -76 51 -119 123 -119z" />
    <glyph glyph-name="Acircumflex.XA.sx" horiz-adv-x="662" 
d="M308 700h57l229 -602c17 -47 37 -68 84 -73v-25h-260v25c75 5 92 20 76 62l-186 480l-181 -480c-14 -38 5 -57 82 -62v-25h-222v25c50 5 75 26 90 68zM183 742l100 147c8 12 17 18 31 18h43c14 0 23 -6 30 -18l100 -147h-41l-111 106l-111 -106h-41z" />
    <glyph glyph-name="Adieresis.s1" horiz-adv-x="898" 
d="M431 850c0 28 21 52 53 52s54 -24 54 -52c0 -27 -22 -51 -54 -51s-53 24 -53 51zM597 850c0 28 21 52 54 52c32 0 53 -24 53 -52c0 -27 -21 -51 -53 -51c-33 0 -54 24 -54 51zM283 700h314l229 -602c17 -47 37 -68 84 -73v-25h-260v25c75 5 92 20 76 62l-49 128h-274
l-48 -128c-14 -38 9 -57 86 -62v-25h-221v25c50 3 74 26 90 68l195 516c13 33 -2 47 -29 47h-193c-144 0 -233 -71 -233 -186c0 -81 56 -142 120 -142c35 0 55 13 55 38c0 20 -20 36 -20 65c0 38 26 60 59 60c41 0 63 -35 63 -73c0 -81 -64 -136 -150 -136
c-104 0 -177 77 -177 188c0 126 102 230 283 230zM539 573l-119 -314h240z" />
    <glyph glyph-name="Adieresis.s2" horiz-adv-x="898" 
d="M432 850c0 28 21 52 53 52s54 -24 54 -52c0 -27 -22 -51 -54 -51s-53 24 -53 51zM598 850c0 28 21 52 54 52c32 0 53 -24 53 -52c0 -27 -21 -51 -53 -51c-33 0 -54 24 -54 51zM283 728c97 0 185 -28 289 -28h26l229 -602c17 -47 37 -68 84 -73v-25h-260v25
c75 5 92 20 76 62l-49 128h-274l-48 -128c-15 -38 9 -57 86 -62v-25h-221v25c49 3 74 26 89 68l192 507c15 41 1 50 -27 58c-48 14 -133 26 -192 26c-144 0 -233 -72 -233 -187c0 -81 56 -141 120 -141c35 0 55 13 55 37c0 21 -20 36 -20 65c0 38 26 61 59 61
c41 0 63 -35 63 -74c0 -81 -64 -135 -150 -135c-104 0 -177 76 -177 187c0 127 102 231 283 231zM540 573l-119 -314h240z" />
    <glyph glyph-name="Adieresis.s3" horiz-adv-x="665" 
d="M199 850c0 28 21 52 53 52s54 -24 54 -52c0 -27 -22 -51 -54 -51s-53 24 -53 51zM365 850c0 28 21 52 54 52c32 0 53 -24 53 -52c0 -27 -21 -51 -53 -51c-33 0 -54 24 -54 51zM308 700h57l229 -602c17 -47 37 -68 84 -73v-25h-260v25c75 5 92 20 76 62l-57 146
c-24 -27 -63 -46 -113 -46c-49 0 -97 27 -145 46l-55 -146c-15 -38 8 -57 85 -62v-25h-222v25c50 5 75 26 90 68l59 155c-14 4 -27 6 -40 6c-36 0 -63 -12 -98 -41l-21 21c34 46 87 79 155 79c9 0 18 -1 27 -2zM307 572l-103 -274c48 -19 93 -47 153 -47c26 0 48 5 68 15z
" />
    <glyph glyph-name="Adieresis.s4" horiz-adv-x="800" 
d="M334 850c0 28 21 52 53 52s54 -24 54 -52c0 -27 -22 -51 -54 -51s-53 24 -53 51zM500 850c0 28 21 52 54 52c32 0 53 -24 53 -52c0 -27 -21 -51 -53 -51c-33 0 -54 24 -54 51zM442 700h58l229 -602c17 -47 37 -68 84 -73v-25h-260v25c75 5 91 20 75 62
c-38 100 -148 194 -284 229l-86 -229c-14 -38 9 -57 86 -62v-25h-222v25c50 5 74 26 90 68l88 232c-22 4 -45 6 -67 6c-97 0 -136 -32 -136 -60c0 -26 20 -33 20 -64c0 -28 -22 -54 -56 -54c-35 0 -61 34 -61 73c0 83 91 149 233 149c28 0 56 -3 83 -7zM441 572l-81 -214
c82 -22 153 -65 209 -118z" />
    <glyph glyph-name="Adieresis.s5" horiz-adv-x="875" 
d="M411 850c0 28 21 52 53 52s54 -24 54 -52c0 -27 -22 -51 -54 -51s-53 24 -53 51zM577 850c0 28 21 52 54 52c32 0 53 -24 53 -52c0 -27 -21 -51 -53 -51c-33 0 -54 24 -54 51zM174 375c81 0 138 -32 196 -62l148 387h57l229 -602c17 -47 37 -68 84 -73v-25h-260v25
c75 5 92 20 76 62l-58 150c-36 -19 -90 -40 -142 -40c-47 0 -86 8 -121 21l-49 -131c-15 -38 8 -57 85 -62v-25h-221v25c49 5 74 26 89 68l54 142c-75 37 -129 86 -202 86c-48 0 -75 -33 -75 -62c0 -53 78 -46 78 -105c0 -30 -24 -53 -55 -53c-44 0 -87 43 -87 117
c0 100 80 157 174 157zM517 572l-106 -280c40 -18 83 -31 136 -31c35 0 61 6 83 16z" />
    <glyph glyph-name="Adieresis.s6" horiz-adv-x="665" 
d="M200 850c0 28 21 52 53 52s54 -24 54 -52c0 -27 -22 -51 -54 -51s-53 24 -53 51zM366 850c0 28 21 52 54 52c32 0 53 -24 53 -52c0 -27 -21 -51 -53 -51c-33 0 -54 24 -54 51zM308 700h57l229 -602c17 -47 37 -68 84 -73v-25h-260v25c75 5 92 20 76 62l-50 128h-272
c-130 -329 -248 -449 -437 -449c-108 0 -184 53 -184 110c0 30 24 55 56 55c77 0 60 -112 149 -112c139 0 255 98 389 453zM307 572l-118 -313h238z" />
    <glyph glyph-name="Adieresis.s7" horiz-adv-x="800" 
d="M334 850c0 28 21 52 53 52s54 -24 54 -52c0 -27 -22 -51 -54 -51s-53 24 -53 51zM500 850c0 28 21 52 54 52c32 0 53 -24 53 -52c0 -27 -21 -51 -53 -51c-33 0 -54 24 -54 51zM443 700h57l229 -602c17 -47 37 -68 84 -73v-25h-260v25c75 5 91 20 75 62
c-38 100 -148 194 -283 229l-25 -68c-135 -354 -255 -482 -451 -482c-107 0 -183 53 -183 110c0 30 24 55 55 55c78 0 61 -112 149 -112c140 0 256 98 390 453l20 53c-22 4 -44 6 -67 6c-97 0 -136 -32 -136 -60c0 -26 20 -33 20 -64c0 -28 -22 -54 -56 -54
c-35 0 -61 34 -61 73c0 83 91 149 233 149c28 0 56 -3 83 -7zM441 572l-80 -214c81 -22 153 -65 208 -118z" />
    <glyph glyph-name="Adieresis.s8" horiz-adv-x="898" 
d="M910 0h-260v25c75 5 92 20 76 62l-49 128h-273c-130 -329 -247 -449 -437 -449c-108 0 -184 53 -184 110c0 30 24 55 56 55c77 0 60 -112 149 -112c140 0 255 98 390 453l124 328c16 42 4 56 -26 56h-193c-144 0 -233 -71 -233 -186c0 -81 56 -142 120 -142
c35 0 55 13 55 38c0 20 -20 36 -20 65c0 38 26 60 59 60c41 0 63 -35 63 -73c0 -81 -64 -136 -150 -136c-104 0 -177 77 -177 188c0 126 102 230 283 230h314l229 -602c17 -47 37 -68 84 -73v-25zM540 571l-119 -312h239zM431 850c0 28 21 52 53 52s54 -24 54 -52
c0 -27 -22 -51 -54 -51s-53 24 -53 51zM597 850c0 28 21 52 54 52c32 0 53 -24 53 -52c0 -27 -21 -51 -53 -51c-33 0 -54 24 -54 51z" />
    <glyph glyph-name="Adieresis.s9" horiz-adv-x="1089" 
d="M623 850c0 28 21 52 53 52s54 -24 54 -52c0 -27 -22 -51 -54 -51s-53 24 -53 51zM789 850c0 28 21 52 54 52c32 0 53 -24 53 -52c0 -27 -21 -51 -53 -51c-33 0 -54 24 -54 51zM732 700h57l229 -602c17 -47 37 -68 84 -73v-25h-260v25c75 5 92 20 76 62l-50 128h-273
c-71 -170 -163 -283 -343 -283c-140 0 -266 82 -266 236c0 127 88 197 179 197c104 0 157 -68 157 -136c0 -46 -26 -78 -66 -78c-30 0 -58 21 -58 53c0 37 27 43 27 72c0 23 -27 41 -68 41c-60 0 -121 -53 -121 -149c0 -122 103 -191 216 -191c153 0 241 96 320 304z
M731 572l-118 -313h238z" />
    <glyph glyph-name="Adieresis.s10" horiz-adv-x="1259" 
d="M792 850c0 28 21 52 53 52s54 -24 54 -52c0 -27 -22 -51 -54 -51s-53 24 -53 51zM958 850c0 28 21 52 54 52c32 0 53 -24 53 -52c0 -27 -21 -51 -53 -51c-33 0 -54 24 -54 51zM1011 25c75 5 92 20 76 62l-50 128h-272c-129 -329 -264 -444 -451 -444
c-188 0 -313 128 -313 304c0 182 148 302 288 302s230 -96 230 -196c0 -86 -46 -133 -98 -133c-37 0 -64 26 -64 61c0 60 82 49 82 109c0 62 -69 114 -150 114c-115 0 -241 -102 -241 -258c0 -161 114 -258 265 -258c165 0 292 101 426 456l162 428h57l231 -604
c16 -45 35 -66 82 -71v-25h-260v25zM900 572l-118 -313h238z" />
    <glyph glyph-name="Adieresis.s11" horiz-adv-x="1354" 
d="M883 850c0 28 21 52 53 52s54 -24 54 -52c0 -27 -22 -51 -54 -51s-53 24 -53 51zM1049 850c0 28 21 52 54 52c32 0 53 -24 53 -52c0 -27 -21 -51 -53 -51c-33 0 -54 24 -54 51zM1182 87l-50 128h-272c-121 -301 -313 -419 -534 -418c-169 0 -326 103 -326 259
c0 138 108 242 248 242c130 0 233 -72 233 -153c0 -31 -19 -61 -59 -61c-44 0 -64 36 -73 83c-9 42 -20 86 -107 86c-104 0 -196 -87 -196 -197c0 -132 134 -215 280 -215c207 0 386 115 497 406l139 364c10 27 6 39 -32 49c-87 24 -174 39 -264 39
c-159 0 -221 -68 -221 -152c0 -53 33 -108 100 -108c84 0 45 118 129 118c37 0 60 -30 60 -61c0 -62 -67 -111 -158 -111c-117 0 -180 76 -180 162c0 102 76 197 270 197c149 0 263 -44 353 -44h34l224 -588c22 -61 42 -82 89 -87v-25h-260v25c80 5 90 26 76 62zM995 572
l-119 -313h239z" />
    <glyph glyph-name="Adieresis.a1" horiz-adv-x="699" 
d="M387 850c0 28 21 52 53 52s54 -24 54 -52c0 -27 -22 -51 -54 -51s-53 24 -53 51zM553 850c0 28 21 52 54 52c32 0 53 -24 53 -52c0 -27 -21 -51 -53 -51c-33 0 -54 24 -54 51zM508 700h64v-588c0 -76 17 -82 97 -87v-25h-294v25c80 5 98 11 98 87v105h-246l-75 -109
c-35 -49 -2 -78 61 -83v-25h-229v25c37 1 75 30 115 87zM473 570l-214 -308h214v308z" />
    <glyph glyph-name="Adieresis.s12" horiz-adv-x="888" 
d="M283 700h478v-588c0 -76 17 -82 97 -87v-25h-294v25c80 5 98 11 98 87v105h-246l-75 -109c-35 -49 -2 -78 61 -83v-25h-229v25c37 1 75 30 115 87l343 493c23 34 -1 50 -30 50l-318 1c-144 0 -233 -71 -233 -186c0 -81 56 -142 120 -142c35 0 55 13 55 38
c0 20 -20 36 -20 65c0 38 26 60 59 60c41 0 63 -35 63 -73c0 -81 -64 -136 -150 -136c-104 0 -177 77 -177 188c0 126 102 230 283 230zM662 570l-214 -308h214v308zM575 850c0 28 21 52 53 52s54 -24 54 -52c0 -27 -22 -51 -54 -51s-53 24 -53 51zM741 850
c0 28 21 52 54 52c32 0 53 -24 53 -52c0 -27 -21 -51 -53 -51c-33 0 -54 24 -54 51z" />
    <glyph glyph-name="Adieresis.s13" horiz-adv-x="809" 
d="M496 850c0 28 21 52 53 52s54 -24 54 -52c0 -27 -22 -51 -54 -51s-53 24 -53 51zM662 850c0 28 21 52 54 52c32 0 53 -24 53 -52c0 -27 -21 -51 -53 -51c-33 0 -54 24 -54 51zM618 700h63v-588c0 -76 18 -82 98 -87v-25h-294v25c73 4 94 10 97 69
c-15 83 -75 179 -163 241l-158 -227c-34 -49 -1 -78 62 -83v-25h-229v25c37 1 75 30 115 87l172 247c-48 26 -102 42 -161 42c-84 0 -123 -31 -123 -59c0 -27 20 -33 20 -65c0 -28 -22 -53 -56 -53c-35 0 -61 34 -61 73c0 82 91 149 220 149c70 0 133 -18 187 -49zM583 570
l-138 -198c60 -43 107 -100 138 -163v361z" />
    <glyph glyph-name="Adieresis.s14" horiz-adv-x="871" 
d="M559 850c0 28 21 52 53 52s54 -24 54 -52c0 -27 -22 -51 -54 -51s-53 24 -53 51zM725 850c0 28 21 52 54 52c32 0 53 -24 53 -52c0 -27 -21 -51 -53 -51c-33 0 -54 24 -54 51zM174 375c95 0 157 -44 227 -78l279 403h64v-588c0 -76 17 -82 97 -87v-25h-294v25
c81 5 98 11 98 87v125c-36 -19 -89 -40 -141 -40c-41 0 -76 6 -107 16l-73 -105c-34 -49 -2 -78 62 -83v-25h-230v25c37 1 76 30 116 87l82 118c-82 36 -138 91 -215 91c-48 0 -75 -33 -75 -62c0 -53 78 -46 78 -105c0 -30 -24 -53 -55 -53c-44 0 -87 43 -87 117
c0 100 80 157 174 157zM645 570l-202 -291c31 -11 65 -18 104 -18c43 0 71 8 98 23v286z" />
    <glyph glyph-name="Adieresis.s15" horiz-adv-x="1369" 
d="M1057 850c0 28 21 52 53 52s54 -24 54 -52c0 -27 -22 -51 -54 -51s-53 24 -53 51zM1223 850c0 28 21 52 54 52c32 0 53 -24 53 -52c0 -27 -21 -51 -53 -51c-33 0 -54 24 -54 51zM1339 0h-293v25c80 5 97 11 97 87v105h-243l-90 -131c-144 -207 -300 -289 -481 -289
c-212 0 -329 118 -329 264c0 138 121 215 222 215c61 0 115 -28 115 -82c0 -35 -27 -62 -62 -62c-63 0 -56 67 -115 67c-49 0 -110 -50 -110 -138c0 -127 112 -220 279 -220c156 0 308 74 442 269l407 590h64v-588c0 -76 17 -82 97 -87v-25zM1143 572l-212 -310h212v310z
" />
    <glyph glyph-name="Adieresis.s16" horiz-adv-x="1367" 
d="M1055 850c0 28 21 52 53 52s54 -24 54 -52c0 -27 -22 -51 -54 -51s-53 24 -53 51zM1221 850c0 28 21 52 54 52c32 0 53 -24 53 -52c0 -27 -21 -51 -53 -51c-33 0 -54 24 -54 51zM1337 0h-294v25c81 5 98 11 98 87v105h-244l-90 -131c-145 -209 -293 -289 -476 -289
c-201 0 -331 136 -331 311c0 182 147 294 287 294c132 0 226 -86 226 -192c0 -85 -42 -131 -99 -131c-37 0 -65 26 -65 59c0 71 84 44 84 114c0 59 -54 105 -146 105c-115 0 -237 -94 -237 -249c0 -154 123 -267 281 -267s303 74 438 269l407 590h64v-588
c0 -76 17 -82 97 -87v-25zM1141 572l-213 -310h213v310z" />
    <glyph glyph-name="Adieresis.s17" horiz-adv-x="1369" 
d="M1057 850c0 28 21 52 53 52s54 -24 54 -52c0 -27 -22 -51 -54 -51s-53 24 -53 51zM1223 850c0 28 21 52 54 52c32 0 53 -24 53 -52c0 -27 -21 -51 -53 -51c-33 0 -54 24 -54 51zM765 700h477v-588c0 -76 17 -82 97 -87v-25h-293v25c80 5 97 11 97 87v105h-243l-90 -131
c-144 -207 -300 -289 -481 -289c-212 0 -329 118 -329 264c0 138 121 215 222 215c61 0 115 -28 115 -82c0 -35 -27 -62 -62 -62c-63 0 -56 67 -115 67c-49 0 -110 -50 -110 -138c0 -127 112 -220 279 -220c156 0 308 74 442 269l338 489c27 40 4 56 -27 56l-317 1
c-144 0 -234 -71 -234 -186c0 -81 56 -142 120 -142c35 0 55 13 55 38c0 20 -19 36 -19 65c0 38 25 60 58 60c41 0 63 -35 63 -73c0 -81 -64 -136 -150 -136c-104 0 -176 77 -176 188c0 126 102 230 283 230zM1143 572l-212 -310h212v310z" />
    <glyph glyph-name="Adieresis.s18" horiz-adv-x="1367" 
d="M1055 850c0 28 21 52 53 52s54 -24 54 -52c0 -27 -22 -51 -54 -51s-53 24 -53 51zM1221 850c0 28 21 52 54 52c32 0 53 -24 53 -52c0 -27 -21 -51 -53 -51c-33 0 -54 24 -54 51zM1337 0h-294v25c81 5 98 11 98 87v105h-244l-90 -131c-145 -209 -293 -289 -476 -289
c-201 0 -331 136 -331 311c0 182 147 294 287 294c132 0 226 -86 226 -192c0 -85 -42 -130 -99 -130c-37 0 -65 25 -65 58c0 71 84 44 84 114c0 59 -54 105 -146 105c-115 0 -237 -94 -237 -249c0 -154 123 -267 281 -267s303 74 438 269l337 489c27 40 4 56 -26 56l-275 1
c-144 0 -233 -71 -233 -186c0 -81 55 -142 119 -142c35 0 56 13 56 38c0 20 -20 36 -20 65c0 38 26 60 58 60c42 0 64 -35 64 -73c0 -81 -64 -136 -151 -136c-104 0 -176 77 -176 188c0 126 102 230 283 230h435v-588c0 -76 17 -82 97 -87v-25zM1141 572l-213 -310h213v310z
" />
    <glyph glyph-name="Adieresis.s19" horiz-adv-x="1369" 
d="M1057 850c0 28 21 52 53 52s54 -24 54 -52c0 -27 -22 -51 -54 -51s-53 24 -53 51zM1223 850c0 28 21 52 54 52c32 0 53 -24 53 -52c0 -27 -21 -51 -53 -51c-33 0 -54 24 -54 51zM1178 700h64v-588c0 -76 17 -82 97 -87v-25h-293v25c76 5 95 10 97 76
c-18 82 -77 174 -162 234l-171 -249c-144 -207 -300 -289 -481 -289c-212 0 -329 118 -329 264c0 138 121 215 222 215c61 0 115 -28 115 -82c0 -35 -27 -62 -62 -62c-63 0 -56 67 -115 67c-49 0 -110 -50 -110 -138c0 -127 112 -220 279 -220c156 0 308 74 442 269l172 249
c-48 26 -103 42 -162 42c-84 0 -122 -31 -122 -59c0 -27 19 -33 19 -65c0 -28 -21 -53 -55 -53c-36 0 -61 34 -61 73c0 82 90 149 219 149c70 0 133 -19 188 -49zM1143 572l-136 -199c59 -43 105 -99 136 -161v360z" />
    <glyph glyph-name="Adieresis.s20" horiz-adv-x="1367" 
d="M1054 850c0 28 21 52 53 52s54 -24 54 -52c0 -27 -22 -51 -54 -51s-53 24 -53 51zM1220 850c0 28 21 52 54 52c32 0 53 -24 53 -52c0 -27 -21 -51 -53 -51c-33 0 -54 24 -54 51zM1337 0h-294v25c76 4 96 10 98 74c-16 91 -65 191 -151 253l-183 -266
c-145 -209 -293 -289 -476 -289c-201 0 -331 136 -331 311c0 182 147 294 287 294c132 0 226 -86 226 -192c0 -85 -42 -130 -99 -130c-37 0 -65 25 -65 58c0 71 84 44 84 114c0 59 -54 105 -146 105c-115 0 -237 -94 -237 -249c0 -154 123 -267 281 -267s303 74 438 269
l183 266c-44 23 -96 37 -157 37c-84 0 -123 -31 -123 -58c0 -28 20 -34 20 -66c0 -28 -21 -53 -55 -53c-36 0 -62 34 -62 73c0 82 91 149 220 149c71 0 132 -17 183 -45l198 287h64v-588c0 -76 17 -82 97 -87v-25zM1141 572l-125 -182c56 -41 98 -98 125 -161v343z" />
    <glyph glyph-name="Adieresis.s21" horiz-adv-x="946" 
d="M644 850c0 28 21 52 53 52s54 -24 54 -52c0 -27 -22 -51 -54 -51s-53 24 -53 51zM810 850c0 28 21 52 54 52c32 0 53 -24 53 -52c0 -27 -21 -51 -53 -51c-33 0 -54 24 -54 51zM927 0h-293v25c80 5 97 11 97 87v140h-288c-15 -36 -30 -73 -46 -109
c-52 -124 -121 -173 -227 -173c-109 0 -170 49 -170 100c0 32 23 56 55 56c75 0 53 -104 137 -104c52 0 115 25 163 136c122 271 196 568 475 542v-588c0 -76 17 -82 97 -87v-25zM731 645c-127 -24 -198 -175 -270 -348h270v348z" />
    <glyph glyph-name="Adieresis.s22" horiz-adv-x="946" 
d="M644 850c0 28 21 52 53 52s54 -24 54 -52c0 -27 -22 -51 -54 -51s-53 24 -53 51zM810 850c0 28 21 52 54 52c32 0 53 -24 53 -52c0 -27 -21 -51 -53 -51c-33 0 -54 24 -54 51zM927 0h-293v25c73 4 93 10 96 70c-22 124 -100 244 -229 294c-35 -76 -68 -162 -104 -246
c-52 -124 -121 -173 -227 -173c-109 0 -170 49 -170 100c0 32 23 56 55 56c75 0 53 -104 137 -104c52 0 115 25 163 136c37 82 69 166 105 244c-30 7 -62 12 -96 12c-84 0 -122 -32 -122 -60c0 -26 19 -33 19 -64c0 -28 -21 -54 -55 -54c-36 0 -61 34 -61 73
c0 83 90 149 219 149c41 0 79 -6 115 -16c77 158 171 274 351 258v-588c0 -76 17 -82 97 -87v-25zM520 429c97 -40 169 -116 211 -210v426c-93 -18 -156 -104 -211 -216z" />
    <glyph glyph-name="Adieresis.s23" horiz-adv-x="1295" 
d="M994 850c0 28 21 52 53 52s54 -24 54 -52c0 -27 -22 -51 -54 -51s-53 24 -53 51zM1160 850c0 28 21 52 54 52c32 0 53 -24 53 -52c0 -27 -21 -51 -53 -51c-33 0 -54 24 -54 51zM1179 700v-588c0 -76 17 -82 97 -87v-25h-293v25c80 5 97 11 97 87v140h-285
c-15 -37 -30 -74 -45 -109c-98 -226 -243 -343 -431 -343c-205 0 -317 116 -317 263c0 139 121 216 222 216c61 0 115 -28 115 -82c0 -35 -27 -62 -62 -62c-63 0 -56 67 -115 67c-49 0 -110 -50 -110 -139c0 -126 103 -219 268 -219c161 0 293 107 384 314
c121 271 196 568 475 542zM1080 645c-126 -27 -199 -184 -267 -348h267v348z" />
    <glyph glyph-name="Adieresis.s24" horiz-adv-x="1295" 
d="M993 850c0 28 21 52 53 52s54 -24 54 -52c0 -27 -22 -51 -54 -51s-53 24 -53 51zM1159 850c0 28 21 52 54 52c32 0 53 -24 53 -52c0 -27 -21 -51 -53 -51c-33 0 -54 24 -54 51zM1179 700v-588c0 -76 17 -82 97 -87v-25h-293v25c72 4 93 9 96 65
c-19 109 -105 225 -231 288c-34 -77 -65 -160 -98 -235c-98 -226 -243 -343 -431 -343c-205 0 -317 116 -317 263c0 139 121 216 222 216c61 0 115 -28 115 -82c0 -35 -27 -62 -62 -62c-63 0 -56 67 -115 67c-49 0 -110 -50 -110 -139c0 -126 103 -219 268 -219
c161 0 293 107 384 314c36 80 67 163 102 239c-50 19 -105 30 -163 30c-84 0 -123 -32 -123 -60c0 -26 20 -33 20 -64c0 -28 -21 -54 -55 -54c-36 0 -62 34 -62 73c0 83 91 149 220 149c66 0 127 -12 182 -33c78 159 173 279 354 262zM867 419c96 -48 170 -125 213 -213v439
c-93 -20 -158 -112 -213 -226z" />
    <glyph glyph-name="Adieresis.s25" horiz-adv-x="1308" 
d="M1005 850c0 28 21 52 53 52s54 -24 54 -52c0 -27 -22 -51 -54 -51s-53 24 -53 51zM1171 850c0 28 21 52 54 52c32 0 53 -24 53 -52c0 -27 -21 -51 -53 -51c-33 0 -54 24 -54 51zM1288 0h-293v25c80 5 97 11 97 87v140h-284c-15 -37 -30 -74 -45 -109
c-101 -232 -245 -346 -432 -346c-201 0 -331 136 -331 311c0 182 147 294 287 294c132 0 226 -86 226 -192c0 -85 -42 -130 -99 -130c-37 0 -65 25 -65 58c0 71 84 44 84 114c0 59 -54 105 -146 105c-115 0 -237 -94 -237 -249c0 -154 123 -267 281 -267
c180 0 298 118 385 317c121 271 197 568 475 542v-588c0 -76 17 -82 97 -87v-25zM1092 645c-125 -27 -198 -184 -266 -348h266v348z" />
    <glyph glyph-name="Adieresis.c1" horiz-adv-x="690" 
d="M202 850c0 28 21 52 53 52s54 -24 54 -52c0 -27 -22 -51 -54 -51s-53 24 -53 51zM368 850c0 28 21 52 54 52c32 0 53 -24 53 -52c0 -27 -21 -51 -53 -51c-33 0 -54 24 -54 51zM465 81v2c-66 -49 -150 -98 -242 -98c-112 0 -192 60 -192 163c0 160 190 223 434 263v112
c0 102 -30 147 -126 147c-79 0 -137 -52 -158 -132c-14 -48 -33 -69 -62 -69c-33 0 -53 23 -53 65c0 80 112 181 272 181c128 0 226 -43 226 -199v-423c0 -40 14 -59 45 -59c14 0 31 3 52 12v-36c-29 -16 -62 -25 -105 -25c-54 0 -91 27 -91 96zM262 42c62 0 133 34 203 87
v239c-198 -30 -326 -82 -326 -207c0 -76 51 -119 123 -119z" />
    <glyph glyph-name="Adieresis.XA.sx" horiz-adv-x="662" 
d="M308 700h57l229 -602c17 -47 37 -68 84 -73v-25h-260v25c75 5 92 20 76 62l-186 480l-181 -480c-14 -38 5 -57 82 -62v-25h-222v25c50 5 75 26 90 68zM199 850c0 28 21 52 53 52s54 -24 54 -52c0 -27 -22 -51 -54 -51s-53 24 -53 51zM365 850c0 28 21 52 54 52
c32 0 53 -24 53 -52c0 -27 -21 -51 -53 -51c-33 0 -54 24 -54 51z" />
    <glyph glyph-name="Atilde.s1" horiz-adv-x="898" 
d="M283 700h314l229 -602c17 -47 37 -68 84 -73v-25h-260v25c75 5 92 20 76 62l-49 128h-274l-48 -128c-14 -38 9 -57 86 -62v-25h-221v25c50 3 74 26 90 68l195 516c13 33 -2 47 -29 47h-193c-144 0 -233 -71 -233 -186c0 -81 56 -142 120 -142c35 0 55 13 55 38
c0 20 -20 36 -20 65c0 38 26 60 59 60c41 0 63 -35 63 -73c0 -81 -64 -136 -150 -136c-104 0 -177 77 -177 188c0 126 102 230 283 230zM539 573l-119 -314h240zM673 892h30c-5 -70 -39 -100 -82 -100c-48 0 -83 53 -119 53c-16 0 -33 -12 -38 -44h-32c5 70 39 100 82 100
c48 0 84 -53 120 -53c17 0 34 12 39 44z" />
    <glyph glyph-name="Atilde.s2" horiz-adv-x="898" 
d="M283 728c97 0 185 -28 289 -28h26l229 -602c17 -47 37 -68 84 -73v-25h-260v25c75 5 92 20 76 62l-49 128h-274l-48 -128c-15 -38 9 -57 86 -62v-25h-221v25c49 3 74 26 89 68l192 507c15 41 1 50 -27 58c-48 14 -133 26 -192 26c-144 0 -233 -72 -233 -187
c0 -81 56 -141 120 -141c35 0 55 13 55 37c0 21 -20 36 -20 65c0 38 26 61 59 61c41 0 63 -35 63 -74c0 -81 -64 -135 -150 -135c-104 0 -177 76 -177 187c0 127 102 231 283 231zM540 573l-119 -314h240zM674 892h30c-5 -70 -39 -100 -82 -100c-48 0 -83 53 -119 53
c-16 0 -33 -12 -38 -44h-32c5 70 39 100 82 100c48 0 84 -53 120 -53c17 0 34 12 39 44z" />
    <glyph glyph-name="Atilde.s3" horiz-adv-x="665" 
d="M308 700h57l229 -602c17 -47 37 -68 84 -73v-25h-260v25c75 5 92 20 76 62l-57 146c-24 -27 -63 -46 -113 -46c-49 0 -97 27 -145 46l-55 -146c-15 -38 8 -57 85 -62v-25h-222v25c50 5 75 26 90 68l59 155c-14 4 -27 6 -40 6c-36 0 -63 -12 -98 -41l-21 21
c34 46 87 79 155 79c9 0 18 -1 27 -2zM307 572l-103 -274c48 -19 93 -47 153 -47c26 0 48 5 68 15zM441 892h30c-5 -70 -39 -100 -82 -100c-48 0 -83 53 -119 53c-16 0 -33 -12 -38 -44h-32c5 70 39 100 82 100c48 0 84 -53 120 -53c17 0 34 12 39 44z" />
    <glyph glyph-name="Atilde.s4" horiz-adv-x="800" 
d="M442 700h58l229 -602c17 -47 37 -68 84 -73v-25h-260v25c75 5 91 20 75 62c-38 100 -148 194 -284 229l-86 -229c-14 -38 9 -57 86 -62v-25h-222v25c50 5 74 26 90 68l88 232c-22 4 -45 6 -67 6c-97 0 -136 -32 -136 -60c0 -26 20 -33 20 -64c0 -28 -22 -54 -56 -54
c-35 0 -61 34 -61 73c0 83 91 149 233 149c28 0 56 -3 83 -7zM441 572l-81 -214c82 -22 153 -65 209 -118zM576 892h30c-5 -70 -39 -100 -82 -100c-48 0 -83 53 -119 53c-16 0 -33 -12 -38 -44h-32c5 70 39 100 82 100c48 0 84 -53 120 -53c17 0 34 12 39 44z" />
    <glyph glyph-name="Atilde.s5" horiz-adv-x="875" 
d="M174 375c81 0 138 -32 196 -62l148 387h57l229 -602c17 -47 37 -68 84 -73v-25h-260v25c75 5 92 20 76 62l-58 150c-36 -19 -90 -40 -142 -40c-47 0 -86 8 -121 21l-49 -131c-15 -38 8 -57 85 -62v-25h-221v25c49 5 74 26 89 68l54 142c-75 37 -129 86 -202 86
c-48 0 -75 -33 -75 -62c0 -53 78 -46 78 -105c0 -30 -24 -53 -55 -53c-44 0 -87 43 -87 117c0 100 80 157 174 157zM517 572l-106 -280c40 -18 83 -31 136 -31c35 0 61 6 83 16zM653 892h30c-5 -70 -39 -100 -82 -100c-48 0 -83 53 -119 53c-16 0 -33 -12 -38 -44h-32
c5 70 39 100 82 100c48 0 84 -53 120 -53c17 0 34 12 39 44z" />
    <glyph glyph-name="Atilde.s6" horiz-adv-x="665" 
d="M308 700h57l229 -602c17 -47 37 -68 84 -73v-25h-260v25c75 5 92 20 76 62l-50 128h-272c-130 -329 -248 -449 -437 -449c-108 0 -184 53 -184 110c0 30 24 55 56 55c77 0 60 -112 149 -112c139 0 255 98 389 453zM307 572l-118 -313h238zM442 892h30
c-5 -70 -39 -100 -82 -100c-48 0 -83 53 -119 53c-16 0 -33 -12 -38 -44h-32c5 70 39 100 82 100c48 0 84 -53 120 -53c17 0 34 12 39 44z" />
    <glyph glyph-name="Atilde.s7" horiz-adv-x="800" 
d="M443 700h57l229 -602c17 -47 37 -68 84 -73v-25h-260v25c75 5 91 20 75 62c-38 100 -148 194 -283 229l-25 -68c-135 -354 -255 -482 -451 -482c-107 0 -183 53 -183 110c0 30 24 55 55 55c78 0 61 -112 149 -112c140 0 256 98 390 453l20 53c-22 4 -44 6 -67 6
c-97 0 -136 -32 -136 -60c0 -26 20 -33 20 -64c0 -28 -22 -54 -56 -54c-35 0 -61 34 -61 73c0 83 91 149 233 149c28 0 56 -3 83 -7zM441 572l-80 -214c81 -22 153 -65 208 -118zM576 892h30c-5 -70 -39 -100 -82 -100c-48 0 -83 53 -119 53c-16 0 -33 -12 -38 -44h-32
c5 70 39 100 82 100c48 0 84 -53 120 -53c17 0 34 12 39 44z" />
    <glyph glyph-name="Atilde.s8" horiz-adv-x="898" 
d="M910 0h-260v25c75 5 92 20 76 62l-49 128h-273c-130 -329 -247 -449 -437 -449c-108 0 -184 53 -184 110c0 30 24 55 56 55c77 0 60 -112 149 -112c140 0 255 98 390 453l124 328c16 42 4 56 -26 56h-193c-144 0 -233 -71 -233 -186c0 -81 56 -142 120 -142
c35 0 55 13 55 38c0 20 -20 36 -20 65c0 38 26 60 59 60c41 0 63 -35 63 -73c0 -81 -64 -136 -150 -136c-104 0 -177 77 -177 188c0 126 102 230 283 230h314l229 -602c17 -47 37 -68 84 -73v-25zM540 571l-119 -312h239zM673 892h30c-5 -70 -39 -100 -82 -100
c-48 0 -83 53 -119 53c-16 0 -33 -12 -38 -44h-32c5 70 39 100 82 100c48 0 84 -53 120 -53c17 0 34 12 39 44z" />
    <glyph glyph-name="Atilde.s9" horiz-adv-x="1089" 
d="M732 700h57l229 -602c17 -47 37 -68 84 -73v-25h-260v25c75 5 92 20 76 62l-50 128h-273c-71 -170 -163 -283 -343 -283c-140 0 -266 82 -266 236c0 127 88 197 179 197c104 0 157 -68 157 -136c0 -46 -26 -78 -66 -78c-30 0 -58 21 -58 53c0 37 27 43 27 72
c0 23 -27 41 -68 41c-60 0 -121 -53 -121 -149c0 -122 103 -191 216 -191c153 0 241 96 320 304zM731 572l-118 -313h238zM865 892h30c-5 -70 -39 -100 -82 -100c-48 0 -83 53 -119 53c-16 0 -33 -12 -38 -44h-32c5 70 39 100 82 100c48 0 84 -53 120 -53c17 0 34 12 39 44z
" />
    <glyph glyph-name="Atilde.s10" horiz-adv-x="1259" 
d="M1011 25c75 5 92 20 76 62l-50 128h-272c-129 -329 -264 -444 -451 -444c-188 0 -313 128 -313 304c0 182 148 302 288 302s230 -96 230 -196c0 -86 -46 -133 -98 -133c-37 0 -64 26 -64 61c0 60 82 49 82 109c0 62 -69 114 -150 114c-115 0 -241 -102 -241 -258
c0 -161 114 -258 265 -258c165 0 292 101 426 456l162 428h57l231 -604c16 -45 35 -66 82 -71v-25h-260v25zM900 572l-118 -313h238zM1034 892h30c-5 -70 -39 -100 -82 -100c-48 0 -83 53 -119 53c-16 0 -33 -12 -38 -44h-32c5 70 39 100 82 100c48 0 84 -53 120 -53
c17 0 34 12 39 44z" />
    <glyph glyph-name="Atilde.s11" horiz-adv-x="1354" 
d="M1182 87l-50 128h-272c-121 -301 -313 -419 -534 -418c-169 0 -326 103 -326 259c0 138 108 242 248 242c130 0 233 -72 233 -153c0 -31 -19 -61 -59 -61c-44 0 -64 36 -73 83c-9 42 -20 86 -107 86c-104 0 -196 -87 -196 -197c0 -132 134 -215 280 -215
c207 0 386 115 497 406l139 364c10 27 6 39 -32 49c-87 24 -174 39 -264 39c-159 0 -221 -68 -221 -152c0 -53 33 -108 100 -108c84 0 45 118 129 118c37 0 60 -30 60 -61c0 -62 -67 -111 -158 -111c-117 0 -180 76 -180 162c0 102 76 197 270 197c149 0 263 -44 353 -44h34
l224 -588c22 -61 42 -82 89 -87v-25h-260v25c80 5 90 26 76 62zM995 572l-119 -313h239zM1124 892h30c-5 -70 -39 -100 -82 -100c-48 0 -83 53 -119 53c-16 0 -33 -12 -38 -44h-32c5 70 39 100 82 100c48 0 84 -53 120 -53c17 0 34 12 39 44z" />
    <glyph glyph-name="Atilde.a1" horiz-adv-x="699" 
d="M508 700h64v-588c0 -76 17 -82 97 -87v-25h-294v25c80 5 98 11 98 87v105h-246l-75 -109c-35 -49 -2 -78 61 -83v-25h-229v25c37 1 75 30 115 87zM473 570l-214 -308h214v308zM628 892h30c-5 -70 -39 -100 -82 -100c-48 0 -83 53 -119 53c-16 0 -33 -12 -38 -44h-32
c5 70 39 100 82 100c48 0 84 -53 120 -53c17 0 34 12 39 44z" />
    <glyph glyph-name="Atilde.s12" horiz-adv-x="888" 
d="M283 700h478v-588c0 -76 17 -82 97 -87v-25h-294v25c80 5 98 11 98 87v105h-246l-75 -109c-35 -49 -2 -78 61 -83v-25h-229v25c37 1 75 30 115 87l343 493c23 34 -1 50 -30 50l-318 1c-144 0 -233 -71 -233 -186c0 -81 56 -142 120 -142c35 0 55 13 55 38
c0 20 -20 36 -20 65c0 38 26 60 59 60c41 0 63 -35 63 -73c0 -81 -64 -136 -150 -136c-104 0 -177 77 -177 188c0 126 102 230 283 230zM662 570l-214 -308h214v308zM817 892h30c-5 -70 -39 -100 -82 -100c-48 0 -83 53 -119 53c-16 0 -33 -12 -38 -44h-32
c5 70 39 100 82 100c48 0 84 -53 120 -53c17 0 34 12 39 44z" />
    <glyph glyph-name="Atilde.s13" horiz-adv-x="809" 
d="M618 700h63v-588c0 -76 18 -82 98 -87v-25h-294v25c73 4 94 10 97 69c-15 83 -75 179 -163 241l-158 -227c-34 -49 -1 -78 62 -83v-25h-229v25c37 1 75 30 115 87l172 247c-48 26 -102 42 -161 42c-84 0 -123 -31 -123 -59c0 -27 20 -33 20 -65c0 -28 -22 -53 -56 -53
c-35 0 -61 34 -61 73c0 82 91 149 220 149c70 0 133 -18 187 -49zM583 570l-138 -198c60 -43 107 -100 138 -163v361zM738 892h30c-5 -70 -39 -100 -82 -100c-48 0 -83 53 -119 53c-16 0 -33 -12 -38 -44h-32c5 70 39 100 82 100c48 0 84 -53 120 -53c17 0 34 12 39 44z" />
    <glyph glyph-name="Atilde.s14" horiz-adv-x="871" 
d="M174 375c95 0 157 -44 227 -78l279 403h64v-588c0 -76 17 -82 97 -87v-25h-294v25c81 5 98 11 98 87v125c-36 -19 -89 -40 -141 -40c-41 0 -76 6 -107 16l-73 -105c-34 -49 -2 -78 62 -83v-25h-230v25c37 1 76 30 116 87l82 118c-82 36 -138 91 -215 91
c-48 0 -75 -33 -75 -62c0 -53 78 -46 78 -105c0 -30 -24 -53 -55 -53c-44 0 -87 43 -87 117c0 100 80 157 174 157zM645 570l-202 -291c31 -11 65 -18 104 -18c43 0 71 8 98 23v286zM800 892h30c-5 -70 -39 -100 -82 -100c-48 0 -83 53 -119 53c-16 0 -33 -12 -38 -44h-32
c5 70 39 100 82 100c48 0 84 -53 120 -53c17 0 34 12 39 44z" />
    <glyph glyph-name="Atilde.s15" horiz-adv-x="1369" 
d="M1339 0h-293v25c80 5 97 11 97 87v105h-243l-90 -131c-144 -207 -300 -289 -481 -289c-212 0 -329 118 -329 264c0 138 121 215 222 215c61 0 115 -28 115 -82c0 -35 -27 -62 -62 -62c-63 0 -56 67 -115 67c-49 0 -110 -50 -110 -138c0 -127 112 -220 279 -220
c156 0 308 74 442 269l407 590h64v-588c0 -76 17 -82 97 -87v-25zM1143 572l-212 -310h212v310zM1299 892h30c-5 -70 -39 -100 -82 -100c-48 0 -83 53 -119 53c-16 0 -33 -12 -38 -44h-32c5 70 39 100 82 100c48 0 84 -53 120 -53c17 0 34 12 39 44z" />
    <glyph glyph-name="Atilde.s16" horiz-adv-x="1367" 
d="M1337 0h-294v25c81 5 98 11 98 87v105h-244l-90 -131c-145 -209 -293 -289 -476 -289c-201 0 -331 136 -331 311c0 182 147 294 287 294c132 0 226 -86 226 -192c0 -85 -42 -131 -99 -131c-37 0 -65 26 -65 59c0 71 84 44 84 114c0 59 -54 105 -146 105
c-115 0 -237 -94 -237 -249c0 -154 123 -267 281 -267s303 74 438 269l407 590h64v-588c0 -76 17 -82 97 -87v-25zM1141 572l-213 -310h213v310zM1296 892h30c-5 -70 -39 -100 -82 -100c-48 0 -83 53 -119 53c-16 0 -33 -12 -38 -44h-32c5 70 39 100 82 100
c48 0 84 -53 120 -53c17 0 34 12 39 44z" />
    <glyph glyph-name="Atilde.s17" horiz-adv-x="1369" 
d="M765 700h477v-588c0 -76 17 -82 97 -87v-25h-293v25c80 5 97 11 97 87v105h-243l-90 -131c-144 -207 -300 -289 -481 -289c-212 0 -329 118 -329 264c0 138 121 215 222 215c61 0 115 -28 115 -82c0 -35 -27 -62 -62 -62c-63 0 -56 67 -115 67c-49 0 -110 -50 -110 -138
c0 -127 112 -220 279 -220c156 0 308 74 442 269l338 489c27 40 4 56 -27 56l-317 1c-144 0 -234 -71 -234 -186c0 -81 56 -142 120 -142c35 0 55 13 55 38c0 20 -19 36 -19 65c0 38 25 60 58 60c41 0 63 -35 63 -73c0 -81 -64 -136 -150 -136c-104 0 -176 77 -176 188
c0 126 102 230 283 230zM1143 572l-212 -310h212v310zM1299 892h30c-5 -70 -39 -100 -82 -100c-48 0 -83 53 -119 53c-16 0 -33 -12 -38 -44h-32c5 70 39 100 82 100c48 0 84 -53 120 -53c17 0 34 12 39 44z" />
    <glyph glyph-name="Atilde.s18" horiz-adv-x="1367" 
d="M1337 0h-294v25c81 5 98 11 98 87v105h-244l-90 -131c-145 -209 -293 -289 -476 -289c-201 0 -331 136 -331 311c0 182 147 294 287 294c132 0 226 -86 226 -192c0 -85 -42 -130 -99 -130c-37 0 -65 25 -65 58c0 71 84 44 84 114c0 59 -54 105 -146 105
c-115 0 -237 -94 -237 -249c0 -154 123 -267 281 -267s303 74 438 269l337 489c27 40 4 56 -26 56l-275 1c-144 0 -233 -71 -233 -186c0 -81 55 -142 119 -142c35 0 56 13 56 38c0 20 -20 36 -20 65c0 38 26 60 58 60c42 0 64 -35 64 -73c0 -81 -64 -136 -151 -136
c-104 0 -176 77 -176 188c0 126 102 230 283 230h435v-588c0 -76 17 -82 97 -87v-25zM1141 572l-213 -310h213v310zM1297 892h30c-5 -70 -39 -100 -82 -100c-48 0 -83 53 -119 53c-16 0 -33 -12 -38 -44h-32c5 70 39 100 82 100c48 0 84 -53 120 -53c17 0 34 12 39 44z" />
    <glyph glyph-name="Atilde.s19" horiz-adv-x="1369" 
d="M1178 700h64v-588c0 -76 17 -82 97 -87v-25h-293v25c76 5 95 10 97 76c-18 82 -77 174 -162 234l-171 -249c-144 -207 -300 -289 -481 -289c-212 0 -329 118 -329 264c0 138 121 215 222 215c61 0 115 -28 115 -82c0 -35 -27 -62 -62 -62c-63 0 -56 67 -115 67
c-49 0 -110 -50 -110 -138c0 -127 112 -220 279 -220c156 0 308 74 442 269l172 249c-48 26 -103 42 -162 42c-84 0 -122 -31 -122 -59c0 -27 19 -33 19 -65c0 -28 -21 -53 -55 -53c-36 0 -61 34 -61 73c0 82 90 149 219 149c70 0 133 -19 188 -49zM1143 572l-136 -199
c59 -43 105 -99 136 -161v360zM1299 892h30c-5 -70 -39 -100 -82 -100c-48 0 -83 53 -119 53c-16 0 -33 -12 -38 -44h-32c5 70 39 100 82 100c48 0 84 -53 120 -53c17 0 34 12 39 44z" />
    <glyph glyph-name="Atilde.s20" horiz-adv-x="1367" 
d="M1337 0h-294v25c76 4 96 10 98 74c-16 91 -65 191 -151 253l-183 -266c-145 -209 -293 -289 -476 -289c-201 0 -331 136 -331 311c0 182 147 294 287 294c132 0 226 -86 226 -192c0 -85 -42 -130 -99 -130c-37 0 -65 25 -65 58c0 71 84 44 84 114c0 59 -54 105 -146 105
c-115 0 -237 -94 -237 -249c0 -154 123 -267 281 -267s303 74 438 269l183 266c-44 23 -96 37 -157 37c-84 0 -123 -31 -123 -58c0 -28 20 -34 20 -66c0 -28 -21 -53 -55 -53c-36 0 -62 34 -62 73c0 82 91 149 220 149c71 0 132 -17 183 -45l198 287h64v-588
c0 -76 17 -82 97 -87v-25zM1141 572l-125 -182c56 -41 98 -98 125 -161v343zM1296 892h30c-5 -70 -39 -100 -82 -100c-48 0 -83 53 -119 53c-16 0 -33 -12 -38 -44h-32c5 70 39 100 82 100c48 0 84 -53 120 -53c17 0 34 12 39 44z" />
    <glyph glyph-name="Atilde.s21" horiz-adv-x="946" 
d="M927 0h-293v25c80 5 97 11 97 87v140h-288c-15 -36 -30 -73 -46 -109c-52 -124 -121 -173 -227 -173c-109 0 -170 49 -170 100c0 32 23 56 55 56c75 0 53 -104 137 -104c52 0 115 25 163 136c122 271 196 568 475 542v-588c0 -76 17 -82 97 -87v-25zM731 645
c-127 -24 -198 -175 -270 -348h270v348zM885 892h30c-5 -70 -39 -100 -82 -100c-48 0 -83 53 -119 53c-16 0 -33 -12 -38 -44h-32c5 70 39 100 82 100c48 0 84 -53 120 -53c17 0 34 12 39 44z" />
    <glyph glyph-name="Atilde.s22" horiz-adv-x="946" 
d="M927 0h-293v25c73 4 93 10 96 70c-22 124 -100 244 -229 294c-35 -76 -68 -162 -104 -246c-52 -124 -121 -173 -227 -173c-109 0 -170 49 -170 100c0 32 23 56 55 56c75 0 53 -104 137 -104c52 0 115 25 163 136c37 82 69 166 105 244c-30 7 -62 12 -96 12
c-84 0 -122 -32 -122 -60c0 -26 19 -33 19 -64c0 -28 -21 -54 -55 -54c-36 0 -61 34 -61 73c0 83 90 149 219 149c41 0 79 -6 115 -16c77 158 171 274 351 258v-588c0 -76 17 -82 97 -87v-25zM520 429c97 -40 169 -116 211 -210v426c-93 -18 -156 -104 -211 -216zM886 892
h30c-5 -70 -39 -100 -82 -100c-48 0 -83 53 -119 53c-16 0 -33 -12 -38 -44h-32c5 70 39 100 82 100c48 0 84 -53 120 -53c17 0 34 12 39 44z" />
    <glyph glyph-name="Atilde.s23" horiz-adv-x="1295" 
d="M1179 700v-588c0 -76 17 -82 97 -87v-25h-293v25c80 5 97 11 97 87v140h-285c-15 -37 -30 -74 -45 -109c-98 -226 -243 -343 -431 -343c-205 0 -317 116 -317 263c0 139 121 216 222 216c61 0 115 -28 115 -82c0 -35 -27 -62 -62 -62c-63 0 -56 67 -115 67
c-49 0 -110 -50 -110 -139c0 -126 103 -219 268 -219c161 0 293 107 384 314c121 271 196 568 475 542zM1080 645c-126 -27 -199 -184 -267 -348h267v348zM1235 892h30c-5 -70 -39 -100 -82 -100c-48 0 -83 53 -119 53c-16 0 -33 -12 -38 -44h-32c5 70 39 100 82 100
c48 0 84 -53 120 -53c17 0 34 12 39 44z" />
    <glyph glyph-name="Atilde.s24" horiz-adv-x="1295" 
d="M1179 700v-588c0 -76 17 -82 97 -87v-25h-293v25c72 4 93 9 96 65c-19 109 -105 225 -231 288c-34 -77 -65 -160 -98 -235c-98 -226 -243 -343 -431 -343c-205 0 -317 116 -317 263c0 139 121 216 222 216c61 0 115 -28 115 -82c0 -35 -27 -62 -62 -62
c-63 0 -56 67 -115 67c-49 0 -110 -50 -110 -139c0 -126 103 -219 268 -219c161 0 293 107 384 314c36 80 67 163 102 239c-50 19 -105 30 -163 30c-84 0 -123 -32 -123 -60c0 -26 20 -33 20 -64c0 -28 -21 -54 -55 -54c-36 0 -62 34 -62 73c0 83 91 149 220 149
c66 0 127 -12 182 -33c78 159 173 279 354 262zM867 419c96 -48 170 -125 213 -213v439c-93 -20 -158 -112 -213 -226zM1234 892h30c-5 -70 -39 -100 -82 -100c-48 0 -83 53 -119 53c-16 0 -33 -12 -38 -44h-32c5 70 39 100 82 100c48 0 84 -53 120 -53c17 0 34 12 39 44z
" />
    <glyph glyph-name="Atilde.s25" horiz-adv-x="1308" 
d="M1288 0h-293v25c80 5 97 11 97 87v140h-284c-15 -37 -30 -74 -45 -109c-101 -232 -245 -346 -432 -346c-201 0 -331 136 -331 311c0 182 147 294 287 294c132 0 226 -86 226 -192c0 -85 -42 -130 -99 -130c-37 0 -65 25 -65 58c0 71 84 44 84 114c0 59 -54 105 -146 105
c-115 0 -237 -94 -237 -249c0 -154 123 -267 281 -267c180 0 298 118 385 317c121 271 197 568 475 542v-588c0 -76 17 -82 97 -87v-25zM1092 645c-125 -27 -198 -184 -266 -348h266v348zM1247 892h30c-5 -70 -39 -100 -82 -100c-48 0 -83 53 -119 53c-16 0 -33 -12 -38 -44
h-32c5 70 39 100 82 100c48 0 84 -53 120 -53c17 0 34 12 39 44z" />
    <glyph glyph-name="Atilde.c1" horiz-adv-x="690" 
d="M465 81v2c-66 -49 -150 -98 -242 -98c-112 0 -192 60 -192 163c0 160 190 223 434 263v112c0 102 -30 147 -126 147c-79 0 -137 -52 -158 -132c-14 -48 -33 -69 -62 -69c-33 0 -53 23 -53 65c0 80 112 181 272 181c128 0 226 -43 226 -199v-423c0 -40 14 -59 45 -59
c14 0 31 3 52 12v-36c-29 -16 -62 -25 -105 -25c-54 0 -91 27 -91 96zM262 42c62 0 133 34 203 87v239c-198 -30 -326 -82 -326 -207c0 -76 51 -119 123 -119zM443 892h30c-5 -70 -39 -100 -82 -100c-48 0 -83 53 -119 53c-16 0 -33 -12 -38 -44h-32c5 70 39 100 82 100
c48 0 84 -53 120 -53c17 0 34 12 39 44z" />
    <glyph glyph-name="Atilde.XA.sx" horiz-adv-x="662" 
d="M308 700h57l229 -602c17 -47 37 -68 84 -73v-25h-260v25c75 5 92 20 76 62l-186 480l-181 -480c-14 -38 5 -57 82 -62v-25h-222v25c50 5 75 26 90 68zM440 892h30c-5 -70 -39 -100 -82 -100c-48 0 -83 53 -119 53c-16 0 -33 -12 -38 -44h-32c5 70 39 100 82 100
c48 0 84 -53 120 -53c17 0 34 12 39 44z" />
    <glyph glyph-name="Aring.s1" horiz-adv-x="898" 
d="M283 700h314l229 -602c17 -47 37 -68 84 -73v-25h-260v25c75 5 92 20 76 62l-49 128h-274l-48 -128c-14 -38 9 -57 86 -62v-25h-221v25c50 3 74 26 90 68l195 516c13 33 -2 47 -29 47h-193c-144 0 -233 -71 -233 -186c0 -81 56 -142 120 -142c35 0 55 13 55 38
c0 20 -20 36 -20 65c0 38 26 60 59 60c41 0 63 -35 63 -73c0 -81 -64 -136 -150 -136c-104 0 -177 77 -177 188c0 126 102 230 283 230zM539 573l-119 -314h240zM468 849c0 55 44 100 99 100c56 0 101 -45 101 -100c0 -53 -45 -99 -101 -99c-55 0 -99 46 -99 99zM507 849
c0 -35 26 -62 60 -62c35 0 63 27 63 62s-28 62 -63 62c-34 0 -60 -27 -60 -62z" />
    <glyph glyph-name="Aring.s2" horiz-adv-x="898" 
d="M283 728c97 0 185 -28 289 -28h26l229 -602c17 -47 37 -68 84 -73v-25h-260v25c75 5 92 20 76 62l-49 128h-274l-48 -128c-15 -38 9 -57 86 -62v-25h-221v25c49 3 74 26 89 68l192 507c15 41 1 50 -27 58c-48 14 -133 26 -192 26c-144 0 -233 -72 -233 -187
c0 -81 56 -141 120 -141c35 0 55 13 55 37c0 21 -20 36 -20 65c0 38 26 61 59 61c41 0 63 -35 63 -74c0 -81 -64 -135 -150 -135c-104 0 -177 76 -177 187c0 127 102 231 283 231zM540 573l-119 -314h240zM469 849c0 55 44 100 99 100c56 0 101 -45 101 -100
c0 -53 -45 -99 -101 -99c-55 0 -99 46 -99 99zM508 849c0 -35 26 -62 60 -62c35 0 63 27 63 62s-28 62 -63 62c-34 0 -60 -27 -60 -62z" />
    <glyph glyph-name="Aring.s3" horiz-adv-x="665" 
d="M236 849c0 55 44 100 99 100c56 0 101 -45 101 -100c0 -53 -45 -99 -101 -99c-55 0 -99 46 -99 99zM275 849c0 -35 26 -62 60 -62c35 0 63 27 63 62s-28 62 -63 62c-34 0 -60 -27 -60 -62zM308 700h57l229 -602c17 -47 37 -68 84 -73v-25h-260v25c75 5 92 20 76 62
l-57 146c-24 -27 -63 -46 -113 -46c-49 0 -97 27 -145 46l-55 -146c-15 -38 8 -57 85 -62v-25h-222v25c50 5 75 26 90 68l59 155c-14 4 -27 6 -40 6c-36 0 -63 -12 -98 -41l-21 21c34 46 87 79 155 79c9 0 18 -1 27 -2zM307 572l-103 -274c48 -19 93 -47 153 -47
c26 0 48 5 68 15z" />
    <glyph glyph-name="Aring.s4" horiz-adv-x="800" 
d="M371 849c0 55 44 100 99 100c56 0 101 -45 101 -100c0 -53 -45 -99 -101 -99c-55 0 -99 46 -99 99zM410 849c0 -35 26 -62 60 -62c35 0 63 27 63 62s-28 62 -63 62c-34 0 -60 -27 -60 -62zM442 700h58l229 -602c17 -47 37 -68 84 -73v-25h-260v25c75 5 91 20 75 62
c-38 100 -148 194 -284 229l-86 -229c-14 -38 9 -57 86 -62v-25h-222v25c50 5 74 26 90 68l88 232c-22 4 -45 6 -67 6c-97 0 -136 -32 -136 -60c0 -26 20 -33 20 -64c0 -28 -22 -54 -56 -54c-35 0 -61 34 -61 73c0 83 91 149 233 149c28 0 56 -3 83 -7zM441 572l-81 -214
c82 -22 153 -65 209 -118z" />
    <glyph glyph-name="Aring.s5" horiz-adv-x="875" 
d="M448 849c0 55 44 100 99 100c56 0 101 -45 101 -100c0 -53 -45 -99 -101 -99c-55 0 -99 46 -99 99zM487 849c0 -35 26 -62 60 -62c35 0 63 27 63 62s-28 62 -63 62c-34 0 -60 -27 -60 -62zM174 375c81 0 138 -32 196 -62l148 387h57l229 -602c17 -47 37 -68 84 -73v-25
h-260v25c75 5 92 20 76 62l-58 150c-36 -19 -90 -40 -142 -40c-47 0 -86 8 -121 21l-49 -131c-15 -38 8 -57 85 -62v-25h-221v25c49 5 74 26 89 68l54 142c-75 37 -129 86 -202 86c-48 0 -75 -33 -75 -62c0 -53 78 -46 78 -105c0 -30 -24 -53 -55 -53c-44 0 -87 43 -87 117
c0 100 80 157 174 157zM517 572l-106 -280c40 -18 83 -31 136 -31c35 0 61 6 83 16z" />
    <glyph glyph-name="Aring.s6" horiz-adv-x="665" 
d="M237 849c0 55 44 100 99 100c56 0 101 -45 101 -100c0 -53 -45 -99 -101 -99c-55 0 -99 46 -99 99zM276 849c0 -35 26 -62 60 -62c35 0 63 27 63 62s-28 62 -63 62c-34 0 -60 -27 -60 -62zM308 700h57l229 -602c17 -47 37 -68 84 -73v-25h-260v25c75 5 92 20 76 62
l-50 128h-272c-130 -329 -248 -449 -437 -449c-108 0 -184 53 -184 110c0 30 24 55 56 55c77 0 60 -112 149 -112c139 0 255 98 389 453zM307 572l-118 -313h238z" />
    <glyph glyph-name="Aring.s7" horiz-adv-x="800" 
d="M371 849c0 55 44 100 99 100c56 0 101 -45 101 -100c0 -53 -45 -99 -101 -99c-55 0 -99 46 -99 99zM410 849c0 -35 26 -62 60 -62c35 0 63 27 63 62s-28 62 -63 62c-34 0 -60 -27 -60 -62zM443 700h57l229 -602c17 -47 37 -68 84 -73v-25h-260v25c75 5 91 20 75 62
c-38 100 -148 194 -283 229l-25 -68c-135 -354 -255 -482 -451 -482c-107 0 -183 53 -183 110c0 30 24 55 55 55c78 0 61 -112 149 -112c140 0 256 98 390 453l20 53c-22 4 -44 6 -67 6c-97 0 -136 -32 -136 -60c0 -26 20 -33 20 -64c0 -28 -22 -54 -56 -54
c-35 0 -61 34 -61 73c0 83 91 149 233 149c28 0 56 -3 83 -7zM441 572l-80 -214c81 -22 153 -65 208 -118z" />
    <glyph glyph-name="Aring.s8" horiz-adv-x="898" 
d="M910 0h-260v25c75 5 92 20 76 62l-49 128h-273c-130 -329 -247 -449 -437 -449c-108 0 -184 53 -184 110c0 30 24 55 56 55c77 0 60 -112 149 -112c140 0 255 98 390 453l124 328c16 42 4 56 -26 56h-193c-144 0 -233 -71 -233 -186c0 -81 56 -142 120 -142
c35 0 55 13 55 38c0 20 -20 36 -20 65c0 38 26 60 59 60c41 0 63 -35 63 -73c0 -81 -64 -136 -150 -136c-104 0 -177 77 -177 188c0 126 102 230 283 230h314l229 -602c17 -47 37 -68 84 -73v-25zM540 571l-119 -312h239zM468 849c0 55 44 100 99 100c56 0 101 -45 101 -100
c0 -53 -45 -99 -101 -99c-55 0 -99 46 -99 99zM507 849c0 -35 26 -62 60 -62c35 0 63 27 63 62s-28 62 -63 62c-34 0 -60 -27 -60 -62z" />
    <glyph glyph-name="Aring.s9" horiz-adv-x="1089" 
d="M732 700h57l229 -602c17 -47 37 -68 84 -73v-25h-260v25c75 5 92 20 76 62l-50 128h-273c-71 -170 -163 -283 -343 -283c-140 0 -266 82 -266 236c0 127 88 197 179 197c104 0 157 -68 157 -136c0 -46 -26 -78 -66 -78c-30 0 -58 21 -58 53c0 37 27 43 27 72
c0 23 -27 41 -68 41c-60 0 -121 -53 -121 -149c0 -122 103 -191 216 -191c153 0 241 96 320 304zM731 572l-118 -313h238zM660 849c0 55 44 100 99 100c56 0 101 -45 101 -100c0 -53 -45 -99 -101 -99c-55 0 -99 46 -99 99zM699 849c0 -35 26 -62 60 -62c35 0 63 27 63 62
s-28 62 -63 62c-34 0 -60 -27 -60 -62z" />
    <glyph glyph-name="Aring.s10" horiz-adv-x="1259" 
d="M1011 25c75 5 92 20 76 62l-50 128h-272c-129 -329 -264 -444 -451 -444c-188 0 -313 128 -313 304c0 182 148 302 288 302s230 -96 230 -196c0 -86 -46 -133 -98 -133c-37 0 -64 26 -64 61c0 60 82 49 82 109c0 62 -69 114 -150 114c-115 0 -241 -102 -241 -258
c0 -161 114 -258 265 -258c165 0 292 101 426 456l162 428h57l231 -604c16 -45 35 -66 82 -71v-25h-260v25zM900 572l-118 -313h238zM829 849c0 55 44 100 99 100c56 0 101 -45 101 -100c0 -53 -45 -99 -101 -99c-55 0 -99 46 -99 99zM868 849c0 -35 26 -62 60 -62
c35 0 63 27 63 62s-28 62 -63 62c-34 0 -60 -27 -60 -62z" />
    <glyph glyph-name="Aring.s11" horiz-adv-x="1354" 
d="M920 849c0 55 44 100 99 100c56 0 101 -45 101 -100c0 -53 -45 -99 -101 -99c-55 0 -99 46 -99 99zM959 849c0 -35 26 -62 60 -62c35 0 63 27 63 62s-28 62 -63 62c-34 0 -60 -27 -60 -62zM1182 87l-50 128h-272c-121 -301 -313 -419 -534 -418c-169 0 -326 103 -326 259
c0 138 108 242 248 242c130 0 233 -72 233 -153c0 -31 -19 -61 -59 -61c-44 0 -64 36 -73 83c-9 42 -20 86 -107 86c-104 0 -196 -87 -196 -197c0 -132 134 -215 280 -215c207 0 386 115 497 406l139 364c10 27 6 39 -32 49c-87 24 -174 39 -264 39
c-159 0 -221 -68 -221 -152c0 -53 33 -108 100 -108c84 0 45 118 129 118c37 0 60 -30 60 -61c0 -62 -67 -111 -158 -111c-117 0 -180 76 -180 162c0 102 76 197 270 197c149 0 263 -44 353 -44h34l224 -588c22 -61 42 -82 89 -87v-25h-260v25c80 5 90 26 76 62zM995 572
l-119 -313h239z" />
    <glyph glyph-name="Aring.a1" horiz-adv-x="699" 
d="M424 849c0 55 44 100 99 100c56 0 101 -45 101 -100c0 -53 -45 -99 -101 -99c-55 0 -99 46 -99 99zM463 849c0 -35 26 -62 60 -62c35 0 63 27 63 62s-28 62 -63 62c-34 0 -60 -27 -60 -62zM508 700h64v-588c0 -76 17 -82 97 -87v-25h-294v25c80 5 98 11 98 87v105h-246
l-75 -109c-35 -49 -2 -78 61 -83v-25h-229v25c37 1 75 30 115 87zM473 570l-214 -308h214v308z" />
    <glyph glyph-name="Aring.s12" horiz-adv-x="888" 
d="M283 700h478v-588c0 -76 17 -82 97 -87v-25h-294v25c80 5 98 11 98 87v105h-246l-75 -109c-35 -49 -2 -78 61 -83v-25h-229v25c37 1 75 30 115 87l343 493c23 34 -1 50 -30 50l-318 1c-144 0 -233 -71 -233 -186c0 -81 56 -142 120 -142c35 0 55 13 55 38
c0 20 -20 36 -20 65c0 38 26 60 59 60c41 0 63 -35 63 -73c0 -81 -64 -136 -150 -136c-104 0 -177 77 -177 188c0 126 102 230 283 230zM662 570l-214 -308h214v308zM612 849c0 55 44 100 99 100c56 0 101 -45 101 -100c0 -53 -45 -99 -101 -99c-55 0 -99 46 -99 99z
M651 849c0 -35 26 -62 60 -62c35 0 63 27 63 62s-28 62 -63 62c-34 0 -60 -27 -60 -62z" />
    <glyph glyph-name="Aring.s13" horiz-adv-x="809" 
d="M618 700h63v-588c0 -76 18 -82 98 -87v-25h-294v25c73 4 94 10 97 69c-15 83 -75 179 -163 241l-158 -227c-34 -49 -1 -78 62 -83v-25h-229v25c37 1 75 30 115 87l172 247c-48 26 -102 42 -161 42c-84 0 -123 -31 -123 -59c0 -27 20 -33 20 -65c0 -28 -22 -53 -56 -53
c-35 0 -61 34 -61 73c0 82 91 149 220 149c70 0 133 -18 187 -49zM583 570l-138 -198c60 -43 107 -100 138 -163v361zM533 849c0 55 44 100 99 100c56 0 101 -45 101 -100c0 -53 -45 -99 -101 -99c-55 0 -99 46 -99 99zM572 849c0 -35 26 -62 60 -62c35 0 63 27 63 62
s-28 62 -63 62c-34 0 -60 -27 -60 -62z" />
    <glyph glyph-name="Aring.s14" horiz-adv-x="871" 
d="M596 849c0 55 44 100 99 100c56 0 101 -45 101 -100c0 -53 -45 -99 -101 -99c-55 0 -99 46 -99 99zM635 849c0 -35 26 -62 60 -62c35 0 63 27 63 62s-28 62 -63 62c-34 0 -60 -27 -60 -62zM174 375c95 0 157 -44 227 -78l279 403h64v-588c0 -76 17 -82 97 -87v-25h-294
v25c81 5 98 11 98 87v125c-36 -19 -89 -40 -141 -40c-41 0 -76 6 -107 16l-73 -105c-34 -49 -2 -78 62 -83v-25h-230v25c37 1 76 30 116 87l82 118c-82 36 -138 91 -215 91c-48 0 -75 -33 -75 -62c0 -53 78 -46 78 -105c0 -30 -24 -53 -55 -53c-44 0 -87 43 -87 117
c0 100 80 157 174 157zM645 570l-202 -291c31 -11 65 -18 104 -18c43 0 71 8 98 23v286z" />
    <glyph glyph-name="Aring.s15" horiz-adv-x="1369" 
d="M1094 849c0 55 44 100 99 100c56 0 101 -45 101 -100c0 -53 -45 -99 -101 -99c-55 0 -99 46 -99 99zM1133 849c0 -35 26 -62 60 -62c35 0 63 27 63 62s-28 62 -63 62c-34 0 -60 -27 -60 -62zM1339 0h-293v25c80 5 97 11 97 87v105h-243l-90 -131
c-144 -207 -300 -289 -481 -289c-212 0 -329 118 -329 264c0 138 121 215 222 215c61 0 115 -28 115 -82c0 -35 -27 -62 -62 -62c-63 0 -56 67 -115 67c-49 0 -110 -50 -110 -138c0 -127 112 -220 279 -220c156 0 308 74 442 269l407 590h64v-588c0 -76 17 -82 97 -87v-25z
M1143 572l-212 -310h212v310z" />
    <glyph glyph-name="Aring.s16" horiz-adv-x="1367" 
d="M1092 849c0 55 44 100 99 100c56 0 101 -45 101 -100c0 -53 -45 -99 -101 -99c-55 0 -99 46 -99 99zM1131 849c0 -35 26 -62 60 -62c35 0 63 27 63 62s-28 62 -63 62c-34 0 -60 -27 -60 -62zM1337 0h-294v25c81 5 98 11 98 87v105h-244l-90 -131
c-145 -209 -293 -289 -476 -289c-201 0 -331 136 -331 311c0 182 147 294 287 294c132 0 226 -86 226 -192c0 -85 -42 -131 -99 -131c-37 0 -65 26 -65 59c0 71 84 44 84 114c0 59 -54 105 -146 105c-115 0 -237 -94 -237 -249c0 -154 123 -267 281 -267s303 74 438 269
l407 590h64v-588c0 -76 17 -82 97 -87v-25zM1141 572l-213 -310h213v310z" />
    <glyph glyph-name="Aring.s17" horiz-adv-x="1369" 
d="M1094 849c0 55 44 100 99 100c56 0 101 -45 101 -100c0 -53 -45 -99 -101 -99c-55 0 -99 46 -99 99zM1133 849c0 -35 26 -62 60 -62c35 0 63 27 63 62s-28 62 -63 62c-34 0 -60 -27 -60 -62zM765 700h477v-588c0 -76 17 -82 97 -87v-25h-293v25c80 5 97 11 97 87v105
h-243l-90 -131c-144 -207 -300 -289 -481 -289c-212 0 -329 118 -329 264c0 138 121 215 222 215c61 0 115 -28 115 -82c0 -35 -27 -62 -62 -62c-63 0 -56 67 -115 67c-49 0 -110 -50 -110 -138c0 -127 112 -220 279 -220c156 0 308 74 442 269l338 489c27 40 4 56 -27 56
l-317 1c-144 0 -234 -71 -234 -186c0 -81 56 -142 120 -142c35 0 55 13 55 38c0 20 -19 36 -19 65c0 38 25 60 58 60c41 0 63 -35 63 -73c0 -81 -64 -136 -150 -136c-104 0 -176 77 -176 188c0 126 102 230 283 230zM1143 572l-212 -310h212v310z" />
    </font>
</defs>
</svg>
